M48
; DRILL file {KiCad 9.0.2} date 2025-06-22T15:00:03-1000
; FORMAT={-:-/ absolute / metric / decimal}
; #@! TF.CreationDate,2025-06-22T15:00:03-10:00
; #@! TF.GenerationSoftware,Kicad,Pcbnew,9.0.2
; #@! TF.FileFunction,Plated,1,2,PTH
FMAT,2
METRIC
; #@! TA.AperFunction,Plated,PTH,ViaDrill
T1C0.300
; #@! TA.AperFunction,Plated,PTH,ViaDrill
T2C0.500
; #@! TA.AperFunction,Plated,PTH,ViaDrill
T3C0.600
; #@! TA.AperFunction,Plated,PTH,ComponentDrill
T4C0.600
; #@! TA.AperFunction,Plated,PTH,ComponentDrill
T5C0.800
; #@! TA.AperFunction,Plated,PTH,ComponentDrill
T6C1.000
; #@! TA.AperFunction,Plated,PTH,ComponentDrill
T7C1.100
; #@! TA.AperFunction,Plated,PTH,ComponentDrill
T8C1.300
%
G90
G05
T1
X80.24Y-75.64
X92.6Y-80.84
X125.14Y-79.93
X156.08Y-84.37
X167.78Y-75.899
X168.81Y-86.21
X173.31Y-87.46
X176.5Y-85.92
X177.57Y-87.08
T2
X154.06Y-83.45
T3
X136.2Y-81.09
X158.45Y-80.09
T4
X78.0Y-85.0
X78.0Y-90.5
X80.0Y-85.0
X80.0Y-90.5
T5
X75.54Y-77.5
X75.54Y-80.65
X80.54Y-77.5
X80.54Y-80.65
X83.79Y-83.41
X84.23Y-90.26
X91.41Y-83.41
X91.85Y-90.26
X93.92Y-76.76
X101.54Y-76.76
X133.23Y-76.21
X133.23Y-83.83
X135.77Y-76.21
X135.77Y-83.83
X138.31Y-76.21
X138.31Y-83.83
X140.85Y-76.21
X140.85Y-83.83
X143.39Y-76.21
X143.39Y-83.83
X145.93Y-76.21
X145.93Y-83.83
X148.47Y-76.21
X148.47Y-83.83
X151.01Y-76.21
X151.01Y-83.83
X159.59Y-89.2
X167.21Y-89.2
T6
X172.95Y-76.37
X172.95Y-91.61
X175.49Y-76.37
X175.49Y-91.61
X178.03Y-76.37
X178.03Y-91.61
X180.57Y-76.37
X180.57Y-91.61
X183.11Y-76.37
X183.11Y-91.61
X185.65Y-76.37
X185.65Y-91.61
X188.19Y-76.37
X188.19Y-91.61
X190.73Y-76.37
X190.73Y-91.61
X193.27Y-76.37
X193.27Y-91.61
X195.81Y-76.37
X195.81Y-91.61
X198.35Y-76.37
X198.35Y-91.61
X200.89Y-76.37
X200.89Y-91.61
X203.43Y-76.37
X203.43Y-91.61
X205.97Y-76.37
X205.97Y-91.61
X208.51Y-76.37
X208.51Y-91.61
T7
X84.11Y-77.96
X86.65Y-77.96
X89.19Y-77.96
X94.5Y-83.0
X94.5Y-87.5
X101.0Y-83.0
X101.0Y-87.5
X106.0Y-83.0
X106.0Y-87.5
X112.5Y-83.0
X112.5Y-87.5
T8
X71.0Y-82.5
X71.0Y-86.0
X117.1Y-81.41
X127.1Y-78.91
X127.1Y-83.91
X147.86Y-88.487
X151.36Y-88.487
T6
G00X164.542Y-79.5
M15
G01X162.542Y-79.5
M16
G05
G00X164.542Y-85.5
M15
G01X162.542Y-85.5
M16
G05
G00X168.242Y-81.5
M15
G01X168.242Y-83.5
M16
G05
M30
