%TF.GenerationSoftware,KiCad,Pcbnew,9.0.2*%
%TF.CreationDate,2025-06-22T14:59:45-10:00*%
%TF.ProjectId,3D_Print_Pen,33445f50-7269-46e7-945f-50656e2e6b69,rev?*%
%TF.SameCoordinates,Original*%
%TF.FileFunction,Soldermask,Top*%
%TF.FilePolarity,Negative*%
%FSLAX46Y46*%
G04 Gerber Fmt 4.6, Leading zero omitted, Abs format (unit mm)*
G04 Created by KiCad (PCBNEW 9.0.2) date 2025-06-22 14:59:45*
%MOMM*%
%LPD*%
G01*
G04 APERTURE LIST*
G04 Aperture macros list*
%AMRoundRect*
0 Rectangle with rounded corners*
0 $1 Rounding radius*
0 $2 $3 $4 $5 $6 $7 $8 $9 X,Y pos of 4 corners*
0 Add a 4 corners polygon primitive as box body*
4,1,4,$2,$3,$4,$5,$6,$7,$8,$9,$2,$3,0*
0 Add four circle primitives for the rounded corners*
1,1,$1+$1,$2,$3*
1,1,$1+$1,$4,$5*
1,1,$1+$1,$6,$7*
1,1,$1+$1,$8,$9*
0 Add four rect primitives between the rounded corners*
20,1,$1+$1,$2,$3,$4,$5,0*
20,1,$1+$1,$4,$5,$6,$7,0*
20,1,$1+$1,$6,$7,$8,$9,0*
20,1,$1+$1,$8,$9,$2,$3,0*%
G04 Aperture macros list end*
%ADD10R,1.600000X1.600000*%
%ADD11O,1.600000X1.600000*%
%ADD12RoundRect,0.250000X-1.050000X1.050000X-1.050000X-1.050000X1.050000X-1.050000X1.050000X1.050000X0*%
%ADD13C,2.600000*%
%ADD14C,2.000000*%
%ADD15RoundRect,0.250000X-1.050000X-1.050000X1.050000X-1.050000X1.050000X1.050000X-1.050000X1.050000X0*%
%ADD16R,1.905000X2.000000*%
%ADD17O,1.905000X2.000000*%
%ADD18C,1.200000*%
%ADD19C,2.340000*%
%ADD20C,1.600000*%
%ADD21RoundRect,0.250000X-0.550000X0.550000X-0.550000X-0.550000X0.550000X-0.550000X0.550000X0.550000X0*%
%ADD22R,3.500000X3.500000*%
%ADD23RoundRect,0.750000X-1.000000X0.750000X-1.000000X-0.750000X1.000000X-0.750000X1.000000X0.750000X0*%
%ADD24RoundRect,0.875000X-0.875000X0.875000X-0.875000X-0.875000X0.875000X-0.875000X0.875000X0.875000X0*%
G04 APERTURE END LIST*
D10*
%TO.C,A1*%
X172950000Y-91610000D03*
D11*
X175490000Y-91610000D03*
X178030000Y-91610000D03*
X180570000Y-91610000D03*
X183110000Y-91610000D03*
X185650000Y-91610000D03*
X188190000Y-91610000D03*
X190730000Y-91610000D03*
X193270000Y-91610000D03*
X195810000Y-91610000D03*
X198350000Y-91610000D03*
X200890000Y-91610000D03*
X203430000Y-91610000D03*
X205970000Y-91610000D03*
X208510000Y-91610000D03*
X208510000Y-76370000D03*
X205970000Y-76370000D03*
X203430000Y-76370000D03*
X200890000Y-76370000D03*
X198350000Y-76370000D03*
X195810000Y-76370000D03*
X193270000Y-76370000D03*
X190730000Y-76370000D03*
X188190000Y-76370000D03*
X185650000Y-76370000D03*
X183110000Y-76370000D03*
X180570000Y-76370000D03*
X178030000Y-76370000D03*
X175490000Y-76370000D03*
X172950000Y-76370000D03*
%TD*%
D12*
%TO.C,HTR1*%
X71000000Y-82500000D03*
D13*
X71000000Y-86000000D03*
%TD*%
D14*
%TO.C,SW1*%
X94500000Y-83000000D03*
X101000000Y-83000000D03*
X94500000Y-87500000D03*
X101000000Y-87500000D03*
%TD*%
%TO.C,SW2*%
X106000000Y-83000000D03*
X112500000Y-83000000D03*
X106000000Y-87500000D03*
X112500000Y-87500000D03*
%TD*%
D15*
%TO.C,M1*%
X147860000Y-88487500D03*
D13*
X151360000Y-88487500D03*
%TD*%
D16*
%TO.C,Q1*%
X84110000Y-77960000D03*
D17*
X86650000Y-77960000D03*
X89190000Y-77960000D03*
%TD*%
D18*
%TO.C,C1*%
X78000000Y-85000000D03*
X80000000Y-85000000D03*
%TD*%
%TO.C,C2*%
X78000000Y-90500000D03*
X80000000Y-90500000D03*
%TD*%
D19*
%TO.C,RV1*%
X127100000Y-83910000D03*
X117100000Y-81410000D03*
X127100000Y-78910000D03*
%TD*%
D20*
%TO.C,C4*%
X80540000Y-80650000D03*
X75540000Y-80650000D03*
%TD*%
%TO.C,TH1*%
X93920000Y-76760000D03*
X101540000Y-76760000D03*
%TD*%
%TO.C,R_Pull1*%
X91850000Y-90260000D03*
X84230000Y-90260000D03*
%TD*%
%TO.C,C3*%
X80540000Y-77500000D03*
X75540000Y-77500000D03*
%TD*%
D21*
%TO.C,U1*%
X133230000Y-76210000D03*
D20*
X135770000Y-76210000D03*
X138310000Y-76210000D03*
X140850000Y-76210000D03*
X143390000Y-76210000D03*
X145930000Y-76210000D03*
X148470000Y-76210000D03*
X151010000Y-76210000D03*
X151010000Y-83830000D03*
X148470000Y-83830000D03*
X145930000Y-83830000D03*
X143390000Y-83830000D03*
X140850000Y-83830000D03*
X138310000Y-83830000D03*
X135770000Y-83830000D03*
X133230000Y-83830000D03*
%TD*%
%TO.C,R_TH1*%
X167210000Y-89200000D03*
X159590000Y-89200000D03*
%TD*%
D22*
%TO.C,J1*%
X163542500Y-85500000D03*
D23*
X163542500Y-79500000D03*
D24*
X168242500Y-82500000D03*
%TD*%
D20*
%TO.C,R_GATE1*%
X83790000Y-83410000D03*
X91410000Y-83410000D03*
%TD*%
M02*
