%TF.GenerationSoftware,KiCad,Pcbnew,9.0.2*%
%TF.CreationDate,2025-06-22T14:59:44-10:00*%
%TF.ProjectId,3D_Print_Pen,33445f50-7269-46e7-945f-50656e2e6b69,rev?*%
%TF.SameCoordinates,Original*%
%TF.FileFunction,Copper,L2,Bot*%
%TF.FilePolarity,Positive*%
%FSLAX46Y46*%
G04 Gerber Fmt 4.6, Leading zero omitted, Abs format (unit mm)*
G04 Created by KiCad (PCBNEW 9.0.2) date 2025-06-22 14:59:44*
%MOMM*%
%LPD*%
G01*
G04 APERTURE LIST*
G04 Aperture macros list*
%AMRoundRect*
0 Rectangle with rounded corners*
0 $1 Rounding radius*
0 $2 $3 $4 $5 $6 $7 $8 $9 X,Y pos of 4 corners*
0 Add a 4 corners polygon primitive as box body*
4,1,4,$2,$3,$4,$5,$6,$7,$8,$9,$2,$3,0*
0 Add four circle primitives for the rounded corners*
1,1,$1+$1,$2,$3*
1,1,$1+$1,$4,$5*
1,1,$1+$1,$6,$7*
1,1,$1+$1,$8,$9*
0 Add four rect primitives between the rounded corners*
20,1,$1+$1,$2,$3,$4,$5,0*
20,1,$1+$1,$4,$5,$6,$7,0*
20,1,$1+$1,$6,$7,$8,$9,0*
20,1,$1+$1,$8,$9,$2,$3,0*%
G04 Aperture macros list end*
%TA.AperFunction,ComponentPad*%
%ADD10R,1.600000X1.600000*%
%TD*%
%TA.AperFunction,ComponentPad*%
%ADD11O,1.600000X1.600000*%
%TD*%
%TA.AperFunction,ComponentPad*%
%ADD12RoundRect,0.250000X-1.050000X1.050000X-1.050000X-1.050000X1.050000X-1.050000X1.050000X1.050000X0*%
%TD*%
%TA.AperFunction,ComponentPad*%
%ADD13C,2.600000*%
%TD*%
%TA.AperFunction,ComponentPad*%
%ADD14C,2.000000*%
%TD*%
%TA.AperFunction,ComponentPad*%
%ADD15RoundRect,0.250000X-1.050000X-1.050000X1.050000X-1.050000X1.050000X1.050000X-1.050000X1.050000X0*%
%TD*%
%TA.AperFunction,ComponentPad*%
%ADD16R,1.905000X2.000000*%
%TD*%
%TA.AperFunction,ComponentPad*%
%ADD17O,1.905000X2.000000*%
%TD*%
%TA.AperFunction,ComponentPad*%
%ADD18C,1.200000*%
%TD*%
%TA.AperFunction,ComponentPad*%
%ADD19C,2.340000*%
%TD*%
%TA.AperFunction,ComponentPad*%
%ADD20C,1.600000*%
%TD*%
%TA.AperFunction,ComponentPad*%
%ADD21RoundRect,0.250000X-0.550000X0.550000X-0.550000X-0.550000X0.550000X-0.550000X0.550000X0.550000X0*%
%TD*%
%TA.AperFunction,ComponentPad*%
%ADD22R,3.500000X3.500000*%
%TD*%
%TA.AperFunction,ComponentPad*%
%ADD23RoundRect,0.750000X-1.000000X0.750000X-1.000000X-0.750000X1.000000X-0.750000X1.000000X0.750000X0*%
%TD*%
%TA.AperFunction,ComponentPad*%
%ADD24RoundRect,0.875000X-0.875000X0.875000X-0.875000X-0.875000X0.875000X-0.875000X0.875000X0.875000X0*%
%TD*%
%TA.AperFunction,ViaPad*%
%ADD25C,0.600000*%
%TD*%
%TA.AperFunction,ViaPad*%
%ADD26C,1.200000*%
%TD*%
%TA.AperFunction,ViaPad*%
%ADD27C,1.000000*%
%TD*%
%TA.AperFunction,Conductor*%
%ADD28C,0.200000*%
%TD*%
%TA.AperFunction,Conductor*%
%ADD29C,2.000000*%
%TD*%
%TA.AperFunction,Conductor*%
%ADD30C,1.200000*%
%TD*%
G04 APERTURE END LIST*
D10*
%TO.P,A1,1,D1/TX*%
%TO.N,Net-(A1-D1{slash}TX)*%
X172950000Y-91610000D03*
D11*
%TO.P,A1,2,D0/RX*%
%TO.N,unconnected-(A1-D0{slash}RX-Pad2)*%
X175490000Y-91610000D03*
%TO.P,A1,3,~{RESET}*%
%TO.N,unconnected-(A1-~{RESET}-Pad3)*%
X178030000Y-91610000D03*
%TO.P,A1,4,GND*%
%TO.N,GND*%
X180570000Y-91610000D03*
%TO.P,A1,5,D2*%
%TO.N,Net-(A1-D2)*%
X183110000Y-91610000D03*
%TO.P,A1,6,D3*%
%TO.N,/HeaterPower*%
X185650000Y-91610000D03*
%TO.P,A1,7,D4*%
%TO.N,/Retract*%
X188190000Y-91610000D03*
%TO.P,A1,8,D5*%
%TO.N,/Extrude*%
X190730000Y-91610000D03*
%TO.P,A1,9,D6*%
%TO.N,unconnected-(A1-D6-Pad9)*%
X193270000Y-91610000D03*
%TO.P,A1,10,D7*%
%TO.N,unconnected-(A1-D7-Pad10)*%
X195810000Y-91610000D03*
%TO.P,A1,11,D8*%
%TO.N,unconnected-(A1-D8-Pad11)*%
X198350000Y-91610000D03*
%TO.P,A1,12,D9*%
%TO.N,unconnected-(A1-D9-Pad12)*%
X200890000Y-91610000D03*
%TO.P,A1,13,D10*%
%TO.N,unconnected-(A1-D10-Pad13)*%
X203430000Y-91610000D03*
%TO.P,A1,14,D11*%
%TO.N,unconnected-(A1-D11-Pad14)*%
X205970000Y-91610000D03*
%TO.P,A1,15,D12*%
%TO.N,unconnected-(A1-D12-Pad15)*%
X208510000Y-91610000D03*
%TO.P,A1,16,D13*%
%TO.N,unconnected-(A1-D13-Pad16)*%
X208510000Y-76370000D03*
%TO.P,A1,17,3V3*%
%TO.N,unconnected-(A1-3V3-Pad17)*%
X205970000Y-76370000D03*
%TO.P,A1,18,AREF*%
%TO.N,unconnected-(A1-AREF-Pad18)*%
X203430000Y-76370000D03*
%TO.P,A1,19,A0*%
%TO.N,/Temp_Sense*%
X200890000Y-76370000D03*
%TO.P,A1,20,A1*%
%TO.N,Net-(A1-A1)*%
X198350000Y-76370000D03*
%TO.P,A1,21,A2*%
%TO.N,unconnected-(A1-A2-Pad21)*%
X195810000Y-76370000D03*
%TO.P,A1,22,A3*%
%TO.N,unconnected-(A1-A3-Pad22)*%
X193270000Y-76370000D03*
%TO.P,A1,23,A4*%
%TO.N,unconnected-(A1-A4-Pad23)*%
X190730000Y-76370000D03*
%TO.P,A1,24,A5*%
%TO.N,unconnected-(A1-A5-Pad24)*%
X188190000Y-76370000D03*
%TO.P,A1,25,A6*%
%TO.N,unconnected-(A1-A6-Pad25)*%
X185650000Y-76370000D03*
%TO.P,A1,26,A7*%
%TO.N,unconnected-(A1-A7-Pad26)*%
X183110000Y-76370000D03*
%TO.P,A1,27,+5V*%
%TO.N,+5V*%
X180570000Y-76370000D03*
%TO.P,A1,28,~{RESET}*%
%TO.N,unconnected-(A1-~{RESET}-Pad28)*%
X178030000Y-76370000D03*
%TO.P,A1,29,GND*%
%TO.N,GND*%
X175490000Y-76370000D03*
%TO.P,A1,30,VIN*%
%TO.N,unconnected-(A1-VIN-Pad30)*%
X172950000Y-76370000D03*
%TD*%
D12*
%TO.P,HTR1,1*%
%TO.N,+12V*%
X71000000Y-82500000D03*
D13*
%TO.P,HTR1,2*%
%TO.N,/HeaterPower*%
X71000000Y-86000000D03*
%TD*%
D14*
%TO.P,SW1,1,1*%
%TO.N,/Retract*%
X94500000Y-83000000D03*
X101000000Y-83000000D03*
%TO.P,SW1,2,2*%
%TO.N,GND*%
X94500000Y-87500000D03*
X101000000Y-87500000D03*
%TD*%
%TO.P,SW2,1,1*%
%TO.N,/Extrude*%
X106000000Y-83000000D03*
X112500000Y-83000000D03*
%TO.P,SW2,2,2*%
%TO.N,GND*%
X106000000Y-87500000D03*
X112500000Y-87500000D03*
%TD*%
D15*
%TO.P,M1,1,+*%
%TO.N,/MotorPower*%
X147860000Y-88487500D03*
D13*
%TO.P,M1,2,-*%
X151360000Y-88487500D03*
%TD*%
D16*
%TO.P,Q1,1,G*%
%TO.N,Net-(Q1-G)*%
X84110000Y-77960000D03*
D17*
%TO.P,Q1,2,D*%
%TO.N,/HeaterPower*%
X86650000Y-77960000D03*
%TO.P,Q1,3,S*%
%TO.N,GND*%
X89190000Y-77960000D03*
%TD*%
D18*
%TO.P,C1,1*%
%TO.N,+12V*%
X78000000Y-85000000D03*
%TO.P,C1,2*%
%TO.N,GND*%
X80000000Y-85000000D03*
%TD*%
%TO.P,C2,1*%
%TO.N,+12V*%
X78000000Y-90500000D03*
%TO.P,C2,2*%
%TO.N,GND*%
X80000000Y-90500000D03*
%TD*%
D19*
%TO.P,RV1,1,1*%
%TO.N,+5V*%
X127100000Y-83910000D03*
%TO.P,RV1,2,2*%
%TO.N,Net-(A1-A1)*%
X117100000Y-81410000D03*
%TO.P,RV1,3,3*%
%TO.N,GND*%
X127100000Y-78910000D03*
%TD*%
D20*
%TO.P,C4,1*%
%TO.N,/Temp_Sense*%
X80540000Y-80650000D03*
%TO.P,C4,2*%
%TO.N,GND*%
X75540000Y-80650000D03*
%TD*%
%TO.P,TH1,1*%
%TO.N,+5V*%
X93920000Y-76760000D03*
%TO.P,TH1,2*%
%TO.N,/Temp_Sense*%
X101540000Y-76760000D03*
%TD*%
%TO.P,R_Pull1,1*%
%TO.N,/HeaterPower*%
X91850000Y-90260000D03*
%TO.P,R_Pull1,2*%
%TO.N,GND*%
X84230000Y-90260000D03*
%TD*%
%TO.P,C3,1*%
%TO.N,+5V*%
X80540000Y-77500000D03*
%TO.P,C3,2*%
%TO.N,GND*%
X75540000Y-77500000D03*
%TD*%
D21*
%TO.P,U1,1,EN1\u002C2*%
%TO.N,+5V*%
X133230000Y-76210000D03*
D20*
%TO.P,U1,2,1A*%
%TO.N,Net-(A1-D1{slash}TX)*%
X135770000Y-76210000D03*
%TO.P,U1,3,1Y*%
%TO.N,/MotorPower*%
X138310000Y-76210000D03*
%TO.P,U1,4,GND*%
%TO.N,GND*%
X140850000Y-76210000D03*
%TO.P,U1,5,GND*%
X143390000Y-76210000D03*
%TO.P,U1,6,2Y*%
%TO.N,/MotorPower*%
X145930000Y-76210000D03*
%TO.P,U1,7,2A*%
%TO.N,Net-(A1-D2)*%
X148470000Y-76210000D03*
%TO.P,U1,8,VCC2*%
%TO.N,+12V*%
X151010000Y-76210000D03*
%TO.P,U1,9,EN3\u002C4*%
%TO.N,unconnected-(U1-EN3\u002C4-Pad9)*%
X151010000Y-83830000D03*
%TO.P,U1,10,3A*%
%TO.N,unconnected-(U1-3A-Pad10)*%
X148470000Y-83830000D03*
%TO.P,U1,11,3Y*%
%TO.N,unconnected-(U1-3Y-Pad11)*%
X145930000Y-83830000D03*
%TO.P,U1,12,GND*%
%TO.N,GND*%
X143390000Y-83830000D03*
%TO.P,U1,13,GND*%
X140850000Y-83830000D03*
%TO.P,U1,14,4Y*%
%TO.N,unconnected-(U1-4Y-Pad14)*%
X138310000Y-83830000D03*
%TO.P,U1,15,4A*%
%TO.N,unconnected-(U1-4A-Pad15)*%
X135770000Y-83830000D03*
%TO.P,U1,16,VCC1*%
%TO.N,+5V*%
X133230000Y-83830000D03*
%TD*%
%TO.P,R_TH1,1*%
%TO.N,/Temp_Sense*%
X167210000Y-89200000D03*
%TO.P,R_TH1,2*%
%TO.N,GND*%
X159590000Y-89200000D03*
%TD*%
D22*
%TO.P,J1,1*%
%TO.N,+12V*%
X163542500Y-85500000D03*
D23*
%TO.P,J1,2*%
%TO.N,GND*%
X163542500Y-79500000D03*
D24*
%TO.P,J1,3*%
%TO.N,N/C*%
X168242500Y-82500000D03*
%TD*%
D20*
%TO.P,R_GATE1,1*%
%TO.N,Net-(Q1-G)*%
X83790000Y-83410000D03*
%TO.P,R_GATE1,2*%
%TO.N,/HeaterPower*%
X91410000Y-83410000D03*
%TD*%
D25*
%TO.N,/Temp_Sense*%
X80240000Y-75640000D03*
X92600000Y-80840000D03*
%TO.N,/Extrude*%
X177570000Y-87080000D03*
%TO.N,Net-(A1-A1)*%
X125140000Y-79930000D03*
%TO.N,GND*%
X167780000Y-75899000D03*
%TO.N,Net-(A1-D1{slash}TX)*%
X173310000Y-87460000D03*
X168810000Y-86210000D03*
X156080000Y-84370000D03*
X176500000Y-85920000D03*
D26*
%TO.N,+12V*%
X136200000Y-81090000D03*
X158450000Y-80090000D03*
D27*
%TO.N,/MotorPower*%
X154060000Y-83450000D03*
%TD*%
D28*
%TO.N,/Temp_Sense*%
X80240000Y-75640000D02*
X80400000Y-75480000D01*
X201110000Y-82890000D02*
X200890000Y-82670000D01*
X80400000Y-75480000D02*
X100260000Y-75480000D01*
X200890000Y-82670000D02*
X200890000Y-76370000D01*
X167210000Y-89200000D02*
X173280000Y-83130000D01*
X93501529Y-75480000D02*
X100260000Y-75480000D01*
X201110000Y-83130000D02*
X201110000Y-82890000D01*
X92600000Y-76381529D02*
X93501529Y-75480000D01*
X100260000Y-75480000D02*
X101540000Y-76760000D01*
X173280000Y-83130000D02*
X201110000Y-83130000D01*
X92600000Y-80840000D02*
X92600000Y-76381529D01*
%TO.N,/Extrude*%
X177570000Y-87080000D02*
X186200000Y-87080000D01*
X186200000Y-87080000D02*
X190730000Y-91610000D01*
%TO.N,Net-(A1-A1)*%
X148740000Y-74860000D02*
X128490000Y-74860000D01*
X148740000Y-74860000D02*
X196840000Y-74860000D01*
X196840000Y-74860000D02*
X198350000Y-76370000D01*
X128490000Y-74860000D02*
X125140000Y-78210000D01*
X125140000Y-78210000D02*
X125140000Y-79930000D01*
%TO.N,GND*%
X167780000Y-75899000D02*
X168410000Y-75269000D01*
X159590000Y-89200000D02*
X157830000Y-87440000D01*
X157830000Y-87440000D02*
X157830000Y-87250000D01*
X174389000Y-75269000D02*
X175490000Y-76370000D01*
X168410000Y-75269000D02*
X174389000Y-75269000D01*
D29*
%TO.N,/HeaterPower*%
X86650000Y-77960000D02*
X86650000Y-80960000D01*
X169951000Y-89509000D02*
X168159000Y-91301000D01*
X86650000Y-80960000D02*
X89100000Y-83410000D01*
X185650000Y-90478630D02*
X184680370Y-89509000D01*
X164890000Y-91301000D02*
X92891000Y-91301000D01*
X168159000Y-91301000D02*
X164890000Y-91301000D01*
X71000000Y-86000000D02*
X74311580Y-86000000D01*
X83268737Y-80960000D02*
X86650000Y-80960000D01*
X185650000Y-91610000D02*
X185650000Y-90478630D01*
X91410000Y-89820000D02*
X91850000Y-90260000D01*
X89100000Y-83410000D02*
X91410000Y-83410000D01*
X91410000Y-83410000D02*
X91410000Y-89820000D01*
X81258737Y-82970000D02*
X83268737Y-80960000D01*
X184680370Y-89509000D02*
X169951000Y-89509000D01*
X77341580Y-82970000D02*
X81258737Y-82970000D01*
X92891000Y-91301000D02*
X91850000Y-90260000D01*
X74311580Y-86000000D02*
X77341580Y-82970000D01*
D30*
%TO.N,+5V*%
X122571000Y-75601000D02*
X109060000Y-75601000D01*
X161858632Y-77099000D02*
X171273422Y-77099000D01*
X172245422Y-78071000D02*
X178869000Y-78071000D01*
X95621000Y-78461000D02*
X93920000Y-76760000D01*
X106200000Y-78461000D02*
X95621000Y-78461000D01*
X160891500Y-78066132D02*
X161858632Y-77099000D01*
X135086132Y-78066132D02*
X160891500Y-78066132D01*
X133230000Y-76210000D02*
X135086132Y-78066132D01*
X123870000Y-76900000D02*
X122571000Y-75601000D01*
X171273422Y-77099000D02*
X172245422Y-78071000D01*
X123870000Y-80680000D02*
X123870000Y-76900000D01*
X133230000Y-83830000D02*
X133230000Y-76210000D01*
X178869000Y-78071000D02*
X180570000Y-76370000D01*
X127100000Y-83910000D02*
X123870000Y-80680000D01*
X109060000Y-75601000D02*
X106200000Y-78461000D01*
D28*
%TO.N,Net-(A1-D1{slash}TX)*%
X159361000Y-87651000D02*
X167369000Y-87651000D01*
X174850000Y-85920000D02*
X173310000Y-87460000D01*
X156080000Y-84370000D02*
X159361000Y-87651000D01*
X167369000Y-87651000D02*
X168810000Y-86210000D01*
X176500000Y-85920000D02*
X174850000Y-85920000D01*
D29*
%TO.N,+12V*%
X137200000Y-80090000D02*
X136200000Y-81090000D01*
X158450000Y-80090000D02*
X137200000Y-80090000D01*
D30*
%TO.N,/MotorPower*%
X154060000Y-85787500D02*
X151360000Y-88487500D01*
X154060000Y-83450000D02*
X154060000Y-85787500D01*
D28*
%TO.N,Net-(Q1-G)*%
X70830000Y-89240000D02*
X68580000Y-86990000D01*
X68580000Y-81892420D02*
X71771420Y-78701000D01*
X68580000Y-86990000D02*
X68580000Y-81892420D01*
X83369000Y-78701000D02*
X84110000Y-77960000D01*
X83790000Y-83410000D02*
X77960000Y-89240000D01*
X77960000Y-89240000D02*
X70830000Y-89240000D01*
X71771420Y-78701000D02*
X83369000Y-78701000D01*
%TD*%
%TA.AperFunction,Conductor*%
%TO.N,GND*%
G36*
X108783226Y-74530185D02*
G01*
X108828981Y-74582989D01*
X108838925Y-74652147D01*
X108809900Y-74715703D01*
X108763639Y-74749061D01*
X108681453Y-74783102D01*
X108681454Y-74783103D01*
X108633454Y-74802986D01*
X108485965Y-74901535D01*
X108485961Y-74901538D01*
X105863319Y-77524181D01*
X105801996Y-77557666D01*
X105775638Y-77560500D01*
X102500537Y-77560500D01*
X102433498Y-77540815D01*
X102387743Y-77488011D01*
X102377799Y-77418853D01*
X102397434Y-77367610D01*
X102418028Y-77336788D01*
X102470941Y-77257598D01*
X102550130Y-77066420D01*
X102590500Y-76863465D01*
X102590500Y-76656535D01*
X102550130Y-76453580D01*
X102470941Y-76262402D01*
X102355977Y-76090345D01*
X102355975Y-76090342D01*
X102209657Y-75944024D01*
X102101288Y-75871615D01*
X102037598Y-75829059D01*
X101934999Y-75786561D01*
X101846420Y-75749870D01*
X101846412Y-75749868D01*
X101643469Y-75709500D01*
X101643465Y-75709500D01*
X101436535Y-75709500D01*
X101436530Y-75709500D01*
X101233587Y-75749867D01*
X101233583Y-75749869D01*
X101233581Y-75749869D01*
X101233580Y-75749870D01*
X101220505Y-75755286D01*
X101163026Y-75779094D01*
X101093557Y-75786561D01*
X101031078Y-75755286D01*
X101027894Y-75752213D01*
X100768753Y-75493072D01*
X100475212Y-75199530D01*
X100475211Y-75199529D01*
X100475208Y-75199527D01*
X100395290Y-75153387D01*
X100395289Y-75153386D01*
X100395288Y-75153386D01*
X100306144Y-75129500D01*
X100306143Y-75129500D01*
X80478081Y-75129500D01*
X80445988Y-75125275D01*
X80406144Y-75114598D01*
X80312475Y-75089500D01*
X80167525Y-75089500D01*
X80038993Y-75123940D01*
X80027511Y-75127017D01*
X79901988Y-75199488D01*
X79901982Y-75199493D01*
X79799493Y-75301982D01*
X79799488Y-75301988D01*
X79727017Y-75427511D01*
X79727016Y-75427515D01*
X79689500Y-75567525D01*
X79689500Y-75712475D01*
X79720739Y-75829058D01*
X79727017Y-75852488D01*
X79799488Y-75978011D01*
X79799490Y-75978013D01*
X79799491Y-75978015D01*
X79901985Y-76080509D01*
X79901986Y-76080510D01*
X79901988Y-76080511D01*
X80027511Y-76152982D01*
X80027512Y-76152982D01*
X80027515Y-76152984D01*
X80167525Y-76190500D01*
X80167528Y-76190500D01*
X80226030Y-76190500D01*
X80293069Y-76210185D01*
X80338824Y-76262989D01*
X80348768Y-76332147D01*
X80319743Y-76395703D01*
X80264348Y-76432430D01*
X80138055Y-76473466D01*
X80117552Y-76480128D01*
X79963211Y-76558768D01*
X79892697Y-76610000D01*
X79823072Y-76660586D01*
X79823070Y-76660588D01*
X79823069Y-76660588D01*
X79700588Y-76783069D01*
X79700588Y-76783070D01*
X79700586Y-76783072D01*
X79674737Y-76818650D01*
X79598768Y-76923211D01*
X79520128Y-77077552D01*
X79466597Y-77242302D01*
X79441988Y-77397682D01*
X79439500Y-77413389D01*
X79439500Y-77586611D01*
X79466598Y-77757701D01*
X79520127Y-77922445D01*
X79598768Y-78076788D01*
X79619703Y-78105603D01*
X79654586Y-78153614D01*
X79678066Y-78219420D01*
X79662241Y-78287474D01*
X79612135Y-78336169D01*
X79554268Y-78350500D01*
X76768023Y-78350500D01*
X76700984Y-78330815D01*
X76655229Y-78278011D01*
X76645285Y-78208853D01*
X76657538Y-78170205D01*
X76744755Y-77999031D01*
X76807991Y-77804414D01*
X76840000Y-77602317D01*
X76840000Y-77397682D01*
X76807990Y-77195582D01*
X76744755Y-77000968D01*
X76651859Y-76818650D01*
X76619474Y-76774077D01*
X76619474Y-76774076D01*
X75940000Y-77453551D01*
X75940000Y-77447339D01*
X75912741Y-77345606D01*
X75860080Y-77254394D01*
X75785606Y-77179920D01*
X75694394Y-77127259D01*
X75592661Y-77100000D01*
X75586446Y-77100000D01*
X76265922Y-76420524D01*
X76265921Y-76420523D01*
X76221359Y-76388147D01*
X76221350Y-76388141D01*
X76039031Y-76295244D01*
X75844417Y-76232009D01*
X75642317Y-76200000D01*
X75437683Y-76200000D01*
X75235582Y-76232009D01*
X75040968Y-76295244D01*
X74858644Y-76388143D01*
X74814077Y-76420523D01*
X74814077Y-76420524D01*
X75493554Y-77100000D01*
X75487339Y-77100000D01*
X75385606Y-77127259D01*
X75294394Y-77179920D01*
X75219920Y-77254394D01*
X75167259Y-77345606D01*
X75140000Y-77447339D01*
X75140000Y-77453553D01*
X74460524Y-76774077D01*
X74460523Y-76774077D01*
X74428143Y-76818644D01*
X74335244Y-77000968D01*
X74272009Y-77195582D01*
X74240000Y-77397682D01*
X74240000Y-77602317D01*
X74272009Y-77804414D01*
X74335244Y-77999031D01*
X74422462Y-78170205D01*
X74435358Y-78238875D01*
X74409081Y-78303615D01*
X74351975Y-78343872D01*
X74311977Y-78350500D01*
X71725276Y-78350500D01*
X71636131Y-78374386D01*
X71556207Y-78420531D01*
X71556204Y-78420533D01*
X68299532Y-81677205D01*
X68299528Y-81677211D01*
X68257791Y-81749502D01*
X68253387Y-81757129D01*
X68253384Y-81757135D01*
X68230883Y-81841116D01*
X68229500Y-81846276D01*
X68229500Y-87036144D01*
X68231245Y-87042656D01*
X68251601Y-87118627D01*
X68253385Y-87125285D01*
X68253387Y-87125290D01*
X68299527Y-87205208D01*
X68299529Y-87205211D01*
X68299530Y-87205212D01*
X70614788Y-89520470D01*
X70682390Y-89559500D01*
X70694712Y-89566614D01*
X70783856Y-89590500D01*
X70783857Y-89590500D01*
X70783858Y-89590500D01*
X77336638Y-89590500D01*
X77403677Y-89610185D01*
X77449432Y-89662989D01*
X77459376Y-89732147D01*
X77430351Y-89795703D01*
X77424319Y-89802181D01*
X77300538Y-89925961D01*
X77300535Y-89925965D01*
X77201990Y-90073446D01*
X77201983Y-90073459D01*
X77134106Y-90237332D01*
X77134103Y-90237341D01*
X77099500Y-90411304D01*
X77099500Y-90588695D01*
X77134103Y-90762658D01*
X77134106Y-90762667D01*
X77201983Y-90926540D01*
X77201990Y-90926553D01*
X77300535Y-91074034D01*
X77300538Y-91074038D01*
X77425961Y-91199461D01*
X77425965Y-91199464D01*
X77573446Y-91298009D01*
X77573459Y-91298016D01*
X77645006Y-91327651D01*
X77737334Y-91365894D01*
X77737336Y-91365894D01*
X77737341Y-91365896D01*
X77911304Y-91400499D01*
X77911307Y-91400500D01*
X77911309Y-91400500D01*
X78088693Y-91400500D01*
X78088694Y-91400499D01*
X78146682Y-91388964D01*
X78262658Y-91365896D01*
X78262661Y-91365894D01*
X78262666Y-91365894D01*
X78426547Y-91298013D01*
X78574035Y-91199464D01*
X78699464Y-91074035D01*
X78785302Y-90945569D01*
X78838914Y-90900765D01*
X78908239Y-90892058D01*
X78971267Y-90922212D01*
X78998889Y-90958166D01*
X79059197Y-91076527D01*
X79063709Y-91082736D01*
X79063709Y-91082737D01*
X79646446Y-90500001D01*
X79646446Y-90499999D01*
X79606951Y-90460504D01*
X79700000Y-90460504D01*
X79700000Y-90539496D01*
X79720444Y-90615796D01*
X79759940Y-90684205D01*
X79815795Y-90740060D01*
X79884204Y-90779556D01*
X79960504Y-90800000D01*
X80039496Y-90800000D01*
X80115796Y-90779556D01*
X80184205Y-90740060D01*
X80240060Y-90684205D01*
X80279556Y-90615796D01*
X80300000Y-90539496D01*
X80300000Y-90499999D01*
X80353553Y-90499999D01*
X80353553Y-90500000D01*
X80936289Y-91082736D01*
X80940803Y-91076525D01*
X81019408Y-90922257D01*
X81072914Y-90757584D01*
X81100000Y-90586571D01*
X81100000Y-90413428D01*
X81072913Y-90242414D01*
X81072913Y-90242411D01*
X81056252Y-90191134D01*
X81045383Y-90157682D01*
X82930000Y-90157682D01*
X82930000Y-90362317D01*
X82962009Y-90564417D01*
X83025244Y-90759031D01*
X83118141Y-90941350D01*
X83118147Y-90941359D01*
X83150523Y-90985921D01*
X83150524Y-90985922D01*
X83830000Y-90306446D01*
X83830000Y-90312661D01*
X83857259Y-90414394D01*
X83909920Y-90505606D01*
X83984394Y-90580080D01*
X84075606Y-90632741D01*
X84177339Y-90660000D01*
X84183553Y-90660000D01*
X83504076Y-91339474D01*
X83548650Y-91371859D01*
X83730968Y-91464755D01*
X83925582Y-91527990D01*
X84127683Y-91560000D01*
X84332317Y-91560000D01*
X84534417Y-91527990D01*
X84729031Y-91464755D01*
X84911349Y-91371859D01*
X84955921Y-91339474D01*
X84276447Y-90660000D01*
X84282661Y-90660000D01*
X84384394Y-90632741D01*
X84475606Y-90580080D01*
X84550080Y-90505606D01*
X84602741Y-90414394D01*
X84630000Y-90312661D01*
X84630000Y-90306447D01*
X85309474Y-90985921D01*
X85341859Y-90941349D01*
X85434755Y-90759031D01*
X85497990Y-90564417D01*
X85530000Y-90362317D01*
X85530000Y-90157682D01*
X85497990Y-89955582D01*
X85434755Y-89760968D01*
X85341859Y-89578650D01*
X85309474Y-89534077D01*
X85309474Y-89534076D01*
X84630000Y-90213551D01*
X84630000Y-90207339D01*
X84602741Y-90105606D01*
X84550080Y-90014394D01*
X84475606Y-89939920D01*
X84384394Y-89887259D01*
X84282661Y-89860000D01*
X84276446Y-89860000D01*
X84955922Y-89180524D01*
X84955921Y-89180523D01*
X84911359Y-89148147D01*
X84911350Y-89148141D01*
X84729031Y-89055244D01*
X84534417Y-88992009D01*
X84332317Y-88960000D01*
X84127683Y-88960000D01*
X83925582Y-88992009D01*
X83730968Y-89055244D01*
X83548644Y-89148143D01*
X83504077Y-89180523D01*
X83504077Y-89180524D01*
X84183554Y-89860000D01*
X84177339Y-89860000D01*
X84075606Y-89887259D01*
X83984394Y-89939920D01*
X83909920Y-90014394D01*
X83857259Y-90105606D01*
X83830000Y-90207339D01*
X83830000Y-90213553D01*
X83150524Y-89534077D01*
X83150523Y-89534077D01*
X83118143Y-89578644D01*
X83025244Y-89760968D01*
X82962009Y-89955582D01*
X82930000Y-90157682D01*
X81045383Y-90157682D01*
X81019408Y-90077742D01*
X80940801Y-89923471D01*
X80936290Y-89917262D01*
X80936289Y-89917261D01*
X80353553Y-90499999D01*
X80300000Y-90499999D01*
X80300000Y-90460504D01*
X80279556Y-90384204D01*
X80240060Y-90315795D01*
X80184205Y-90259940D01*
X80115796Y-90220444D01*
X80039496Y-90200000D01*
X79960504Y-90200000D01*
X79884204Y-90220444D01*
X79815795Y-90259940D01*
X79759940Y-90315795D01*
X79720444Y-90384204D01*
X79700000Y-90460504D01*
X79606951Y-90460504D01*
X79063709Y-89917261D01*
X79063708Y-89917261D01*
X79059203Y-89923463D01*
X79059193Y-89923480D01*
X78998888Y-90041834D01*
X78950914Y-90092629D01*
X78883092Y-90109424D01*
X78816958Y-90086886D01*
X78785302Y-90054429D01*
X78699464Y-89925965D01*
X78699461Y-89925961D01*
X78574038Y-89800538D01*
X78574034Y-89800535D01*
X78452984Y-89719651D01*
X78452980Y-89719649D01*
X78426547Y-89701987D01*
X78289921Y-89645395D01*
X78287988Y-89644515D01*
X78263119Y-89623012D01*
X78237522Y-89602386D01*
X78236818Y-89600272D01*
X78235135Y-89598817D01*
X78225840Y-89567289D01*
X78224648Y-89563708D01*
X79417261Y-89563708D01*
X79417261Y-89563709D01*
X80000000Y-90146446D01*
X80000001Y-90146446D01*
X80582737Y-89563709D01*
X80576525Y-89559196D01*
X80422259Y-89480592D01*
X80257584Y-89427085D01*
X80086571Y-89400000D01*
X79913429Y-89400000D01*
X79742415Y-89427085D01*
X79577740Y-89480592D01*
X79423480Y-89559193D01*
X79423463Y-89559203D01*
X79417261Y-89563708D01*
X78224648Y-89563708D01*
X78215457Y-89536092D01*
X78216007Y-89533934D01*
X78215378Y-89531799D01*
X78224607Y-89500239D01*
X78232736Y-89468392D01*
X78234637Y-89465944D01*
X78234990Y-89464738D01*
X78236786Y-89463178D01*
X78251693Y-89443988D01*
X83277896Y-84417784D01*
X83339217Y-84384301D01*
X83408909Y-84389285D01*
X83413028Y-84390906D01*
X83483580Y-84420130D01*
X83643466Y-84451933D01*
X83686530Y-84460499D01*
X83686534Y-84460500D01*
X83686535Y-84460500D01*
X83893466Y-84460500D01*
X83893467Y-84460499D01*
X84096420Y-84420130D01*
X84287598Y-84340941D01*
X84459655Y-84225977D01*
X84605977Y-84079655D01*
X84720941Y-83907598D01*
X84800130Y-83716420D01*
X84840500Y-83513465D01*
X84840500Y-83306535D01*
X84800130Y-83103580D01*
X84720941Y-82912402D01*
X84605977Y-82740345D01*
X84605975Y-82740342D01*
X84459658Y-82594025D01*
X84459650Y-82594019D01*
X84300385Y-82487602D01*
X84255579Y-82433990D01*
X84246872Y-82364665D01*
X84277026Y-82301638D01*
X84336469Y-82264918D01*
X84369275Y-82260500D01*
X86059953Y-82260500D01*
X86126992Y-82280185D01*
X86147634Y-82296819D01*
X88252781Y-84401966D01*
X88418389Y-84522287D01*
X88509585Y-84568753D01*
X88600781Y-84615220D01*
X88640154Y-84628013D01*
X88795465Y-84678477D01*
X88997648Y-84710500D01*
X89985500Y-84710500D01*
X90052539Y-84730185D01*
X90098294Y-84782989D01*
X90109500Y-84834500D01*
X90109500Y-89922351D01*
X90141521Y-90124530D01*
X90141523Y-90124535D01*
X90143716Y-90131284D01*
X90204780Y-90319219D01*
X90233853Y-90376278D01*
X90297713Y-90501611D01*
X90418034Y-90667219D01*
X90858034Y-91107219D01*
X92043781Y-92292966D01*
X92209389Y-92413287D01*
X92234295Y-92425977D01*
X92391781Y-92506220D01*
X92391783Y-92506220D01*
X92391786Y-92506222D01*
X92442147Y-92522584D01*
X92489121Y-92537847D01*
X92489122Y-92537848D01*
X92513458Y-92545755D01*
X92586465Y-92569477D01*
X92788648Y-92601500D01*
X92788649Y-92601500D01*
X168261351Y-92601500D01*
X168261352Y-92601500D01*
X168463535Y-92569477D01*
X168560876Y-92537848D01*
X168658219Y-92506220D01*
X168815705Y-92425977D01*
X168840611Y-92413287D01*
X169006219Y-92292966D01*
X170453365Y-90845818D01*
X170514688Y-90812334D01*
X170541046Y-90809500D01*
X171775500Y-90809500D01*
X171842539Y-90829185D01*
X171888294Y-90881989D01*
X171899500Y-90933500D01*
X171899500Y-92434678D01*
X171914032Y-92507735D01*
X171914033Y-92507739D01*
X171914034Y-92507740D01*
X171969399Y-92590601D01*
X172013595Y-92620131D01*
X172052260Y-92645966D01*
X172052264Y-92645967D01*
X172125321Y-92660499D01*
X172125324Y-92660500D01*
X172125326Y-92660500D01*
X173774676Y-92660500D01*
X173774677Y-92660499D01*
X173847740Y-92645966D01*
X173930601Y-92590601D01*
X173985966Y-92507740D01*
X174000500Y-92434674D01*
X174000500Y-90933500D01*
X174020185Y-90866461D01*
X174072989Y-90820706D01*
X174124500Y-90809500D01*
X174529463Y-90809500D01*
X174596502Y-90829185D01*
X174642257Y-90881989D01*
X174652201Y-90951147D01*
X174632566Y-91002390D01*
X174559058Y-91112403D01*
X174479870Y-91303579D01*
X174479868Y-91303587D01*
X174439500Y-91506530D01*
X174439500Y-91713469D01*
X174479868Y-91916412D01*
X174479870Y-91916420D01*
X174545939Y-92075925D01*
X174559059Y-92107598D01*
X174560142Y-92109219D01*
X174674024Y-92279657D01*
X174820342Y-92425975D01*
X174820345Y-92425977D01*
X174992402Y-92540941D01*
X175183580Y-92620130D01*
X175386530Y-92660499D01*
X175386534Y-92660500D01*
X175386535Y-92660500D01*
X175593466Y-92660500D01*
X175593467Y-92660499D01*
X175796420Y-92620130D01*
X175987598Y-92540941D01*
X176159655Y-92425977D01*
X176305977Y-92279655D01*
X176420941Y-92107598D01*
X176500130Y-91916420D01*
X176540500Y-91713465D01*
X176540500Y-91506535D01*
X176500130Y-91303580D01*
X176420941Y-91112402D01*
X176347434Y-91002390D01*
X176326557Y-90935713D01*
X176345042Y-90868333D01*
X176397021Y-90821643D01*
X176450537Y-90809500D01*
X177069463Y-90809500D01*
X177136502Y-90829185D01*
X177182257Y-90881989D01*
X177192201Y-90951147D01*
X177172566Y-91002390D01*
X177099058Y-91112403D01*
X177019870Y-91303579D01*
X177019868Y-91303587D01*
X176979500Y-91506530D01*
X176979500Y-91713469D01*
X177019868Y-91916412D01*
X177019870Y-91916420D01*
X177085939Y-92075925D01*
X177099059Y-92107598D01*
X177100142Y-92109219D01*
X177214024Y-92279657D01*
X177360342Y-92425975D01*
X177360345Y-92425977D01*
X177532402Y-92540941D01*
X177723580Y-92620130D01*
X177926530Y-92660499D01*
X177926534Y-92660500D01*
X177926535Y-92660500D01*
X178133466Y-92660500D01*
X178133467Y-92660499D01*
X178336420Y-92620130D01*
X178527598Y-92540941D01*
X178699655Y-92425977D01*
X178845977Y-92279655D01*
X178960941Y-92107598D01*
X179040130Y-91916420D01*
X179050633Y-91863616D01*
X179083017Y-91801707D01*
X179143732Y-91767133D01*
X179213502Y-91770872D01*
X179270174Y-91811738D01*
X179294723Y-91868411D01*
X179302009Y-91914417D01*
X179365244Y-92109031D01*
X179458140Y-92291349D01*
X179578417Y-92456894D01*
X179578417Y-92456895D01*
X179723104Y-92601582D01*
X179888650Y-92721859D01*
X179973348Y-92765015D01*
X180024144Y-92812989D01*
X180040939Y-92880810D01*
X180018402Y-92946945D01*
X179963687Y-92990397D01*
X179917053Y-92999500D01*
X60374500Y-92999500D01*
X60307461Y-92979815D01*
X60261706Y-92927011D01*
X60250500Y-92875500D01*
X60250500Y-91436289D01*
X79417261Y-91436289D01*
X79417262Y-91436290D01*
X79423471Y-91440801D01*
X79577742Y-91519408D01*
X79742415Y-91572914D01*
X79913429Y-91600000D01*
X80086571Y-91600000D01*
X80257584Y-91572914D01*
X80422257Y-91519408D01*
X80576525Y-91440803D01*
X80582736Y-91436289D01*
X80582737Y-91436289D01*
X80000001Y-90853553D01*
X80000000Y-90853553D01*
X79417261Y-91436289D01*
X60250500Y-91436289D01*
X60250500Y-74634500D01*
X60270185Y-74567461D01*
X60322989Y-74521706D01*
X60374500Y-74510500D01*
X108716187Y-74510500D01*
X108783226Y-74530185D01*
G37*
%TD.AperFunction*%
%TA.AperFunction,Conductor*%
G36*
X212192539Y-74530185D02*
G01*
X212238294Y-74582989D01*
X212249500Y-74634500D01*
X212249500Y-92875500D01*
X212229815Y-92942539D01*
X212177011Y-92988294D01*
X212125500Y-92999500D01*
X186304047Y-92999500D01*
X186237008Y-92979815D01*
X186191253Y-92927011D01*
X186181309Y-92857853D01*
X186210334Y-92794297D01*
X186247752Y-92765015D01*
X186255452Y-92761091D01*
X186331610Y-92722287D01*
X186472217Y-92620131D01*
X186497213Y-92601971D01*
X186497215Y-92601968D01*
X186497219Y-92601966D01*
X186641966Y-92457219D01*
X186641968Y-92457215D01*
X186641971Y-92457213D01*
X186694732Y-92384590D01*
X186762287Y-92291610D01*
X186855220Y-92109219D01*
X186918477Y-91914534D01*
X186925558Y-91869826D01*
X186955487Y-91806692D01*
X187014798Y-91769760D01*
X187084661Y-91770758D01*
X187142894Y-91809367D01*
X187169648Y-91865033D01*
X187179868Y-91916412D01*
X187179870Y-91916420D01*
X187245939Y-92075925D01*
X187259059Y-92107598D01*
X187260142Y-92109219D01*
X187374024Y-92279657D01*
X187520342Y-92425975D01*
X187520345Y-92425977D01*
X187692402Y-92540941D01*
X187883580Y-92620130D01*
X188086530Y-92660499D01*
X188086534Y-92660500D01*
X188086535Y-92660500D01*
X188293466Y-92660500D01*
X188293467Y-92660499D01*
X188496420Y-92620130D01*
X188687598Y-92540941D01*
X188859655Y-92425977D01*
X189005977Y-92279655D01*
X189120941Y-92107598D01*
X189200130Y-91916420D01*
X189240500Y-91713465D01*
X189240500Y-91506535D01*
X189200130Y-91303580D01*
X189120941Y-91112402D01*
X189005977Y-90940345D01*
X189005975Y-90940342D01*
X188859657Y-90794024D01*
X188773626Y-90736541D01*
X188687598Y-90679059D01*
X188529453Y-90613553D01*
X188496420Y-90599870D01*
X188496412Y-90599868D01*
X188293469Y-90559500D01*
X188293465Y-90559500D01*
X188086535Y-90559500D01*
X188086530Y-90559500D01*
X187883587Y-90599868D01*
X187883579Y-90599870D01*
X187692403Y-90679058D01*
X187520342Y-90794024D01*
X187374024Y-90940342D01*
X187259057Y-91112403D01*
X187189061Y-91281391D01*
X187145220Y-91335794D01*
X187078926Y-91357859D01*
X187011226Y-91340580D01*
X186963616Y-91289442D01*
X186950500Y-91233938D01*
X186950500Y-90376278D01*
X186928492Y-90237332D01*
X186924184Y-90210130D01*
X186918477Y-90174095D01*
X186855220Y-89979412D01*
X186855220Y-89979411D01*
X186808753Y-89888215D01*
X186762287Y-89797019D01*
X186641966Y-89631411D01*
X185527589Y-88517034D01*
X185361981Y-88396713D01*
X185270784Y-88350246D01*
X185179589Y-88303780D01*
X185072729Y-88269059D01*
X184984905Y-88240523D01*
X184984902Y-88240522D01*
X184829590Y-88215923D01*
X184782722Y-88208500D01*
X173577290Y-88208500D01*
X173510251Y-88188815D01*
X173464496Y-88136011D01*
X173454552Y-88066853D01*
X173483577Y-88003297D01*
X173516780Y-87979358D01*
X173515447Y-87977048D01*
X173602731Y-87926653D01*
X173648015Y-87900509D01*
X173750509Y-87798015D01*
X173822984Y-87672485D01*
X173860500Y-87532475D01*
X173860500Y-87456544D01*
X173880185Y-87389505D01*
X173896819Y-87368863D01*
X174258157Y-87007525D01*
X177019500Y-87007525D01*
X177019500Y-87152475D01*
X177049432Y-87264181D01*
X177057017Y-87292488D01*
X177129488Y-87418011D01*
X177129490Y-87418013D01*
X177129491Y-87418015D01*
X177231985Y-87520509D01*
X177231986Y-87520510D01*
X177231988Y-87520511D01*
X177357511Y-87592982D01*
X177357512Y-87592982D01*
X177357515Y-87592984D01*
X177497525Y-87630500D01*
X177497528Y-87630500D01*
X177642472Y-87630500D01*
X177642475Y-87630500D01*
X177782485Y-87592984D01*
X177908015Y-87520509D01*
X177961705Y-87466819D01*
X178023028Y-87433334D01*
X178049386Y-87430500D01*
X186003456Y-87430500D01*
X186070495Y-87450185D01*
X186091137Y-87466819D01*
X189722213Y-91097895D01*
X189755698Y-91159218D01*
X189750714Y-91228910D01*
X189749093Y-91233028D01*
X189719871Y-91303575D01*
X189719868Y-91303587D01*
X189679500Y-91506530D01*
X189679500Y-91713469D01*
X189719868Y-91916412D01*
X189719870Y-91916420D01*
X189785939Y-92075925D01*
X189799059Y-92107598D01*
X189800142Y-92109219D01*
X189914024Y-92279657D01*
X190060342Y-92425975D01*
X190060345Y-92425977D01*
X190232402Y-92540941D01*
X190423580Y-92620130D01*
X190626530Y-92660499D01*
X190626534Y-92660500D01*
X190626535Y-92660500D01*
X190833466Y-92660500D01*
X190833467Y-92660499D01*
X191036420Y-92620130D01*
X191227598Y-92540941D01*
X191399655Y-92425977D01*
X191545977Y-92279655D01*
X191660941Y-92107598D01*
X191740130Y-91916420D01*
X191780500Y-91713465D01*
X191780500Y-91506535D01*
X191780499Y-91506530D01*
X192219500Y-91506530D01*
X192219500Y-91713469D01*
X192259868Y-91916412D01*
X192259870Y-91916420D01*
X192325939Y-92075925D01*
X192339059Y-92107598D01*
X192340142Y-92109219D01*
X192454024Y-92279657D01*
X192600342Y-92425975D01*
X192600345Y-92425977D01*
X192772402Y-92540941D01*
X192963580Y-92620130D01*
X193166530Y-92660499D01*
X193166534Y-92660500D01*
X193166535Y-92660500D01*
X193373466Y-92660500D01*
X193373467Y-92660499D01*
X193576420Y-92620130D01*
X193767598Y-92540941D01*
X193939655Y-92425977D01*
X194085977Y-92279655D01*
X194200941Y-92107598D01*
X194280130Y-91916420D01*
X194320500Y-91713465D01*
X194320500Y-91506535D01*
X194320499Y-91506530D01*
X194759500Y-91506530D01*
X194759500Y-91713469D01*
X194799868Y-91916412D01*
X194799870Y-91916420D01*
X194865939Y-92075925D01*
X194879059Y-92107598D01*
X194880142Y-92109219D01*
X194994024Y-92279657D01*
X195140342Y-92425975D01*
X195140345Y-92425977D01*
X195312402Y-92540941D01*
X195503580Y-92620130D01*
X195706530Y-92660499D01*
X195706534Y-92660500D01*
X195706535Y-92660500D01*
X195913466Y-92660500D01*
X195913467Y-92660499D01*
X196116420Y-92620130D01*
X196307598Y-92540941D01*
X196479655Y-92425977D01*
X196625977Y-92279655D01*
X196740941Y-92107598D01*
X196820130Y-91916420D01*
X196860500Y-91713465D01*
X196860500Y-91506535D01*
X196860499Y-91506530D01*
X197299500Y-91506530D01*
X197299500Y-91713469D01*
X197339868Y-91916412D01*
X197339870Y-91916420D01*
X197405939Y-92075925D01*
X197419059Y-92107598D01*
X197420142Y-92109219D01*
X197534024Y-92279657D01*
X197680342Y-92425975D01*
X197680345Y-92425977D01*
X197852402Y-92540941D01*
X198043580Y-92620130D01*
X198246530Y-92660499D01*
X198246534Y-92660500D01*
X198246535Y-92660500D01*
X198453466Y-92660500D01*
X198453467Y-92660499D01*
X198656420Y-92620130D01*
X198847598Y-92540941D01*
X199019655Y-92425977D01*
X199165977Y-92279655D01*
X199280941Y-92107598D01*
X199360130Y-91916420D01*
X199400500Y-91713465D01*
X199400500Y-91506535D01*
X199400499Y-91506530D01*
X199839500Y-91506530D01*
X199839500Y-91713469D01*
X199879868Y-91916412D01*
X199879870Y-91916420D01*
X199945939Y-92075925D01*
X199959059Y-92107598D01*
X199960142Y-92109219D01*
X200074024Y-92279657D01*
X200220342Y-92425975D01*
X200220345Y-92425977D01*
X200392402Y-92540941D01*
X200583580Y-92620130D01*
X200786530Y-92660499D01*
X200786534Y-92660500D01*
X200786535Y-92660500D01*
X200993466Y-92660500D01*
X200993467Y-92660499D01*
X201196420Y-92620130D01*
X201387598Y-92540941D01*
X201559655Y-92425977D01*
X201705977Y-92279655D01*
X201820941Y-92107598D01*
X201900130Y-91916420D01*
X201940500Y-91713465D01*
X201940500Y-91506535D01*
X201940499Y-91506530D01*
X202379500Y-91506530D01*
X202379500Y-91713469D01*
X202419868Y-91916412D01*
X202419870Y-91916420D01*
X202485939Y-92075925D01*
X202499059Y-92107598D01*
X202500142Y-92109219D01*
X202614024Y-92279657D01*
X202760342Y-92425975D01*
X202760345Y-92425977D01*
X202932402Y-92540941D01*
X203123580Y-92620130D01*
X203326530Y-92660499D01*
X203326534Y-92660500D01*
X203326535Y-92660500D01*
X203533466Y-92660500D01*
X203533467Y-92660499D01*
X203736420Y-92620130D01*
X203927598Y-92540941D01*
X204099655Y-92425977D01*
X204245977Y-92279655D01*
X204360941Y-92107598D01*
X204440130Y-91916420D01*
X204480500Y-91713465D01*
X204480500Y-91506535D01*
X204480499Y-91506530D01*
X204919500Y-91506530D01*
X204919500Y-91713469D01*
X204959868Y-91916412D01*
X204959870Y-91916420D01*
X205025939Y-92075925D01*
X205039059Y-92107598D01*
X205040142Y-92109219D01*
X205154024Y-92279657D01*
X205300342Y-92425975D01*
X205300345Y-92425977D01*
X205472402Y-92540941D01*
X205663580Y-92620130D01*
X205866530Y-92660499D01*
X205866534Y-92660500D01*
X205866535Y-92660500D01*
X206073466Y-92660500D01*
X206073467Y-92660499D01*
X206276420Y-92620130D01*
X206467598Y-92540941D01*
X206639655Y-92425977D01*
X206785977Y-92279655D01*
X206900941Y-92107598D01*
X206980130Y-91916420D01*
X207020500Y-91713465D01*
X207020500Y-91506535D01*
X207020499Y-91506530D01*
X207459500Y-91506530D01*
X207459500Y-91713469D01*
X207499868Y-91916412D01*
X207499870Y-91916420D01*
X207565939Y-92075925D01*
X207579059Y-92107598D01*
X207580142Y-92109219D01*
X207694024Y-92279657D01*
X207840342Y-92425975D01*
X207840345Y-92425977D01*
X208012402Y-92540941D01*
X208203580Y-92620130D01*
X208406530Y-92660499D01*
X208406534Y-92660500D01*
X208406535Y-92660500D01*
X208613466Y-92660500D01*
X208613467Y-92660499D01*
X208816420Y-92620130D01*
X209007598Y-92540941D01*
X209179655Y-92425977D01*
X209325977Y-92279655D01*
X209440941Y-92107598D01*
X209520130Y-91916420D01*
X209560500Y-91713465D01*
X209560500Y-91506535D01*
X209520130Y-91303580D01*
X209440941Y-91112402D01*
X209325977Y-90940345D01*
X209325975Y-90940342D01*
X209179657Y-90794024D01*
X209093626Y-90736541D01*
X209007598Y-90679059D01*
X208849453Y-90613553D01*
X208816420Y-90599870D01*
X208816412Y-90599868D01*
X208613469Y-90559500D01*
X208613465Y-90559500D01*
X208406535Y-90559500D01*
X208406530Y-90559500D01*
X208203587Y-90599868D01*
X208203579Y-90599870D01*
X208012403Y-90679058D01*
X207840342Y-90794024D01*
X207694024Y-90940342D01*
X207579058Y-91112403D01*
X207499870Y-91303579D01*
X207499868Y-91303587D01*
X207459500Y-91506530D01*
X207020499Y-91506530D01*
X206980130Y-91303580D01*
X206900941Y-91112402D01*
X206785977Y-90940345D01*
X206785975Y-90940342D01*
X206639657Y-90794024D01*
X206553626Y-90736541D01*
X206467598Y-90679059D01*
X206309453Y-90613553D01*
X206276420Y-90599870D01*
X206276412Y-90599868D01*
X206073469Y-90559500D01*
X206073465Y-90559500D01*
X205866535Y-90559500D01*
X205866530Y-90559500D01*
X205663587Y-90599868D01*
X205663579Y-90599870D01*
X205472403Y-90679058D01*
X205300342Y-90794024D01*
X205154024Y-90940342D01*
X205039058Y-91112403D01*
X204959870Y-91303579D01*
X204959868Y-91303587D01*
X204919500Y-91506530D01*
X204480499Y-91506530D01*
X204440130Y-91303580D01*
X204360941Y-91112402D01*
X204245977Y-90940345D01*
X204245975Y-90940342D01*
X204099657Y-90794024D01*
X204013626Y-90736541D01*
X203927598Y-90679059D01*
X203769453Y-90613553D01*
X203736420Y-90599870D01*
X203736412Y-90599868D01*
X203533469Y-90559500D01*
X203533465Y-90559500D01*
X203326535Y-90559500D01*
X203326530Y-90559500D01*
X203123587Y-90599868D01*
X203123579Y-90599870D01*
X202932403Y-90679058D01*
X202760342Y-90794024D01*
X202614024Y-90940342D01*
X202499058Y-91112403D01*
X202419870Y-91303579D01*
X202419868Y-91303587D01*
X202379500Y-91506530D01*
X201940499Y-91506530D01*
X201900130Y-91303580D01*
X201820941Y-91112402D01*
X201705977Y-90940345D01*
X201705975Y-90940342D01*
X201559657Y-90794024D01*
X201473626Y-90736541D01*
X201387598Y-90679059D01*
X201229453Y-90613553D01*
X201196420Y-90599870D01*
X201196412Y-90599868D01*
X200993469Y-90559500D01*
X200993465Y-90559500D01*
X200786535Y-90559500D01*
X200786530Y-90559500D01*
X200583587Y-90599868D01*
X200583579Y-90599870D01*
X200392403Y-90679058D01*
X200220342Y-90794024D01*
X200074024Y-90940342D01*
X199959058Y-91112403D01*
X199879870Y-91303579D01*
X199879868Y-91303587D01*
X199839500Y-91506530D01*
X199400499Y-91506530D01*
X199360130Y-91303580D01*
X199280941Y-91112402D01*
X199165977Y-90940345D01*
X199165975Y-90940342D01*
X199019657Y-90794024D01*
X198933626Y-90736541D01*
X198847598Y-90679059D01*
X198689453Y-90613553D01*
X198656420Y-90599870D01*
X198656412Y-90599868D01*
X198453469Y-90559500D01*
X198453465Y-90559500D01*
X198246535Y-90559500D01*
X198246530Y-90559500D01*
X198043587Y-90599868D01*
X198043579Y-90599870D01*
X197852403Y-90679058D01*
X197680342Y-90794024D01*
X197534024Y-90940342D01*
X197419058Y-91112403D01*
X197339870Y-91303579D01*
X197339868Y-91303587D01*
X197299500Y-91506530D01*
X196860499Y-91506530D01*
X196820130Y-91303580D01*
X196740941Y-91112402D01*
X196625977Y-90940345D01*
X196625975Y-90940342D01*
X196479657Y-90794024D01*
X196393626Y-90736541D01*
X196307598Y-90679059D01*
X196149453Y-90613553D01*
X196116420Y-90599870D01*
X196116412Y-90599868D01*
X195913469Y-90559500D01*
X195913465Y-90559500D01*
X195706535Y-90559500D01*
X195706530Y-90559500D01*
X195503587Y-90599868D01*
X195503579Y-90599870D01*
X195312403Y-90679058D01*
X195140342Y-90794024D01*
X194994024Y-90940342D01*
X194879058Y-91112403D01*
X194799870Y-91303579D01*
X194799868Y-91303587D01*
X194759500Y-91506530D01*
X194320499Y-91506530D01*
X194280130Y-91303580D01*
X194200941Y-91112402D01*
X194085977Y-90940345D01*
X194085975Y-90940342D01*
X193939657Y-90794024D01*
X193853626Y-90736541D01*
X193767598Y-90679059D01*
X193609453Y-90613553D01*
X193576420Y-90599870D01*
X193576412Y-90599868D01*
X193373469Y-90559500D01*
X193373465Y-90559500D01*
X193166535Y-90559500D01*
X193166530Y-90559500D01*
X192963587Y-90599868D01*
X192963579Y-90599870D01*
X192772403Y-90679058D01*
X192600342Y-90794024D01*
X192454024Y-90940342D01*
X192339058Y-91112403D01*
X192259870Y-91303579D01*
X192259868Y-91303587D01*
X192219500Y-91506530D01*
X191780499Y-91506530D01*
X191740130Y-91303580D01*
X191660941Y-91112402D01*
X191545977Y-90940345D01*
X191545975Y-90940342D01*
X191399657Y-90794024D01*
X191313626Y-90736541D01*
X191227598Y-90679059D01*
X191069453Y-90613553D01*
X191036420Y-90599870D01*
X191036412Y-90599868D01*
X190833469Y-90559500D01*
X190833465Y-90559500D01*
X190626535Y-90559500D01*
X190626530Y-90559500D01*
X190423587Y-90599868D01*
X190423575Y-90599871D01*
X190353028Y-90629093D01*
X190283559Y-90636562D01*
X190221080Y-90605287D01*
X190217895Y-90602213D01*
X186415213Y-86799531D01*
X186415208Y-86799527D01*
X186335290Y-86753387D01*
X186335289Y-86753386D01*
X186335288Y-86753386D01*
X186246144Y-86729500D01*
X186246143Y-86729500D01*
X178049386Y-86729500D01*
X177982347Y-86709815D01*
X177961705Y-86693181D01*
X177908017Y-86639493D01*
X177908011Y-86639488D01*
X177782488Y-86567017D01*
X177782489Y-86567017D01*
X177771006Y-86563940D01*
X177642475Y-86529500D01*
X177497525Y-86529500D01*
X177368993Y-86563940D01*
X177357511Y-86567017D01*
X177231988Y-86639488D01*
X177231982Y-86639493D01*
X177129493Y-86741982D01*
X177129488Y-86741988D01*
X177057017Y-86867511D01*
X177057016Y-86867515D01*
X177019500Y-87007525D01*
X174258157Y-87007525D01*
X174958863Y-86306819D01*
X175020186Y-86273334D01*
X175046544Y-86270500D01*
X176020614Y-86270500D01*
X176087653Y-86290185D01*
X176108295Y-86306819D01*
X176161985Y-86360509D01*
X176161986Y-86360510D01*
X176161988Y-86360511D01*
X176287511Y-86432982D01*
X176287512Y-86432982D01*
X176287515Y-86432984D01*
X176427525Y-86470500D01*
X176427528Y-86470500D01*
X176572472Y-86470500D01*
X176572475Y-86470500D01*
X176712485Y-86432984D01*
X176838015Y-86360509D01*
X176940509Y-86258015D01*
X177012984Y-86132485D01*
X177050500Y-85992475D01*
X177050500Y-85847525D01*
X177012984Y-85707515D01*
X177006922Y-85697016D01*
X176940511Y-85581988D01*
X176940506Y-85581982D01*
X176838017Y-85479493D01*
X176838011Y-85479488D01*
X176712488Y-85407017D01*
X176712489Y-85407017D01*
X176689156Y-85400765D01*
X176572475Y-85369500D01*
X176427525Y-85369500D01*
X176310844Y-85400765D01*
X176287511Y-85407017D01*
X176161988Y-85479488D01*
X176161982Y-85479493D01*
X176108295Y-85533181D01*
X176046972Y-85566666D01*
X176020614Y-85569500D01*
X174803856Y-85569500D01*
X174714712Y-85593386D01*
X174714709Y-85593387D01*
X174634791Y-85639527D01*
X174634786Y-85639531D01*
X173401137Y-86873181D01*
X173339814Y-86906666D01*
X173313456Y-86909500D01*
X173237525Y-86909500D01*
X173108993Y-86943940D01*
X173097511Y-86947017D01*
X172971988Y-87019488D01*
X172971982Y-87019493D01*
X172869493Y-87121982D01*
X172869488Y-87121988D01*
X172797017Y-87247511D01*
X172797016Y-87247515D01*
X172759500Y-87387525D01*
X172759500Y-87532475D01*
X172782431Y-87618052D01*
X172797017Y-87672488D01*
X172869488Y-87798011D01*
X172869490Y-87798013D01*
X172869491Y-87798015D01*
X172971985Y-87900509D01*
X172971986Y-87900510D01*
X172971988Y-87900511D01*
X173104553Y-87977048D01*
X173102783Y-87980113D01*
X173144554Y-88013763D01*
X173166630Y-88080053D01*
X173149363Y-88147755D01*
X173098234Y-88195374D01*
X173042710Y-88208500D01*
X169848648Y-88208500D01*
X169781768Y-88219093D01*
X169745521Y-88224834D01*
X169646464Y-88240523D01*
X169451784Y-88303777D01*
X169451781Y-88303778D01*
X169294295Y-88384023D01*
X169294294Y-88384022D01*
X169269388Y-88396713D01*
X169103786Y-88517028D01*
X169103782Y-88517032D01*
X168959031Y-88661784D01*
X168468303Y-89152510D01*
X168406980Y-89185995D01*
X168337288Y-89181011D01*
X168281355Y-89139139D01*
X168259005Y-89089020D01*
X168252287Y-89055244D01*
X168220130Y-88893580D01*
X168194467Y-88831626D01*
X168190906Y-88823028D01*
X168183437Y-88753559D01*
X168214712Y-88691079D01*
X168217758Y-88687922D01*
X173388862Y-83516819D01*
X173450185Y-83483334D01*
X173476543Y-83480500D01*
X201156142Y-83480500D01*
X201156144Y-83480500D01*
X201245288Y-83456614D01*
X201325212Y-83410469D01*
X201390469Y-83345212D01*
X201436614Y-83265288D01*
X201460500Y-83176144D01*
X201460500Y-82843856D01*
X201436614Y-82754712D01*
X201434195Y-82750523D01*
X201421417Y-82728391D01*
X201421416Y-82728388D01*
X201421416Y-82728389D01*
X201390470Y-82674788D01*
X201276819Y-82561137D01*
X201243334Y-82499814D01*
X201240500Y-82473456D01*
X201240500Y-77444725D01*
X201260185Y-77377686D01*
X201312989Y-77331931D01*
X201317048Y-77330164D01*
X201387594Y-77300943D01*
X201387595Y-77300942D01*
X201387598Y-77300941D01*
X201559655Y-77185977D01*
X201705977Y-77039655D01*
X201820941Y-76867598D01*
X201900130Y-76676420D01*
X201940500Y-76473465D01*
X201940500Y-76266535D01*
X201940499Y-76266530D01*
X202379500Y-76266530D01*
X202379500Y-76473469D01*
X202419868Y-76676412D01*
X202419870Y-76676420D01*
X202496849Y-76862264D01*
X202499059Y-76867598D01*
X202538703Y-76926930D01*
X202614024Y-77039657D01*
X202760342Y-77185975D01*
X202760345Y-77185977D01*
X202932402Y-77300941D01*
X203123580Y-77380130D01*
X203318255Y-77418853D01*
X203326530Y-77420499D01*
X203326534Y-77420500D01*
X203326535Y-77420500D01*
X203533466Y-77420500D01*
X203533467Y-77420499D01*
X203736420Y-77380130D01*
X203927598Y-77300941D01*
X204099655Y-77185977D01*
X204245977Y-77039655D01*
X204360941Y-76867598D01*
X204440130Y-76676420D01*
X204480500Y-76473465D01*
X204480500Y-76266535D01*
X204480499Y-76266530D01*
X204919500Y-76266530D01*
X204919500Y-76473469D01*
X204959868Y-76676412D01*
X204959870Y-76676420D01*
X205036849Y-76862264D01*
X205039059Y-76867598D01*
X205078703Y-76926930D01*
X205154024Y-77039657D01*
X205300342Y-77185975D01*
X205300345Y-77185977D01*
X205472402Y-77300941D01*
X205663580Y-77380130D01*
X205858255Y-77418853D01*
X205866530Y-77420499D01*
X205866534Y-77420500D01*
X205866535Y-77420500D01*
X206073466Y-77420500D01*
X206073467Y-77420499D01*
X206276420Y-77380130D01*
X206467598Y-77300941D01*
X206639655Y-77185977D01*
X206785977Y-77039655D01*
X206900941Y-76867598D01*
X206980130Y-76676420D01*
X207020500Y-76473465D01*
X207020500Y-76266535D01*
X207020499Y-76266530D01*
X207459500Y-76266530D01*
X207459500Y-76473469D01*
X207499868Y-76676412D01*
X207499870Y-76676420D01*
X207576849Y-76862264D01*
X207579059Y-76867598D01*
X207618703Y-76926930D01*
X207694024Y-77039657D01*
X207840342Y-77185975D01*
X207840345Y-77185977D01*
X208012402Y-77300941D01*
X208203580Y-77380130D01*
X208398255Y-77418853D01*
X208406530Y-77420499D01*
X208406534Y-77420500D01*
X208406535Y-77420500D01*
X208613466Y-77420500D01*
X208613467Y-77420499D01*
X208816420Y-77380130D01*
X209007598Y-77300941D01*
X209179655Y-77185977D01*
X209325977Y-77039655D01*
X209440941Y-76867598D01*
X209520130Y-76676420D01*
X209560500Y-76473465D01*
X209560500Y-76266535D01*
X209520130Y-76063580D01*
X209440941Y-75872402D01*
X209325977Y-75700345D01*
X209325975Y-75700342D01*
X209179657Y-75554024D01*
X209088430Y-75493069D01*
X209007598Y-75439059D01*
X208997359Y-75434818D01*
X208816420Y-75359870D01*
X208816412Y-75359868D01*
X208613469Y-75319500D01*
X208613465Y-75319500D01*
X208406535Y-75319500D01*
X208406530Y-75319500D01*
X208203587Y-75359868D01*
X208203579Y-75359870D01*
X208012403Y-75439058D01*
X207840342Y-75554024D01*
X207694024Y-75700342D01*
X207579058Y-75872403D01*
X207499870Y-76063579D01*
X207499868Y-76063587D01*
X207459500Y-76266530D01*
X207020499Y-76266530D01*
X206980130Y-76063580D01*
X206900941Y-75872402D01*
X206785977Y-75700345D01*
X206785975Y-75700342D01*
X206639657Y-75554024D01*
X206548430Y-75493069D01*
X206467598Y-75439059D01*
X206457359Y-75434818D01*
X206276420Y-75359870D01*
X206276412Y-75359868D01*
X206073469Y-75319500D01*
X206073465Y-75319500D01*
X205866535Y-75319500D01*
X205866530Y-75319500D01*
X205663587Y-75359868D01*
X205663579Y-75359870D01*
X205472403Y-75439058D01*
X205300342Y-75554024D01*
X205154024Y-75700342D01*
X205039058Y-75872403D01*
X204959870Y-76063579D01*
X204959868Y-76063587D01*
X204919500Y-76266530D01*
X204480499Y-76266530D01*
X204440130Y-76063580D01*
X204360941Y-75872402D01*
X204245977Y-75700345D01*
X204245975Y-75700342D01*
X204099657Y-75554024D01*
X204008430Y-75493069D01*
X203927598Y-75439059D01*
X203917359Y-75434818D01*
X203736420Y-75359870D01*
X203736412Y-75359868D01*
X203533469Y-75319500D01*
X203533465Y-75319500D01*
X203326535Y-75319500D01*
X203326530Y-75319500D01*
X203123587Y-75359868D01*
X203123579Y-75359870D01*
X202932403Y-75439058D01*
X202760342Y-75554024D01*
X202614024Y-75700342D01*
X202499058Y-75872403D01*
X202419870Y-76063579D01*
X202419868Y-76063587D01*
X202379500Y-76266530D01*
X201940499Y-76266530D01*
X201900130Y-76063580D01*
X201820941Y-75872402D01*
X201705977Y-75700345D01*
X201705975Y-75700342D01*
X201559657Y-75554024D01*
X201468430Y-75493069D01*
X201387598Y-75439059D01*
X201377359Y-75434818D01*
X201196420Y-75359870D01*
X201196412Y-75359868D01*
X200993469Y-75319500D01*
X200993465Y-75319500D01*
X200786535Y-75319500D01*
X200786530Y-75319500D01*
X200583587Y-75359868D01*
X200583579Y-75359870D01*
X200392403Y-75439058D01*
X200220342Y-75554024D01*
X200074024Y-75700342D01*
X199959058Y-75872403D01*
X199879870Y-76063579D01*
X199879868Y-76063587D01*
X199839500Y-76266530D01*
X199839500Y-76473469D01*
X199879868Y-76676412D01*
X199879870Y-76676420D01*
X199956849Y-76862264D01*
X199959059Y-76867598D01*
X199998703Y-76926930D01*
X200074024Y-77039657D01*
X200220342Y-77185975D01*
X200392405Y-77300943D01*
X200462952Y-77330164D01*
X200517356Y-77374005D01*
X200539421Y-77440299D01*
X200539500Y-77444725D01*
X200539500Y-82655500D01*
X200519815Y-82722539D01*
X200467011Y-82768294D01*
X200415500Y-82779500D01*
X173233856Y-82779500D01*
X173144712Y-82803386D01*
X173144711Y-82803386D01*
X173144709Y-82803387D01*
X173144706Y-82803388D01*
X173064794Y-82849526D01*
X173064785Y-82849533D01*
X169572181Y-86342136D01*
X169510858Y-86375621D01*
X169441166Y-86370637D01*
X169385233Y-86328765D01*
X169360816Y-86263301D01*
X169360500Y-86254455D01*
X169360500Y-86137527D01*
X169360500Y-86137525D01*
X169322984Y-85997515D01*
X169320072Y-85992472D01*
X169250511Y-85871988D01*
X169250506Y-85871982D01*
X169148017Y-85769493D01*
X169148011Y-85769488D01*
X169022488Y-85697017D01*
X169022489Y-85697017D01*
X169011006Y-85693940D01*
X168882475Y-85659500D01*
X168737525Y-85659500D01*
X168608993Y-85693940D01*
X168597511Y-85697017D01*
X168471988Y-85769488D01*
X168471982Y-85769493D01*
X168369493Y-85871982D01*
X168369488Y-85871988D01*
X168297017Y-85997511D01*
X168297016Y-85997515D01*
X168259500Y-86137525D01*
X168259500Y-86137527D01*
X168259500Y-86213456D01*
X168239815Y-86280495D01*
X168223181Y-86301137D01*
X167260137Y-87264181D01*
X167198814Y-87297666D01*
X167172456Y-87300500D01*
X165717000Y-87300500D01*
X165649961Y-87280815D01*
X165604206Y-87228011D01*
X165593000Y-87176500D01*
X165592999Y-83705143D01*
X165592999Y-83705137D01*
X165592999Y-83705136D01*
X165592997Y-83705117D01*
X165590086Y-83680012D01*
X165590085Y-83680010D01*
X165590085Y-83680009D01*
X165544706Y-83577235D01*
X165465265Y-83497794D01*
X165453352Y-83492534D01*
X165362492Y-83452415D01*
X165337365Y-83449500D01*
X161747643Y-83449500D01*
X161747617Y-83449502D01*
X161722512Y-83452413D01*
X161722508Y-83452415D01*
X161619735Y-83497793D01*
X161540294Y-83577234D01*
X161494915Y-83680006D01*
X161494915Y-83680008D01*
X161494735Y-83681564D01*
X161492000Y-83705135D01*
X161492000Y-85479590D01*
X161492001Y-87176500D01*
X161472316Y-87243539D01*
X161419512Y-87289294D01*
X161368001Y-87300500D01*
X159557544Y-87300500D01*
X159490505Y-87280815D01*
X159469863Y-87264181D01*
X156666819Y-84461137D01*
X156633334Y-84399814D01*
X156630500Y-84373456D01*
X156630500Y-84297527D01*
X156630500Y-84297525D01*
X156592984Y-84157515D01*
X156588691Y-84150080D01*
X156520511Y-84031988D01*
X156520506Y-84031982D01*
X156418017Y-83929493D01*
X156418011Y-83929488D01*
X156292488Y-83857017D01*
X156292489Y-83857017D01*
X156281006Y-83853940D01*
X156152475Y-83819500D01*
X156007525Y-83819500D01*
X155878993Y-83853940D01*
X155867511Y-83857017D01*
X155741988Y-83929488D01*
X155741982Y-83929493D01*
X155639493Y-84031982D01*
X155639488Y-84031988D01*
X155567017Y-84157511D01*
X155567016Y-84157515D01*
X155529500Y-84297525D01*
X155529500Y-84442475D01*
X155564596Y-84573453D01*
X155567017Y-84582488D01*
X155639488Y-84708011D01*
X155639490Y-84708013D01*
X155639491Y-84708015D01*
X155741985Y-84810509D01*
X155741986Y-84810510D01*
X155741988Y-84810511D01*
X155867511Y-84882982D01*
X155867512Y-84882982D01*
X155867515Y-84882984D01*
X156007525Y-84920500D01*
X156083456Y-84920500D01*
X156150495Y-84940185D01*
X156171137Y-84956819D01*
X159048849Y-87834531D01*
X159082334Y-87895854D01*
X159077350Y-87965546D01*
X159035478Y-88021479D01*
X159017464Y-88032696D01*
X158908648Y-88088141D01*
X158908645Y-88088143D01*
X158864077Y-88120523D01*
X158864077Y-88120524D01*
X159543554Y-88800000D01*
X159537339Y-88800000D01*
X159435606Y-88827259D01*
X159344394Y-88879920D01*
X159269920Y-88954394D01*
X159217259Y-89045606D01*
X159190000Y-89147339D01*
X159190000Y-89153553D01*
X158510524Y-88474077D01*
X158510523Y-88474077D01*
X158478143Y-88518644D01*
X158385244Y-88700968D01*
X158322009Y-88895582D01*
X158290000Y-89097682D01*
X158290000Y-89302317D01*
X158322009Y-89504417D01*
X158385244Y-89699031D01*
X158446986Y-89820205D01*
X158459882Y-89888874D01*
X158433606Y-89953615D01*
X158376499Y-89993872D01*
X158336501Y-90000500D01*
X152382101Y-90000500D01*
X152315062Y-89980815D01*
X152269307Y-89928011D01*
X152259363Y-89858853D01*
X152288388Y-89795297D01*
X152309216Y-89776182D01*
X152402649Y-89708298D01*
X152402647Y-89708298D01*
X152402656Y-89708293D01*
X152580793Y-89530156D01*
X152728870Y-89326345D01*
X152843241Y-89101879D01*
X152921090Y-88862285D01*
X152960500Y-88613462D01*
X152960500Y-88361538D01*
X152942895Y-88250387D01*
X152951849Y-88181097D01*
X152977684Y-88143314D01*
X154759464Y-86361535D01*
X154797551Y-86304534D01*
X154858013Y-86214047D01*
X154896227Y-86121789D01*
X154925895Y-86050166D01*
X154960500Y-85876191D01*
X154960500Y-85698808D01*
X154960500Y-83361309D01*
X154960500Y-83361306D01*
X154960499Y-83361304D01*
X154925896Y-83187341D01*
X154925893Y-83187332D01*
X154921258Y-83176143D01*
X154891205Y-83103587D01*
X154858016Y-83023459D01*
X154858009Y-83023446D01*
X154759464Y-82875965D01*
X154759461Y-82875961D01*
X154634038Y-82750538D01*
X154634034Y-82750535D01*
X154486553Y-82651990D01*
X154486540Y-82651983D01*
X154322667Y-82584106D01*
X154322658Y-82584103D01*
X154148694Y-82549500D01*
X154148691Y-82549500D01*
X153971309Y-82549500D01*
X153971306Y-82549500D01*
X153797341Y-82584103D01*
X153797332Y-82584106D01*
X153633459Y-82651983D01*
X153633446Y-82651990D01*
X153485965Y-82750535D01*
X153485961Y-82750538D01*
X153360538Y-82875961D01*
X153360535Y-82875965D01*
X153261990Y-83023446D01*
X153261983Y-83023459D01*
X153194106Y-83187332D01*
X153194103Y-83187341D01*
X153159500Y-83361304D01*
X153159500Y-85363137D01*
X153139815Y-85430176D01*
X153123181Y-85450818D01*
X151704187Y-86869811D01*
X151642864Y-86903296D01*
X151597108Y-86904603D01*
X151485967Y-86887000D01*
X151485962Y-86887000D01*
X151234038Y-86887000D01*
X151131150Y-86903296D01*
X150985214Y-86926410D01*
X150745616Y-87004260D01*
X150521151Y-87118632D01*
X150317350Y-87266701D01*
X150317345Y-87266705D01*
X150139205Y-87444845D01*
X150139201Y-87444850D01*
X149991132Y-87648651D01*
X149876760Y-87873116D01*
X149798910Y-88112714D01*
X149768648Y-88303778D01*
X149759500Y-88361538D01*
X149759500Y-88613462D01*
X149781689Y-88753559D01*
X149798910Y-88862285D01*
X149876760Y-89101883D01*
X149919618Y-89185995D01*
X149986672Y-89317596D01*
X149991132Y-89326348D01*
X150139201Y-89530149D01*
X150139205Y-89530154D01*
X150317345Y-89708294D01*
X150317350Y-89708298D01*
X150410784Y-89776182D01*
X150453450Y-89831512D01*
X150459429Y-89901125D01*
X150426823Y-89962920D01*
X150365985Y-89997277D01*
X150337899Y-90000500D01*
X149499138Y-90000500D01*
X149432099Y-89980815D01*
X149386344Y-89928011D01*
X149376400Y-89858853D01*
X149391055Y-89815722D01*
X149394359Y-89809845D01*
X149394359Y-89809844D01*
X149394361Y-89809842D01*
X149449877Y-89669064D01*
X149460500Y-89580602D01*
X149460500Y-87394398D01*
X149449877Y-87305936D01*
X149394361Y-87165158D01*
X149394360Y-87165157D01*
X149394360Y-87165156D01*
X149302922Y-87044577D01*
X149182343Y-86953139D01*
X149059264Y-86904603D01*
X149041564Y-86897623D01*
X149041563Y-86897622D01*
X149041561Y-86897622D01*
X148995926Y-86892142D01*
X148953102Y-86887000D01*
X146766898Y-86887000D01*
X146727853Y-86891688D01*
X146678438Y-86897622D01*
X146537656Y-86953139D01*
X146417077Y-87044577D01*
X146325639Y-87165156D01*
X146270122Y-87305938D01*
X146264188Y-87355353D01*
X146259500Y-87394398D01*
X146259500Y-89580602D01*
X146264593Y-89623012D01*
X146270122Y-89669061D01*
X146270122Y-89669063D01*
X146270123Y-89669064D01*
X146281941Y-89699031D01*
X146325640Y-89809845D01*
X146328945Y-89815722D01*
X146344647Y-89883805D01*
X146321047Y-89949568D01*
X146265640Y-89992133D01*
X146220862Y-90000500D01*
X93481047Y-90000500D01*
X93414008Y-89980815D01*
X93393366Y-89964181D01*
X92746819Y-89317634D01*
X92713334Y-89256311D01*
X92710500Y-89229953D01*
X92710500Y-87381947D01*
X93000000Y-87381947D01*
X93000000Y-87618052D01*
X93036934Y-87851247D01*
X93109897Y-88075802D01*
X93217087Y-88286174D01*
X93277338Y-88369104D01*
X93277340Y-88369105D01*
X93976212Y-87670233D01*
X93987482Y-87712292D01*
X94059890Y-87837708D01*
X94162292Y-87940110D01*
X94287708Y-88012518D01*
X94329765Y-88023787D01*
X93630893Y-88722658D01*
X93713828Y-88782914D01*
X93924197Y-88890102D01*
X94148752Y-88963065D01*
X94148751Y-88963065D01*
X94381948Y-89000000D01*
X94618052Y-89000000D01*
X94851247Y-88963065D01*
X95075802Y-88890102D01*
X95286163Y-88782918D01*
X95286169Y-88782914D01*
X95369104Y-88722658D01*
X95369105Y-88722658D01*
X94670233Y-88023787D01*
X94712292Y-88012518D01*
X94837708Y-87940110D01*
X94940110Y-87837708D01*
X95012518Y-87712292D01*
X95023787Y-87670234D01*
X95722658Y-88369105D01*
X95722658Y-88369104D01*
X95782914Y-88286169D01*
X95782918Y-88286163D01*
X95890102Y-88075802D01*
X95963065Y-87851247D01*
X96000000Y-87618052D01*
X96000000Y-87381947D01*
X99500000Y-87381947D01*
X99500000Y-87618052D01*
X99536934Y-87851247D01*
X99609897Y-88075802D01*
X99717087Y-88286174D01*
X99777338Y-88369104D01*
X99777340Y-88369105D01*
X100476212Y-87670233D01*
X100487482Y-87712292D01*
X100559890Y-87837708D01*
X100662292Y-87940110D01*
X100787708Y-88012518D01*
X100829765Y-88023787D01*
X100130893Y-88722658D01*
X100213828Y-88782914D01*
X100424197Y-88890102D01*
X100648752Y-88963065D01*
X100648751Y-88963065D01*
X100881948Y-89000000D01*
X101118052Y-89000000D01*
X101351247Y-88963065D01*
X101575802Y-88890102D01*
X101786163Y-88782918D01*
X101786169Y-88782914D01*
X101869104Y-88722658D01*
X101869105Y-88722658D01*
X101170233Y-88023787D01*
X101212292Y-88012518D01*
X101337708Y-87940110D01*
X101440110Y-87837708D01*
X101512518Y-87712292D01*
X101523787Y-87670233D01*
X102222658Y-88369105D01*
X102222658Y-88369104D01*
X102282914Y-88286169D01*
X102282918Y-88286163D01*
X102390102Y-88075802D01*
X102463065Y-87851247D01*
X102500000Y-87618052D01*
X102500000Y-87381947D01*
X104500000Y-87381947D01*
X104500000Y-87618052D01*
X104536934Y-87851247D01*
X104609897Y-88075802D01*
X104717087Y-88286174D01*
X104777338Y-88369104D01*
X104777340Y-88369105D01*
X105476212Y-87670233D01*
X105487482Y-87712292D01*
X105559890Y-87837708D01*
X105662292Y-87940110D01*
X105787708Y-88012518D01*
X105829765Y-88023787D01*
X105130893Y-88722658D01*
X105213828Y-88782914D01*
X105424197Y-88890102D01*
X105648752Y-88963065D01*
X105648751Y-88963065D01*
X105881948Y-89000000D01*
X106118052Y-89000000D01*
X106351247Y-88963065D01*
X106575802Y-88890102D01*
X106786163Y-88782918D01*
X106786169Y-88782914D01*
X106869104Y-88722658D01*
X106869105Y-88722658D01*
X106170233Y-88023787D01*
X106212292Y-88012518D01*
X106337708Y-87940110D01*
X106440110Y-87837708D01*
X106512518Y-87712292D01*
X106523787Y-87670234D01*
X107222658Y-88369105D01*
X107222658Y-88369104D01*
X107282914Y-88286169D01*
X107282918Y-88286163D01*
X107390102Y-88075802D01*
X107463065Y-87851247D01*
X107500000Y-87618052D01*
X107500000Y-87381947D01*
X111000000Y-87381947D01*
X111000000Y-87618052D01*
X111036934Y-87851247D01*
X111109897Y-88075802D01*
X111217087Y-88286174D01*
X111277338Y-88369104D01*
X111277340Y-88369105D01*
X111976212Y-87670233D01*
X111987482Y-87712292D01*
X112059890Y-87837708D01*
X112162292Y-87940110D01*
X112287708Y-88012518D01*
X112329765Y-88023787D01*
X111630893Y-88722658D01*
X111713828Y-88782914D01*
X111924197Y-88890102D01*
X112148752Y-88963065D01*
X112148751Y-88963065D01*
X112381948Y-89000000D01*
X112618052Y-89000000D01*
X112851247Y-88963065D01*
X113075802Y-88890102D01*
X113286163Y-88782918D01*
X113286169Y-88782914D01*
X113369104Y-88722658D01*
X113369105Y-88722658D01*
X112670233Y-88023787D01*
X112712292Y-88012518D01*
X112837708Y-87940110D01*
X112940110Y-87837708D01*
X113012518Y-87712292D01*
X113023787Y-87670234D01*
X113722658Y-88369105D01*
X113722658Y-88369104D01*
X113782914Y-88286169D01*
X113782918Y-88286163D01*
X113890102Y-88075802D01*
X113963065Y-87851247D01*
X114000000Y-87618052D01*
X114000000Y-87381947D01*
X113963065Y-87148752D01*
X113890102Y-86924197D01*
X113782914Y-86713828D01*
X113722658Y-86630894D01*
X113722658Y-86630893D01*
X113023787Y-87329765D01*
X113012518Y-87287708D01*
X112940110Y-87162292D01*
X112837708Y-87059890D01*
X112712292Y-86987482D01*
X112670234Y-86976212D01*
X113369105Y-86277340D01*
X113369104Y-86277338D01*
X113286174Y-86217087D01*
X113075802Y-86109897D01*
X112851247Y-86036934D01*
X112851248Y-86036934D01*
X112618052Y-86000000D01*
X112381948Y-86000000D01*
X112148752Y-86036934D01*
X111924197Y-86109897D01*
X111713830Y-86217084D01*
X111630894Y-86277340D01*
X112329766Y-86976212D01*
X112287708Y-86987482D01*
X112162292Y-87059890D01*
X112059890Y-87162292D01*
X111987482Y-87287708D01*
X111976212Y-87329765D01*
X111277340Y-86630894D01*
X111217084Y-86713830D01*
X111109897Y-86924197D01*
X111036934Y-87148752D01*
X111000000Y-87381947D01*
X107500000Y-87381947D01*
X107463065Y-87148752D01*
X107390102Y-86924197D01*
X107282914Y-86713828D01*
X107222658Y-86630894D01*
X107222658Y-86630893D01*
X106523787Y-87329765D01*
X106512518Y-87287708D01*
X106440110Y-87162292D01*
X106337708Y-87059890D01*
X106212292Y-86987482D01*
X106170234Y-86976212D01*
X106869105Y-86277340D01*
X106869104Y-86277339D01*
X106786174Y-86217087D01*
X106575802Y-86109897D01*
X106351247Y-86036934D01*
X106351248Y-86036934D01*
X106118052Y-86000000D01*
X105881948Y-86000000D01*
X105648752Y-86036934D01*
X105424197Y-86109897D01*
X105213830Y-86217084D01*
X105130894Y-86277340D01*
X105829766Y-86976212D01*
X105787708Y-86987482D01*
X105662292Y-87059890D01*
X105559890Y-87162292D01*
X105487482Y-87287708D01*
X105476212Y-87329766D01*
X104777340Y-86630894D01*
X104717084Y-86713830D01*
X104609897Y-86924197D01*
X104536934Y-87148752D01*
X104500000Y-87381947D01*
X102500000Y-87381947D01*
X102463065Y-87148752D01*
X102390102Y-86924197D01*
X102282914Y-86713828D01*
X102222658Y-86630894D01*
X102222658Y-86630893D01*
X101523787Y-87329765D01*
X101512518Y-87287708D01*
X101440110Y-87162292D01*
X101337708Y-87059890D01*
X101212292Y-86987482D01*
X101170234Y-86976212D01*
X101869105Y-86277340D01*
X101869104Y-86277339D01*
X101786174Y-86217087D01*
X101575802Y-86109897D01*
X101351247Y-86036934D01*
X101351248Y-86036934D01*
X101118052Y-86000000D01*
X100881948Y-86000000D01*
X100648752Y-86036934D01*
X100424197Y-86109897D01*
X100213830Y-86217084D01*
X100130894Y-86277340D01*
X100829766Y-86976212D01*
X100787708Y-86987482D01*
X100662292Y-87059890D01*
X100559890Y-87162292D01*
X100487482Y-87287708D01*
X100476212Y-87329766D01*
X99777340Y-86630894D01*
X99717084Y-86713830D01*
X99609897Y-86924197D01*
X99536934Y-87148752D01*
X99500000Y-87381947D01*
X96000000Y-87381947D01*
X95963065Y-87148752D01*
X95890102Y-86924197D01*
X95782914Y-86713828D01*
X95722658Y-86630894D01*
X95722658Y-86630893D01*
X95023787Y-87329765D01*
X95012518Y-87287708D01*
X94940110Y-87162292D01*
X94837708Y-87059890D01*
X94712292Y-86987482D01*
X94670234Y-86976212D01*
X95369105Y-86277340D01*
X95369104Y-86277339D01*
X95286174Y-86217087D01*
X95075802Y-86109897D01*
X94851247Y-86036934D01*
X94851248Y-86036934D01*
X94618052Y-86000000D01*
X94381948Y-86000000D01*
X94148752Y-86036934D01*
X93924197Y-86109897D01*
X93713830Y-86217084D01*
X93630894Y-86277340D01*
X94329766Y-86976212D01*
X94287708Y-86987482D01*
X94162292Y-87059890D01*
X94059890Y-87162292D01*
X93987482Y-87287708D01*
X93976212Y-87329766D01*
X93277340Y-86630894D01*
X93217084Y-86713830D01*
X93109897Y-86924197D01*
X93036934Y-87148752D01*
X93000000Y-87381947D01*
X92710500Y-87381947D01*
X92710500Y-83307648D01*
X92678477Y-83105465D01*
X92651827Y-83023446D01*
X92615220Y-82910781D01*
X92610530Y-82901577D01*
X93249500Y-82901577D01*
X93249500Y-83098422D01*
X93280290Y-83292826D01*
X93341117Y-83480029D01*
X93418574Y-83632046D01*
X93430476Y-83655405D01*
X93546172Y-83814646D01*
X93685354Y-83953828D01*
X93844595Y-84069524D01*
X93905389Y-84100500D01*
X94019970Y-84158882D01*
X94019972Y-84158882D01*
X94019975Y-84158884D01*
X94070252Y-84175220D01*
X94207173Y-84219709D01*
X94401578Y-84250500D01*
X94401583Y-84250500D01*
X94598422Y-84250500D01*
X94792826Y-84219709D01*
X94980025Y-84158884D01*
X95155405Y-84069524D01*
X95314646Y-83953828D01*
X95453828Y-83814646D01*
X95569524Y-83655405D01*
X95658642Y-83480500D01*
X95658882Y-83480029D01*
X95658882Y-83480028D01*
X95658884Y-83480025D01*
X95719709Y-83292826D01*
X95725983Y-83253212D01*
X95750500Y-83098422D01*
X95750500Y-82901577D01*
X99749500Y-82901577D01*
X99749500Y-83098422D01*
X99780290Y-83292826D01*
X99841117Y-83480029D01*
X99918574Y-83632046D01*
X99930476Y-83655405D01*
X100046172Y-83814646D01*
X100185354Y-83953828D01*
X100344595Y-84069524D01*
X100405389Y-84100500D01*
X100519970Y-84158882D01*
X100519972Y-84158882D01*
X100519975Y-84158884D01*
X100570252Y-84175220D01*
X100707173Y-84219709D01*
X100901578Y-84250500D01*
X100901583Y-84250500D01*
X101098422Y-84250500D01*
X101292826Y-84219709D01*
X101480025Y-84158884D01*
X101655405Y-84069524D01*
X101814646Y-83953828D01*
X101953828Y-83814646D01*
X102069524Y-83655405D01*
X102158642Y-83480500D01*
X102158882Y-83480029D01*
X102158882Y-83480028D01*
X102158884Y-83480025D01*
X102219709Y-83292826D01*
X102225983Y-83253212D01*
X102250500Y-83098422D01*
X102250500Y-82901577D01*
X104749500Y-82901577D01*
X104749500Y-83098422D01*
X104780290Y-83292826D01*
X104841117Y-83480029D01*
X104918574Y-83632046D01*
X104930476Y-83655405D01*
X105046172Y-83814646D01*
X105185354Y-83953828D01*
X105344595Y-84069524D01*
X105405389Y-84100500D01*
X105519970Y-84158882D01*
X105519972Y-84158882D01*
X105519975Y-84158884D01*
X105570252Y-84175220D01*
X105707173Y-84219709D01*
X105901578Y-84250500D01*
X105901583Y-84250500D01*
X106098422Y-84250500D01*
X106292826Y-84219709D01*
X106480025Y-84158884D01*
X106655405Y-84069524D01*
X106814646Y-83953828D01*
X106953828Y-83814646D01*
X107069524Y-83655405D01*
X107158642Y-83480500D01*
X107158882Y-83480029D01*
X107158882Y-83480028D01*
X107158884Y-83480025D01*
X107219709Y-83292826D01*
X107225983Y-83253212D01*
X107250500Y-83098422D01*
X107250500Y-82901577D01*
X111249500Y-82901577D01*
X111249500Y-83098422D01*
X111280290Y-83292826D01*
X111341117Y-83480029D01*
X111418574Y-83632046D01*
X111430476Y-83655405D01*
X111546172Y-83814646D01*
X111685354Y-83953828D01*
X111844595Y-84069524D01*
X111905389Y-84100500D01*
X112019970Y-84158882D01*
X112019972Y-84158882D01*
X112019975Y-84158884D01*
X112070252Y-84175220D01*
X112207173Y-84219709D01*
X112401578Y-84250500D01*
X112401583Y-84250500D01*
X112598422Y-84250500D01*
X112792826Y-84219709D01*
X112980025Y-84158884D01*
X113155405Y-84069524D01*
X113314646Y-83953828D01*
X113453828Y-83814646D01*
X113569524Y-83655405D01*
X113658642Y-83480500D01*
X113658882Y-83480029D01*
X113658882Y-83480028D01*
X113658884Y-83480025D01*
X113719709Y-83292826D01*
X113725983Y-83253212D01*
X113750500Y-83098422D01*
X113750500Y-82901577D01*
X113719709Y-82707173D01*
X113682942Y-82594019D01*
X113658884Y-82519975D01*
X113658882Y-82519972D01*
X113658882Y-82519970D01*
X113597688Y-82399870D01*
X113569524Y-82344595D01*
X113453828Y-82185354D01*
X113314646Y-82046172D01*
X113155405Y-81930476D01*
X113130900Y-81917990D01*
X112980029Y-81841117D01*
X112792826Y-81780290D01*
X112598422Y-81749500D01*
X112598417Y-81749500D01*
X112401583Y-81749500D01*
X112401578Y-81749500D01*
X112207173Y-81780290D01*
X112019970Y-81841117D01*
X111844594Y-81930476D01*
X111753741Y-81996485D01*
X111685354Y-82046172D01*
X111685352Y-82046174D01*
X111685351Y-82046174D01*
X111546174Y-82185351D01*
X111546174Y-82185352D01*
X111546172Y-82185354D01*
X111496485Y-82253741D01*
X111430476Y-82344594D01*
X111341117Y-82519970D01*
X111280290Y-82707173D01*
X111249500Y-82901577D01*
X107250500Y-82901577D01*
X107219709Y-82707173D01*
X107182942Y-82594019D01*
X107158884Y-82519975D01*
X107158882Y-82519972D01*
X107158882Y-82519970D01*
X107097688Y-82399870D01*
X107069524Y-82344595D01*
X106953828Y-82185354D01*
X106814646Y-82046172D01*
X106655405Y-81930476D01*
X106630900Y-81917990D01*
X106480029Y-81841117D01*
X106292826Y-81780290D01*
X106098422Y-81749500D01*
X106098417Y-81749500D01*
X105901583Y-81749500D01*
X105901578Y-81749500D01*
X105707173Y-81780290D01*
X105519970Y-81841117D01*
X105344594Y-81930476D01*
X105253741Y-81996485D01*
X105185354Y-82046172D01*
X105185352Y-82046174D01*
X105185351Y-82046174D01*
X105046174Y-82185351D01*
X105046174Y-82185352D01*
X105046172Y-82185354D01*
X104996485Y-82253741D01*
X104930476Y-82344594D01*
X104841117Y-82519970D01*
X104780290Y-82707173D01*
X104749500Y-82901577D01*
X102250500Y-82901577D01*
X102219709Y-82707173D01*
X102182942Y-82594019D01*
X102158884Y-82519975D01*
X102158882Y-82519972D01*
X102158882Y-82519970D01*
X102097688Y-82399870D01*
X102069524Y-82344595D01*
X101953828Y-82185354D01*
X101814646Y-82046172D01*
X101655405Y-81930476D01*
X101630900Y-81917990D01*
X101480029Y-81841117D01*
X101292826Y-81780290D01*
X101098422Y-81749500D01*
X101098417Y-81749500D01*
X100901583Y-81749500D01*
X100901578Y-81749500D01*
X100707173Y-81780290D01*
X100519970Y-81841117D01*
X100344594Y-81930476D01*
X100253741Y-81996485D01*
X100185354Y-82046172D01*
X100185352Y-82046174D01*
X100185351Y-82046174D01*
X100046174Y-82185351D01*
X100046174Y-82185352D01*
X100046172Y-82185354D01*
X99996485Y-82253741D01*
X99930476Y-82344594D01*
X99841117Y-82519970D01*
X99780290Y-82707173D01*
X99749500Y-82901577D01*
X95750500Y-82901577D01*
X95719709Y-82707173D01*
X95682942Y-82594019D01*
X95658884Y-82519975D01*
X95658882Y-82519972D01*
X95658882Y-82519970D01*
X95597688Y-82399870D01*
X95569524Y-82344595D01*
X95453828Y-82185354D01*
X95314646Y-82046172D01*
X95155405Y-81930476D01*
X95130900Y-81917990D01*
X94980029Y-81841117D01*
X94792826Y-81780290D01*
X94598422Y-81749500D01*
X94598417Y-81749500D01*
X94401583Y-81749500D01*
X94401578Y-81749500D01*
X94207173Y-81780290D01*
X94019970Y-81841117D01*
X93844594Y-81930476D01*
X93753741Y-81996485D01*
X93685354Y-82046172D01*
X93685352Y-82046174D01*
X93685351Y-82046174D01*
X93546174Y-82185351D01*
X93546174Y-82185352D01*
X93546172Y-82185354D01*
X93496485Y-82253741D01*
X93430476Y-82344594D01*
X93341117Y-82519970D01*
X93280290Y-82707173D01*
X93249500Y-82901577D01*
X92610530Y-82901577D01*
X92522287Y-82728390D01*
X92483344Y-82674789D01*
X92401971Y-82562786D01*
X92257213Y-82418028D01*
X92091613Y-82297715D01*
X92091612Y-82297714D01*
X92091610Y-82297713D01*
X92027246Y-82264918D01*
X91909223Y-82204781D01*
X91714534Y-82141522D01*
X91539995Y-82113878D01*
X91512352Y-82109500D01*
X91512351Y-82109500D01*
X89690047Y-82109500D01*
X89623008Y-82089815D01*
X89602366Y-82073181D01*
X87986819Y-80457634D01*
X87953334Y-80396311D01*
X87950500Y-80369953D01*
X87950500Y-79121507D01*
X87970185Y-79054468D01*
X88022989Y-79008713D01*
X88092147Y-78998769D01*
X88155703Y-79027794D01*
X88162181Y-79033826D01*
X88243757Y-79115402D01*
X88428723Y-79249788D01*
X88632429Y-79353582D01*
X88849871Y-79424234D01*
X88940000Y-79438509D01*
X88940000Y-78450747D01*
X88977708Y-78472518D01*
X89117591Y-78510000D01*
X89262409Y-78510000D01*
X89402292Y-78472518D01*
X89440000Y-78450747D01*
X89440000Y-79438508D01*
X89530128Y-79424234D01*
X89747570Y-79353582D01*
X89951276Y-79249788D01*
X90136242Y-79115402D01*
X90297902Y-78953742D01*
X90432288Y-78768776D01*
X90536082Y-78565070D01*
X90606734Y-78347628D01*
X90628532Y-78210000D01*
X89680748Y-78210000D01*
X89702518Y-78172292D01*
X89740000Y-78032409D01*
X89740000Y-77887591D01*
X89702518Y-77747708D01*
X89680748Y-77710000D01*
X90628532Y-77710000D01*
X90606734Y-77572371D01*
X90536082Y-77354929D01*
X90432288Y-77151223D01*
X90297902Y-76966257D01*
X90136242Y-76804597D01*
X89951276Y-76670211D01*
X89747568Y-76566417D01*
X89530124Y-76495765D01*
X89440000Y-76481490D01*
X89440000Y-77469252D01*
X89402292Y-77447482D01*
X89262409Y-77410000D01*
X89117591Y-77410000D01*
X88977708Y-77447482D01*
X88940000Y-77469252D01*
X88940000Y-76481490D01*
X88939999Y-76481490D01*
X88849875Y-76495765D01*
X88632431Y-76566417D01*
X88428723Y-76670211D01*
X88243757Y-76804597D01*
X88082097Y-76966257D01*
X87947709Y-77151226D01*
X87925055Y-77195687D01*
X87877080Y-77246482D01*
X87809259Y-77263277D01*
X87743125Y-77240739D01*
X87714252Y-77212275D01*
X87641969Y-77112784D01*
X87497213Y-76968028D01*
X87331613Y-76847715D01*
X87331612Y-76847714D01*
X87331610Y-76847713D01*
X87260163Y-76811309D01*
X87149223Y-76754781D01*
X86954534Y-76691522D01*
X86779995Y-76663878D01*
X86752352Y-76659500D01*
X86547648Y-76659500D01*
X86540779Y-76660588D01*
X86345465Y-76691522D01*
X86150776Y-76754781D01*
X85968386Y-76847715D01*
X85802786Y-76968028D01*
X85658032Y-77112782D01*
X85658028Y-77112787D01*
X85537318Y-77278932D01*
X85481989Y-77321598D01*
X85412375Y-77327577D01*
X85350580Y-77294972D01*
X85316223Y-77234133D01*
X85313000Y-77206047D01*
X85313000Y-76935323D01*
X85312999Y-76935321D01*
X85298467Y-76862264D01*
X85298466Y-76862260D01*
X85243101Y-76779399D01*
X85160240Y-76724034D01*
X85160239Y-76724033D01*
X85160235Y-76724032D01*
X85087177Y-76709500D01*
X85087174Y-76709500D01*
X83132826Y-76709500D01*
X83132823Y-76709500D01*
X83059764Y-76724032D01*
X83059760Y-76724033D01*
X82976899Y-76779399D01*
X82921533Y-76862260D01*
X82921532Y-76862264D01*
X82907000Y-76935321D01*
X82907000Y-78226500D01*
X82887315Y-78293539D01*
X82834511Y-78339294D01*
X82783000Y-78350500D01*
X81525732Y-78350500D01*
X81458693Y-78330815D01*
X81412938Y-78278011D01*
X81402994Y-78208853D01*
X81425414Y-78153614D01*
X81481232Y-78076788D01*
X81559873Y-77922445D01*
X81613402Y-77757701D01*
X81640500Y-77586611D01*
X81640500Y-77413389D01*
X81613402Y-77242299D01*
X81559873Y-77077555D01*
X81481232Y-76923212D01*
X81379414Y-76783072D01*
X81256928Y-76660586D01*
X81116788Y-76558768D01*
X80983217Y-76490711D01*
X80962447Y-76480128D01*
X80962446Y-76480127D01*
X80962445Y-76480127D01*
X80797701Y-76426598D01*
X80797699Y-76426597D01*
X80797698Y-76426597D01*
X80666271Y-76405781D01*
X80626611Y-76399500D01*
X80474347Y-76399500D01*
X80407308Y-76379815D01*
X80361553Y-76327011D01*
X80351609Y-76257853D01*
X80380634Y-76194297D01*
X80439412Y-76156523D01*
X80442221Y-76155734D01*
X80452485Y-76152984D01*
X80578015Y-76080509D01*
X80680509Y-75978015D01*
X80729882Y-75892499D01*
X80780450Y-75844284D01*
X80837269Y-75830500D01*
X92355985Y-75830500D01*
X92423024Y-75850185D01*
X92468779Y-75902989D01*
X92478723Y-75972147D01*
X92449698Y-76035703D01*
X92443666Y-76042181D01*
X92319532Y-76166314D01*
X92319530Y-76166317D01*
X92280041Y-76234714D01*
X92273387Y-76246237D01*
X92270564Y-76256769D01*
X92249500Y-76335385D01*
X92249500Y-76335387D01*
X92249500Y-80360614D01*
X92229815Y-80427653D01*
X92213181Y-80448295D01*
X92159493Y-80501982D01*
X92159488Y-80501988D01*
X92087017Y-80627511D01*
X92087016Y-80627515D01*
X92049500Y-80767525D01*
X92049500Y-80912475D01*
X92069643Y-80987648D01*
X92087017Y-81052488D01*
X92159488Y-81178011D01*
X92159490Y-81178013D01*
X92159491Y-81178015D01*
X92261985Y-81280509D01*
X92261986Y-81280510D01*
X92261988Y-81280511D01*
X92387511Y-81352982D01*
X92387512Y-81352982D01*
X92387515Y-81352984D01*
X92527525Y-81390500D01*
X92527528Y-81390500D01*
X92672472Y-81390500D01*
X92672475Y-81390500D01*
X92812485Y-81352984D01*
X92907366Y-81298204D01*
X115679500Y-81298204D01*
X115679500Y-81521796D01*
X115688868Y-81580941D01*
X115714478Y-81742635D01*
X115783569Y-81955280D01*
X115783570Y-81955283D01*
X115851685Y-82088964D01*
X115885080Y-82154504D01*
X116016504Y-82335393D01*
X116174607Y-82493496D01*
X116355496Y-82624920D01*
X116453207Y-82674706D01*
X116554716Y-82726429D01*
X116554719Y-82726430D01*
X116641758Y-82754710D01*
X116767366Y-82795522D01*
X116988204Y-82830500D01*
X116988205Y-82830500D01*
X117211795Y-82830500D01*
X117211796Y-82830500D01*
X117432634Y-82795522D01*
X117645283Y-82726429D01*
X117844504Y-82624920D01*
X118025393Y-82493496D01*
X118183496Y-82335393D01*
X118314920Y-82154504D01*
X118416429Y-81955283D01*
X118485522Y-81742634D01*
X118520500Y-81521796D01*
X118520500Y-81298204D01*
X118485522Y-81077366D01*
X118439984Y-80937213D01*
X118416430Y-80864719D01*
X118416429Y-80864716D01*
X118359158Y-80752317D01*
X118314920Y-80665496D01*
X118183496Y-80484607D01*
X118025393Y-80326504D01*
X117844504Y-80195080D01*
X117839148Y-80192351D01*
X117645283Y-80093570D01*
X117645280Y-80093569D01*
X117432635Y-80024478D01*
X117278089Y-80000000D01*
X117211796Y-79989500D01*
X116988204Y-79989500D01*
X116921911Y-80000000D01*
X116767364Y-80024478D01*
X116554719Y-80093569D01*
X116554716Y-80093570D01*
X116355495Y-80195080D01*
X116255111Y-80268014D01*
X116174607Y-80326504D01*
X116174605Y-80326506D01*
X116174604Y-80326506D01*
X116016506Y-80484604D01*
X116016506Y-80484605D01*
X116016504Y-80484607D01*
X115983796Y-80529626D01*
X115885080Y-80665495D01*
X115783570Y-80864716D01*
X115783569Y-80864719D01*
X115714478Y-81077364D01*
X115686496Y-81254036D01*
X115679500Y-81298204D01*
X92907366Y-81298204D01*
X92938015Y-81280509D01*
X93040509Y-81178015D01*
X93112984Y-81052485D01*
X93150500Y-80912475D01*
X93150500Y-80767525D01*
X93112984Y-80627515D01*
X93112456Y-80626601D01*
X93040511Y-80501988D01*
X93040506Y-80501982D01*
X92986819Y-80448295D01*
X92953334Y-80386972D01*
X92950500Y-80360614D01*
X92950500Y-77646204D01*
X92970185Y-77579165D01*
X93022989Y-77533410D01*
X93092147Y-77523466D01*
X93155703Y-77552491D01*
X93162181Y-77558523D01*
X93203072Y-77599414D01*
X93343212Y-77701232D01*
X93416133Y-77738387D01*
X93497550Y-77779871D01*
X93497552Y-77779871D01*
X93497555Y-77779873D01*
X93662299Y-77833402D01*
X93690948Y-77837939D01*
X93754081Y-77867866D01*
X93759231Y-77872731D01*
X94921536Y-79035035D01*
X94984535Y-79098034D01*
X95046966Y-79160465D01*
X95194446Y-79259009D01*
X95194459Y-79259016D01*
X95274055Y-79291985D01*
X95358334Y-79326894D01*
X95400935Y-79335368D01*
X95532305Y-79361500D01*
X95532308Y-79361500D01*
X106288693Y-79361500D01*
X106288694Y-79361499D01*
X106462666Y-79326895D01*
X106546940Y-79291987D01*
X106626547Y-79259013D01*
X106761708Y-79168701D01*
X106774036Y-79160464D01*
X109396680Y-76537818D01*
X109458003Y-76504334D01*
X109484361Y-76501500D01*
X122146638Y-76501500D01*
X122213677Y-76521185D01*
X122234319Y-76537819D01*
X122933181Y-77236680D01*
X122966666Y-77298003D01*
X122969500Y-77324361D01*
X122969500Y-80768696D01*
X123004103Y-80942659D01*
X123004105Y-80942666D01*
X123017617Y-80975287D01*
X123017618Y-80975289D01*
X123071984Y-81106542D01*
X123071985Y-81106543D01*
X123071987Y-81106547D01*
X123119738Y-81178011D01*
X123128082Y-81190498D01*
X123128082Y-81190499D01*
X123170537Y-81254038D01*
X123170540Y-81254041D01*
X125595935Y-83679435D01*
X125629420Y-83740758D01*
X125630728Y-83786508D01*
X125629500Y-83794263D01*
X125629500Y-83794269D01*
X125629500Y-84025731D01*
X125630490Y-84031982D01*
X125665709Y-84254344D01*
X125737232Y-84474473D01*
X125737233Y-84474476D01*
X125792269Y-84582488D01*
X125841178Y-84678477D01*
X125842318Y-84680713D01*
X125978359Y-84867959D01*
X125978363Y-84867964D01*
X126142035Y-85031636D01*
X126142040Y-85031640D01*
X126169052Y-85051265D01*
X126329290Y-85167684D01*
X126458082Y-85233307D01*
X126535523Y-85272766D01*
X126535526Y-85272767D01*
X126619342Y-85300000D01*
X126755657Y-85344291D01*
X126984269Y-85380500D01*
X126984270Y-85380500D01*
X127215730Y-85380500D01*
X127215731Y-85380500D01*
X127444343Y-85344291D01*
X127664476Y-85272766D01*
X127870710Y-85167684D01*
X128057966Y-85031635D01*
X128221635Y-84867966D01*
X128357684Y-84680710D01*
X128462766Y-84474476D01*
X128534291Y-84254343D01*
X128570500Y-84025731D01*
X128570500Y-83794269D01*
X128534291Y-83565657D01*
X128462766Y-83345524D01*
X128462766Y-83345523D01*
X128421886Y-83265293D01*
X128357684Y-83139290D01*
X128273519Y-83023446D01*
X128221640Y-82952040D01*
X128221636Y-82952035D01*
X128057964Y-82788363D01*
X128057959Y-82788359D01*
X127870713Y-82652318D01*
X127870712Y-82652317D01*
X127870710Y-82652316D01*
X127804638Y-82618650D01*
X127664476Y-82547233D01*
X127664473Y-82547232D01*
X127444344Y-82475709D01*
X127285882Y-82450611D01*
X127215731Y-82439500D01*
X126984269Y-82439500D01*
X126984264Y-82439500D01*
X126976508Y-82440728D01*
X126907215Y-82431770D01*
X126869435Y-82405935D01*
X125152603Y-80689103D01*
X125119118Y-80627780D01*
X125124102Y-80558088D01*
X125165974Y-80502155D01*
X125208191Y-80481647D01*
X125212472Y-80480500D01*
X125212475Y-80480500D01*
X125352485Y-80442984D01*
X125478015Y-80370509D01*
X125580509Y-80268015D01*
X125652984Y-80142485D01*
X125690500Y-80002475D01*
X125690500Y-79997265D01*
X125694345Y-79983942D01*
X125708296Y-79962010D01*
X125718810Y-79938243D01*
X125725802Y-79930643D01*
X126498958Y-79157487D01*
X126523978Y-79217890D01*
X126595112Y-79324351D01*
X126685649Y-79414888D01*
X126792110Y-79486022D01*
X126852511Y-79511041D01*
X126108991Y-80254560D01*
X126108991Y-80254561D01*
X126170200Y-80301527D01*
X126170208Y-80301532D01*
X126359792Y-80410990D01*
X126359801Y-80410995D01*
X126562043Y-80494765D01*
X126773503Y-80551426D01*
X126990532Y-80579998D01*
X126990549Y-80580000D01*
X127209451Y-80580000D01*
X127209467Y-80579998D01*
X127426496Y-80551426D01*
X127637956Y-80494765D01*
X127840198Y-80410995D01*
X127840214Y-80410987D01*
X128029785Y-80301537D01*
X128029793Y-80301531D01*
X128091007Y-80254560D01*
X127347488Y-79511041D01*
X127407890Y-79486022D01*
X127514351Y-79414888D01*
X127604888Y-79324351D01*
X127676022Y-79217890D01*
X127701041Y-79157488D01*
X128444560Y-79901007D01*
X128491531Y-79839793D01*
X128491537Y-79839785D01*
X128600987Y-79650214D01*
X128600995Y-79650198D01*
X128684765Y-79447956D01*
X128741426Y-79236496D01*
X128769998Y-79019467D01*
X128770000Y-79019451D01*
X128770000Y-78800548D01*
X128769998Y-78800532D01*
X128741426Y-78583503D01*
X128684765Y-78372043D01*
X128600995Y-78169801D01*
X128600990Y-78169792D01*
X128491532Y-77980208D01*
X128491527Y-77980200D01*
X128444560Y-77918991D01*
X127701041Y-78662510D01*
X127676022Y-78602110D01*
X127604888Y-78495649D01*
X127514351Y-78405112D01*
X127407890Y-78333978D01*
X127347487Y-78308958D01*
X128091007Y-77565438D01*
X128091007Y-77565437D01*
X128029790Y-77518466D01*
X128029782Y-77518460D01*
X127840214Y-77409012D01*
X127840198Y-77409004D01*
X127637956Y-77325234D01*
X127426496Y-77268573D01*
X127209467Y-77240001D01*
X127209451Y-77240000D01*
X126990549Y-77240000D01*
X126990529Y-77240001D01*
X126909495Y-77250669D01*
X126840460Y-77239903D01*
X126788205Y-77193523D01*
X126769320Y-77126253D01*
X126789801Y-77059453D01*
X126805621Y-77040059D01*
X128598862Y-75246819D01*
X128660185Y-75213334D01*
X128686543Y-75210500D01*
X132083308Y-75210500D01*
X132150347Y-75230185D01*
X132196102Y-75282989D01*
X132206046Y-75352147D01*
X132198663Y-75379990D01*
X132140122Y-75528438D01*
X132137050Y-75554023D01*
X132129500Y-75616898D01*
X132129500Y-76803102D01*
X132133442Y-76835925D01*
X132140122Y-76891561D01*
X132195639Y-77032343D01*
X132285792Y-77151226D01*
X132287078Y-77152922D01*
X132287082Y-77152925D01*
X132293073Y-77158916D01*
X132290443Y-77161545D01*
X132321786Y-77203628D01*
X132329500Y-77246680D01*
X132329500Y-83156859D01*
X132309815Y-83223898D01*
X132305818Y-83229745D01*
X132288770Y-83253207D01*
X132288769Y-83253210D01*
X132210128Y-83407552D01*
X132156597Y-83572302D01*
X132133773Y-83716412D01*
X132129500Y-83743389D01*
X132129500Y-83916611D01*
X132132170Y-83933466D01*
X132155740Y-84082287D01*
X132156598Y-84087701D01*
X132208308Y-84246848D01*
X132210128Y-84252447D01*
X132233096Y-84297525D01*
X132288768Y-84406788D01*
X132390586Y-84546928D01*
X132513072Y-84669414D01*
X132653212Y-84771232D01*
X132807555Y-84849873D01*
X132972299Y-84903402D01*
X133143389Y-84930500D01*
X133143390Y-84930500D01*
X133316610Y-84930500D01*
X133316611Y-84930500D01*
X133487701Y-84903402D01*
X133652445Y-84849873D01*
X133806788Y-84771232D01*
X133946928Y-84669414D01*
X134069414Y-84546928D01*
X134171232Y-84406788D01*
X134249873Y-84252445D01*
X134303402Y-84087701D01*
X134330500Y-83916611D01*
X134330500Y-83743389D01*
X134327830Y-83726530D01*
X134719500Y-83726530D01*
X134719500Y-83933469D01*
X134759868Y-84136412D01*
X134759870Y-84136420D01*
X134818153Y-84277128D01*
X134839059Y-84327598D01*
X134880277Y-84389285D01*
X134954024Y-84499657D01*
X135100342Y-84645975D01*
X135100345Y-84645977D01*
X135272402Y-84760941D01*
X135463580Y-84840130D01*
X135651046Y-84877419D01*
X135666530Y-84880499D01*
X135666534Y-84880500D01*
X135666535Y-84880500D01*
X135873466Y-84880500D01*
X135873467Y-84880499D01*
X136076420Y-84840130D01*
X136267598Y-84760941D01*
X136439655Y-84645977D01*
X136585977Y-84499655D01*
X136700941Y-84327598D01*
X136780130Y-84136420D01*
X136820500Y-83933465D01*
X136820500Y-83726535D01*
X136820499Y-83726530D01*
X137259500Y-83726530D01*
X137259500Y-83933469D01*
X137299868Y-84136412D01*
X137299870Y-84136420D01*
X137358153Y-84277128D01*
X137379059Y-84327598D01*
X137420277Y-84389285D01*
X137494024Y-84499657D01*
X137640342Y-84645975D01*
X137640345Y-84645977D01*
X137812402Y-84760941D01*
X138003580Y-84840130D01*
X138191046Y-84877419D01*
X138206530Y-84880499D01*
X138206534Y-84880500D01*
X138206535Y-84880500D01*
X138413466Y-84880500D01*
X138413467Y-84880499D01*
X138616420Y-84840130D01*
X138807598Y-84760941D01*
X138979655Y-84645977D01*
X139125977Y-84499655D01*
X139240941Y-84327598D01*
X139320130Y-84136420D01*
X139330633Y-84083616D01*
X139363017Y-84021707D01*
X139423732Y-83987133D01*
X139493502Y-83990872D01*
X139550174Y-84031738D01*
X139574723Y-84088411D01*
X139582009Y-84134417D01*
X139645244Y-84329031D01*
X139738141Y-84511350D01*
X139738147Y-84511359D01*
X139770523Y-84555921D01*
X139770524Y-84555922D01*
X140450000Y-83876446D01*
X140450000Y-83882661D01*
X140477259Y-83984394D01*
X140529920Y-84075606D01*
X140604394Y-84150080D01*
X140695606Y-84202741D01*
X140797339Y-84230000D01*
X140803553Y-84230000D01*
X140124076Y-84909474D01*
X140168650Y-84941859D01*
X140350968Y-85034755D01*
X140545582Y-85097990D01*
X140747683Y-85130000D01*
X140952317Y-85130000D01*
X141154417Y-85097990D01*
X141349031Y-85034755D01*
X141531349Y-84941859D01*
X141575921Y-84909474D01*
X140896447Y-84230000D01*
X140902661Y-84230000D01*
X141004394Y-84202741D01*
X141095606Y-84150080D01*
X141170080Y-84075606D01*
X141222741Y-83984394D01*
X141250000Y-83882661D01*
X141250000Y-83876447D01*
X141929474Y-84555921D01*
X141961861Y-84511347D01*
X141961861Y-84511346D01*
X142009515Y-84417820D01*
X142057489Y-84367024D01*
X142125310Y-84350228D01*
X142191445Y-84372765D01*
X142230485Y-84417819D01*
X142278141Y-84511350D01*
X142278147Y-84511359D01*
X142310523Y-84555921D01*
X142310524Y-84555922D01*
X142990000Y-83876446D01*
X142990000Y-83882661D01*
X143017259Y-83984394D01*
X143069920Y-84075606D01*
X143144394Y-84150080D01*
X143235606Y-84202741D01*
X143337339Y-84230000D01*
X143343553Y-84230000D01*
X142664076Y-84909474D01*
X142708650Y-84941859D01*
X142890968Y-85034755D01*
X143085582Y-85097990D01*
X143287683Y-85130000D01*
X143492317Y-85130000D01*
X143694417Y-85097990D01*
X143889031Y-85034755D01*
X144071349Y-84941859D01*
X144115921Y-84909474D01*
X143436447Y-84230000D01*
X143442661Y-84230000D01*
X143544394Y-84202741D01*
X143635606Y-84150080D01*
X143710080Y-84075606D01*
X143762741Y-83984394D01*
X143790000Y-83882661D01*
X143790000Y-83876447D01*
X144469474Y-84555921D01*
X144501859Y-84511349D01*
X144594755Y-84329031D01*
X144657988Y-84134422D01*
X144665275Y-84088413D01*
X144695204Y-84025278D01*
X144754515Y-83988346D01*
X144824377Y-83989342D01*
X144882611Y-84027951D01*
X144909366Y-84083617D01*
X144919868Y-84136414D01*
X144919870Y-84136420D01*
X144978153Y-84277128D01*
X144999059Y-84327598D01*
X145040277Y-84389285D01*
X145114024Y-84499657D01*
X145260342Y-84645975D01*
X145260345Y-84645977D01*
X145432402Y-84760941D01*
X145623580Y-84840130D01*
X145811046Y-84877419D01*
X145826530Y-84880499D01*
X145826534Y-84880500D01*
X145826535Y-84880500D01*
X146033466Y-84880500D01*
X146033467Y-84880499D01*
X146236420Y-84840130D01*
X146427598Y-84760941D01*
X146599655Y-84645977D01*
X146745977Y-84499655D01*
X146860941Y-84327598D01*
X146940130Y-84136420D01*
X146980500Y-83933465D01*
X146980500Y-83726535D01*
X146980499Y-83726530D01*
X147419500Y-83726530D01*
X147419500Y-83933469D01*
X147459868Y-84136412D01*
X147459870Y-84136420D01*
X147518153Y-84277128D01*
X147539059Y-84327598D01*
X147580277Y-84389285D01*
X147654024Y-84499657D01*
X147800342Y-84645975D01*
X147800345Y-84645977D01*
X147972402Y-84760941D01*
X148163580Y-84840130D01*
X148351046Y-84877419D01*
X148366530Y-84880499D01*
X148366534Y-84880500D01*
X148366535Y-84880500D01*
X148573466Y-84880500D01*
X148573467Y-84880499D01*
X148776420Y-84840130D01*
X148967598Y-84760941D01*
X149139655Y-84645977D01*
X149285977Y-84499655D01*
X149400941Y-84327598D01*
X149480130Y-84136420D01*
X149520500Y-83933465D01*
X149520500Y-83726535D01*
X149520499Y-83726530D01*
X149959500Y-83726530D01*
X149959500Y-83933469D01*
X149999868Y-84136412D01*
X149999870Y-84136420D01*
X150058153Y-84277128D01*
X150079059Y-84327598D01*
X150120277Y-84389285D01*
X150194024Y-84499657D01*
X150340342Y-84645975D01*
X150340345Y-84645977D01*
X150512402Y-84760941D01*
X150703580Y-84840130D01*
X150891046Y-84877419D01*
X150906530Y-84880499D01*
X150906534Y-84880500D01*
X150906535Y-84880500D01*
X151113466Y-84880500D01*
X151113467Y-84880499D01*
X151316420Y-84840130D01*
X151507598Y-84760941D01*
X151679655Y-84645977D01*
X151825977Y-84499655D01*
X151940941Y-84327598D01*
X152020130Y-84136420D01*
X152060500Y-83933465D01*
X152060500Y-83726535D01*
X152020130Y-83523580D01*
X151940941Y-83332402D01*
X151825977Y-83160345D01*
X151825975Y-83160342D01*
X151679657Y-83014024D01*
X151561428Y-82935027D01*
X151507598Y-82899059D01*
X151451844Y-82875965D01*
X151316420Y-82819870D01*
X151316412Y-82819868D01*
X151113469Y-82779500D01*
X151113465Y-82779500D01*
X150906535Y-82779500D01*
X150906530Y-82779500D01*
X150703587Y-82819868D01*
X150703579Y-82819870D01*
X150512403Y-82899058D01*
X150340342Y-83014024D01*
X150194024Y-83160342D01*
X150079058Y-83332403D01*
X149999870Y-83523579D01*
X149999868Y-83523587D01*
X149959500Y-83726530D01*
X149520499Y-83726530D01*
X149480130Y-83523580D01*
X149400941Y-83332402D01*
X149285977Y-83160345D01*
X149285975Y-83160342D01*
X149139657Y-83014024D01*
X149021428Y-82935027D01*
X148967598Y-82899059D01*
X148911844Y-82875965D01*
X148776420Y-82819870D01*
X148776412Y-82819868D01*
X148573469Y-82779500D01*
X148573465Y-82779500D01*
X148366535Y-82779500D01*
X148366530Y-82779500D01*
X148163587Y-82819868D01*
X148163579Y-82819870D01*
X147972403Y-82899058D01*
X147800342Y-83014024D01*
X147654024Y-83160342D01*
X147539058Y-83332403D01*
X147459870Y-83523579D01*
X147459868Y-83523587D01*
X147419500Y-83726530D01*
X146980499Y-83726530D01*
X146940130Y-83523580D01*
X146860941Y-83332402D01*
X146745977Y-83160345D01*
X146745975Y-83160342D01*
X146599657Y-83014024D01*
X146481428Y-82935027D01*
X146427598Y-82899059D01*
X146371844Y-82875965D01*
X146236420Y-82819870D01*
X146236412Y-82819868D01*
X146033469Y-82779500D01*
X146033465Y-82779500D01*
X145826535Y-82779500D01*
X145826530Y-82779500D01*
X145623587Y-82819868D01*
X145623579Y-82819870D01*
X145432403Y-82899058D01*
X145260342Y-83014024D01*
X145114024Y-83160342D01*
X144999058Y-83332403D01*
X144919870Y-83523579D01*
X144919868Y-83523584D01*
X144909366Y-83576383D01*
X144876980Y-83638293D01*
X144816264Y-83672867D01*
X144746495Y-83669126D01*
X144689823Y-83628259D01*
X144665275Y-83571586D01*
X144657988Y-83525577D01*
X144594755Y-83330968D01*
X144501859Y-83148650D01*
X144469474Y-83104077D01*
X144469474Y-83104076D01*
X143790000Y-83783551D01*
X143790000Y-83777339D01*
X143762741Y-83675606D01*
X143710080Y-83584394D01*
X143635606Y-83509920D01*
X143544394Y-83457259D01*
X143442661Y-83430000D01*
X143436446Y-83430000D01*
X144115922Y-82750524D01*
X144115921Y-82750523D01*
X144071359Y-82718147D01*
X144071350Y-82718141D01*
X143889031Y-82625244D01*
X143694417Y-82562009D01*
X143492317Y-82530000D01*
X143287683Y-82530000D01*
X143085582Y-82562009D01*
X142890968Y-82625244D01*
X142708644Y-82718143D01*
X142664077Y-82750523D01*
X142664077Y-82750524D01*
X143343554Y-83430000D01*
X143337339Y-83430000D01*
X143235606Y-83457259D01*
X143144394Y-83509920D01*
X143069920Y-83584394D01*
X143017259Y-83675606D01*
X142990000Y-83777339D01*
X142990000Y-83783553D01*
X142310524Y-83104077D01*
X142310523Y-83104077D01*
X142278143Y-83148644D01*
X142230485Y-83242180D01*
X142182510Y-83292976D01*
X142114689Y-83309771D01*
X142048554Y-83287233D01*
X142009515Y-83242180D01*
X141961859Y-83148650D01*
X141929474Y-83104077D01*
X141929474Y-83104076D01*
X141250000Y-83783551D01*
X141250000Y-83777339D01*
X141222741Y-83675606D01*
X141170080Y-83584394D01*
X141095606Y-83509920D01*
X141004394Y-83457259D01*
X140902661Y-83430000D01*
X140896446Y-83430000D01*
X141575922Y-82750524D01*
X141575921Y-82750523D01*
X141531359Y-82718147D01*
X141531350Y-82718141D01*
X141349031Y-82625244D01*
X141154417Y-82562009D01*
X140952317Y-82530000D01*
X140747683Y-82530000D01*
X140545582Y-82562009D01*
X140350968Y-82625244D01*
X140168644Y-82718143D01*
X140124077Y-82750523D01*
X140124077Y-82750524D01*
X140803554Y-83430000D01*
X140797339Y-83430000D01*
X140695606Y-83457259D01*
X140604394Y-83509920D01*
X140529920Y-83584394D01*
X140477259Y-83675606D01*
X140450000Y-83777339D01*
X140450000Y-83783553D01*
X139770524Y-83104077D01*
X139770523Y-83104077D01*
X139738143Y-83148644D01*
X139645244Y-83330968D01*
X139582010Y-83525581D01*
X139574723Y-83571589D01*
X139544793Y-83634723D01*
X139485481Y-83671654D01*
X139415619Y-83670656D01*
X139357386Y-83632046D01*
X139330633Y-83576381D01*
X139320131Y-83523587D01*
X139320130Y-83523580D01*
X139240941Y-83332402D01*
X139125977Y-83160345D01*
X139125975Y-83160342D01*
X138979657Y-83014024D01*
X138810332Y-82900886D01*
X138807598Y-82899059D01*
X138751844Y-82875965D01*
X138616420Y-82819870D01*
X138616412Y-82819868D01*
X138413469Y-82779500D01*
X138413465Y-82779500D01*
X138206535Y-82779500D01*
X138206530Y-82779500D01*
X138003587Y-82819868D01*
X138003579Y-82819870D01*
X137812403Y-82899058D01*
X137640342Y-83014024D01*
X137494024Y-83160342D01*
X137379058Y-83332403D01*
X137299870Y-83523579D01*
X137299868Y-83523587D01*
X137259500Y-83726530D01*
X136820499Y-83726530D01*
X136780130Y-83523580D01*
X136700941Y-83332402D01*
X136585977Y-83160345D01*
X136585975Y-83160342D01*
X136439657Y-83014024D01*
X136321428Y-82935027D01*
X136267598Y-82899059D01*
X136211844Y-82875965D01*
X136076420Y-82819870D01*
X136076412Y-82819868D01*
X135873469Y-82779500D01*
X135873465Y-82779500D01*
X135666535Y-82779500D01*
X135666530Y-82779500D01*
X135463587Y-82819868D01*
X135463579Y-82819870D01*
X135272403Y-82899058D01*
X135100342Y-83014024D01*
X134954024Y-83160342D01*
X134839058Y-83332403D01*
X134759870Y-83523579D01*
X134759868Y-83523587D01*
X134719500Y-83726530D01*
X134327830Y-83726530D01*
X134303402Y-83572299D01*
X134249873Y-83407555D01*
X134171232Y-83253212D01*
X134171229Y-83253208D01*
X134171229Y-83253207D01*
X134154182Y-83229745D01*
X134130702Y-83163939D01*
X134130500Y-83156859D01*
X134130500Y-78683362D01*
X134150185Y-78616323D01*
X134202989Y-78570568D01*
X134272147Y-78560624D01*
X134335703Y-78589649D01*
X134342181Y-78595681D01*
X134512098Y-78765598D01*
X134546458Y-78788555D01*
X134571172Y-78805068D01*
X134659585Y-78864145D01*
X134741525Y-78898085D01*
X134747612Y-78900606D01*
X134747617Y-78900609D01*
X134784072Y-78915709D01*
X134823466Y-78932027D01*
X134932637Y-78953742D01*
X134997435Y-78966631D01*
X134997439Y-78966632D01*
X134997440Y-78966632D01*
X134997441Y-78966632D01*
X136184821Y-78966632D01*
X136251860Y-78986317D01*
X136297615Y-79039121D01*
X136307559Y-79108279D01*
X136278534Y-79171835D01*
X136272502Y-79178313D01*
X135208036Y-80242778D01*
X135087716Y-80408384D01*
X135087714Y-80408387D01*
X134994781Y-80590779D01*
X134994780Y-80590781D01*
X134994780Y-80590782D01*
X134981167Y-80632677D01*
X134931522Y-80785468D01*
X134901458Y-80975284D01*
X134899500Y-80987648D01*
X134899500Y-81192352D01*
X134902840Y-81213440D01*
X134931332Y-81393334D01*
X134931523Y-81394535D01*
X134994780Y-81589218D01*
X135087713Y-81771611D01*
X135208034Y-81937219D01*
X135352781Y-82081966D01*
X135518389Y-82202287D01*
X135700782Y-82295220D01*
X135895465Y-82358477D01*
X136097648Y-82390500D01*
X136097649Y-82390500D01*
X136302351Y-82390500D01*
X136302352Y-82390500D01*
X136504535Y-82358477D01*
X136699218Y-82295220D01*
X136881611Y-82202287D01*
X137047219Y-82081966D01*
X137590131Y-81539052D01*
X166242000Y-81539052D01*
X166242000Y-83460948D01*
X166244876Y-83509226D01*
X166244876Y-83509230D01*
X166244877Y-83509231D01*
X166290563Y-83719249D01*
X166290566Y-83719260D01*
X166375177Y-83916845D01*
X166495651Y-84094848D01*
X166495659Y-84094857D01*
X166647642Y-84246840D01*
X166647651Y-84246848D01*
X166766958Y-84327596D01*
X166825652Y-84367321D01*
X166825653Y-84367321D01*
X166825654Y-84367322D01*
X166880728Y-84390906D01*
X167023241Y-84451934D01*
X167233274Y-84497624D01*
X167281552Y-84500500D01*
X167281564Y-84500500D01*
X169203436Y-84500500D01*
X169203448Y-84500500D01*
X169251726Y-84497624D01*
X169461759Y-84451934D01*
X169659348Y-84367321D01*
X169837355Y-84246843D01*
X169989343Y-84094855D01*
X169993705Y-84088411D01*
X170031896Y-84031982D01*
X170109821Y-83916848D01*
X170194434Y-83719259D01*
X170240124Y-83509226D01*
X170243000Y-83460948D01*
X170243000Y-81539052D01*
X170240124Y-81490774D01*
X170194434Y-81280741D01*
X170109821Y-81083152D01*
X170055947Y-81003553D01*
X169989348Y-80905151D01*
X169989340Y-80905142D01*
X169837357Y-80753159D01*
X169837348Y-80753151D01*
X169659345Y-80632677D01*
X169461760Y-80548066D01*
X169461749Y-80548063D01*
X169251731Y-80502377D01*
X169251730Y-80502376D01*
X169251726Y-80502376D01*
X169203448Y-80499500D01*
X167281552Y-80499500D01*
X167233274Y-80502376D01*
X167233269Y-80502376D01*
X167233268Y-80502377D01*
X167023250Y-80548063D01*
X167023239Y-80548066D01*
X166825654Y-80632677D01*
X166647651Y-80753151D01*
X166647642Y-80753159D01*
X166495659Y-80905142D01*
X166495651Y-80905151D01*
X166375177Y-81083154D01*
X166290566Y-81280739D01*
X166290563Y-81280750D01*
X166244877Y-81490768D01*
X166244876Y-81490774D01*
X166242000Y-81539052D01*
X137590131Y-81539052D01*
X137702365Y-81426818D01*
X137763688Y-81393334D01*
X137790046Y-81390500D01*
X158552351Y-81390500D01*
X158552352Y-81390500D01*
X158754534Y-81358477D01*
X158949219Y-81295220D01*
X159131610Y-81202287D01*
X159263386Y-81106547D01*
X159297213Y-81081971D01*
X159297215Y-81081968D01*
X159297219Y-81081966D01*
X159441966Y-80937219D01*
X159441968Y-80937215D01*
X159441971Y-80937213D01*
X159522036Y-80827011D01*
X159562287Y-80771610D01*
X159655220Y-80589219D01*
X159718477Y-80394534D01*
X159750500Y-80192352D01*
X159750500Y-79987648D01*
X159718477Y-79785466D01*
X159718476Y-79785462D01*
X159718476Y-79785461D01*
X159702716Y-79736956D01*
X159655218Y-79590776D01*
X159621503Y-79524607D01*
X159562287Y-79408390D01*
X159503079Y-79326896D01*
X159441971Y-79242786D01*
X159377498Y-79178313D01*
X159344013Y-79116990D01*
X159348997Y-79047298D01*
X159390869Y-78991365D01*
X159456333Y-78966948D01*
X159465179Y-78966632D01*
X160980193Y-78966632D01*
X160980194Y-78966631D01*
X161040297Y-78954676D01*
X161144309Y-78933988D01*
X161213901Y-78940215D01*
X161269078Y-78983078D01*
X161292322Y-79048968D01*
X161292500Y-79055605D01*
X161292500Y-79250000D01*
X162109488Y-79250000D01*
X162076575Y-79307007D01*
X162042500Y-79434174D01*
X162042500Y-79565826D01*
X162076575Y-79692993D01*
X162109488Y-79750000D01*
X161292501Y-79750000D01*
X161292501Y-80314197D01*
X161302900Y-80446332D01*
X161357877Y-80664519D01*
X161450928Y-80869374D01*
X161450931Y-80869380D01*
X161579059Y-81054323D01*
X161579069Y-81054335D01*
X161738164Y-81213430D01*
X161738176Y-81213440D01*
X161923119Y-81341568D01*
X161923125Y-81341571D01*
X162127980Y-81434622D01*
X162346167Y-81489599D01*
X162478310Y-81499999D01*
X163292499Y-81499999D01*
X163292500Y-81499998D01*
X163292500Y-80000000D01*
X163792500Y-80000000D01*
X163792500Y-81499999D01*
X164606682Y-81499999D01*
X164606697Y-81499998D01*
X164738832Y-81489599D01*
X164957016Y-81434622D01*
X164979725Y-81424308D01*
X164979726Y-81424307D01*
X165161874Y-81341571D01*
X165161880Y-81341568D01*
X165346823Y-81213440D01*
X165346835Y-81213430D01*
X165505930Y-81054335D01*
X165505940Y-81054323D01*
X165634068Y-80869380D01*
X165634071Y-80869374D01*
X165727122Y-80664519D01*
X165782099Y-80446332D01*
X165792499Y-80314196D01*
X165792500Y-80314184D01*
X165792500Y-79750000D01*
X164975512Y-79750000D01*
X165008425Y-79692993D01*
X165042500Y-79565826D01*
X165042500Y-79434174D01*
X165008425Y-79307007D01*
X164975512Y-79250000D01*
X165792499Y-79250000D01*
X165792499Y-78685817D01*
X165792498Y-78685802D01*
X165782099Y-78553667D01*
X165727122Y-78335483D01*
X165654128Y-78174782D01*
X165644325Y-78105603D01*
X165673480Y-78042107D01*
X165732334Y-78004452D01*
X165767027Y-77999500D01*
X170849060Y-77999500D01*
X170916099Y-78019185D01*
X170936741Y-78035819D01*
X171244795Y-78343872D01*
X171545958Y-78645035D01*
X171621325Y-78720402D01*
X171671388Y-78770465D01*
X171818868Y-78869009D01*
X171818872Y-78869011D01*
X171818875Y-78869013D01*
X171863616Y-78887545D01*
X171863617Y-78887546D01*
X171863618Y-78887546D01*
X171982756Y-78936895D01*
X172133846Y-78966948D01*
X172156726Y-78971499D01*
X172156730Y-78971500D01*
X172156731Y-78971500D01*
X178957693Y-78971500D01*
X178957694Y-78971499D01*
X179131666Y-78936895D01*
X179213606Y-78902953D01*
X179295547Y-78869013D01*
X179391247Y-78805068D01*
X179414545Y-78789501D01*
X179424042Y-78783154D01*
X179443036Y-78770464D01*
X180730767Y-77482730D01*
X180792088Y-77449247D01*
X180799049Y-77447940D01*
X180808388Y-77446460D01*
X180827701Y-77443402D01*
X180992445Y-77389873D01*
X181146788Y-77311232D01*
X181286928Y-77209414D01*
X181409414Y-77086928D01*
X181511232Y-76946788D01*
X181589873Y-76792445D01*
X181643402Y-76627701D01*
X181670500Y-76456611D01*
X181670500Y-76283389D01*
X181643402Y-76112299D01*
X181589873Y-75947555D01*
X181511232Y-75793212D01*
X181409414Y-75653072D01*
X181286928Y-75530586D01*
X181155114Y-75434817D01*
X181112450Y-75379488D01*
X181106471Y-75309874D01*
X181139077Y-75248079D01*
X181199916Y-75213722D01*
X181228001Y-75210500D01*
X182545692Y-75210500D01*
X182612731Y-75230185D01*
X182658486Y-75282989D01*
X182668430Y-75352147D01*
X182639405Y-75415703D01*
X182614582Y-75437603D01*
X182612404Y-75439058D01*
X182612402Y-75439059D01*
X182548139Y-75481997D01*
X182440342Y-75554024D01*
X182294024Y-75700342D01*
X182179058Y-75872403D01*
X182099870Y-76063579D01*
X182099868Y-76063587D01*
X182059500Y-76266530D01*
X182059500Y-76473469D01*
X182099868Y-76676412D01*
X182099870Y-76676420D01*
X182176849Y-76862264D01*
X182179059Y-76867598D01*
X182218703Y-76926930D01*
X182294024Y-77039657D01*
X182440342Y-77185975D01*
X182440345Y-77185977D01*
X182612402Y-77300941D01*
X182803580Y-77380130D01*
X182998255Y-77418853D01*
X183006530Y-77420499D01*
X183006534Y-77420500D01*
X183006535Y-77420500D01*
X183213466Y-77420500D01*
X183213467Y-77420499D01*
X183416420Y-77380130D01*
X183607598Y-77300941D01*
X183779655Y-77185977D01*
X183925977Y-77039655D01*
X184040941Y-76867598D01*
X184120130Y-76676420D01*
X184160500Y-76473465D01*
X184160500Y-76266535D01*
X184120130Y-76063580D01*
X184040941Y-75872402D01*
X183925977Y-75700345D01*
X183925975Y-75700342D01*
X183779657Y-75554024D01*
X183718322Y-75513042D01*
X183607598Y-75439059D01*
X183607595Y-75439058D01*
X183605418Y-75437603D01*
X183560612Y-75383991D01*
X183551905Y-75314666D01*
X183582059Y-75251638D01*
X183641502Y-75214918D01*
X183674308Y-75210500D01*
X185085692Y-75210500D01*
X185152731Y-75230185D01*
X185198486Y-75282989D01*
X185208430Y-75352147D01*
X185179405Y-75415703D01*
X185154582Y-75437603D01*
X185152404Y-75439058D01*
X185152402Y-75439059D01*
X185088139Y-75481997D01*
X184980342Y-75554024D01*
X184834024Y-75700342D01*
X184719058Y-75872403D01*
X184639870Y-76063579D01*
X184639868Y-76063587D01*
X184599500Y-76266530D01*
X184599500Y-76473469D01*
X184639868Y-76676412D01*
X184639870Y-76676420D01*
X184716849Y-76862264D01*
X184719059Y-76867598D01*
X184758703Y-76926930D01*
X184834024Y-77039657D01*
X184980342Y-77185975D01*
X184980345Y-77185977D01*
X185152402Y-77300941D01*
X185343580Y-77380130D01*
X185538255Y-77418853D01*
X185546530Y-77420499D01*
X185546534Y-77420500D01*
X185546535Y-77420500D01*
X185753466Y-77420500D01*
X185753467Y-77420499D01*
X185956420Y-77380130D01*
X186147598Y-77300941D01*
X186319655Y-77185977D01*
X186465977Y-77039655D01*
X186580941Y-76867598D01*
X186660130Y-76676420D01*
X186700500Y-76473465D01*
X186700500Y-76266535D01*
X186660130Y-76063580D01*
X186580941Y-75872402D01*
X186465977Y-75700345D01*
X186465975Y-75700342D01*
X186319657Y-75554024D01*
X186258322Y-75513042D01*
X186147598Y-75439059D01*
X186147595Y-75439058D01*
X186145418Y-75437603D01*
X186100612Y-75383991D01*
X186091905Y-75314666D01*
X186122059Y-75251638D01*
X186181502Y-75214918D01*
X186214308Y-75210500D01*
X187625692Y-75210500D01*
X187692731Y-75230185D01*
X187738486Y-75282989D01*
X187748430Y-75352147D01*
X187719405Y-75415703D01*
X187694582Y-75437603D01*
X187692404Y-75439058D01*
X187692402Y-75439059D01*
X187628139Y-75481997D01*
X187520342Y-75554024D01*
X187374024Y-75700342D01*
X187259058Y-75872403D01*
X187179870Y-76063579D01*
X187179868Y-76063587D01*
X187139500Y-76266530D01*
X187139500Y-76473469D01*
X187179868Y-76676412D01*
X187179870Y-76676420D01*
X187256849Y-76862264D01*
X187259059Y-76867598D01*
X187298703Y-76926930D01*
X187374024Y-77039657D01*
X187520342Y-77185975D01*
X187520345Y-77185977D01*
X187692402Y-77300941D01*
X187883580Y-77380130D01*
X188078255Y-77418853D01*
X188086530Y-77420499D01*
X188086534Y-77420500D01*
X188086535Y-77420500D01*
X188293466Y-77420500D01*
X188293467Y-77420499D01*
X188496420Y-77380130D01*
X188687598Y-77300941D01*
X188859655Y-77185977D01*
X189005977Y-77039655D01*
X189120941Y-76867598D01*
X189200130Y-76676420D01*
X189240500Y-76473465D01*
X189240500Y-76266535D01*
X189200130Y-76063580D01*
X189120941Y-75872402D01*
X189005977Y-75700345D01*
X189005975Y-75700342D01*
X188859657Y-75554024D01*
X188798322Y-75513042D01*
X188687598Y-75439059D01*
X188687595Y-75439058D01*
X188685418Y-75437603D01*
X188640612Y-75383991D01*
X188631905Y-75314666D01*
X188662059Y-75251638D01*
X188721502Y-75214918D01*
X188754308Y-75210500D01*
X190165692Y-75210500D01*
X190232731Y-75230185D01*
X190278486Y-75282989D01*
X190288430Y-75352147D01*
X190259405Y-75415703D01*
X190234582Y-75437603D01*
X190232404Y-75439058D01*
X190232402Y-75439059D01*
X190168139Y-75481997D01*
X190060342Y-75554024D01*
X189914024Y-75700342D01*
X189799058Y-75872403D01*
X189719870Y-76063579D01*
X189719868Y-76063587D01*
X189679500Y-76266530D01*
X189679500Y-76473469D01*
X189719868Y-76676412D01*
X189719870Y-76676420D01*
X189796849Y-76862264D01*
X189799059Y-76867598D01*
X189838703Y-76926930D01*
X189914024Y-77039657D01*
X190060342Y-77185975D01*
X190060345Y-77185977D01*
X190232402Y-77300941D01*
X190423580Y-77380130D01*
X190618255Y-77418853D01*
X190626530Y-77420499D01*
X190626534Y-77420500D01*
X190626535Y-77420500D01*
X190833466Y-77420500D01*
X190833467Y-77420499D01*
X191036420Y-77380130D01*
X191227598Y-77300941D01*
X191399655Y-77185977D01*
X191545977Y-77039655D01*
X191660941Y-76867598D01*
X191740130Y-76676420D01*
X191780500Y-76473465D01*
X191780500Y-76266535D01*
X191740130Y-76063580D01*
X191660941Y-75872402D01*
X191545977Y-75700345D01*
X191545975Y-75700342D01*
X191399657Y-75554024D01*
X191338322Y-75513042D01*
X191227598Y-75439059D01*
X191227595Y-75439058D01*
X191225418Y-75437603D01*
X191180612Y-75383991D01*
X191171905Y-75314666D01*
X191202059Y-75251638D01*
X191261502Y-75214918D01*
X191294308Y-75210500D01*
X192705692Y-75210500D01*
X192772731Y-75230185D01*
X192818486Y-75282989D01*
X192828430Y-75352147D01*
X192799405Y-75415703D01*
X192774582Y-75437603D01*
X192772404Y-75439058D01*
X192772402Y-75439059D01*
X192708139Y-75481997D01*
X192600342Y-75554024D01*
X192454024Y-75700342D01*
X192339058Y-75872403D01*
X192259870Y-76063579D01*
X192259868Y-76063587D01*
X192219500Y-76266530D01*
X192219500Y-76473469D01*
X192259868Y-76676412D01*
X192259870Y-76676420D01*
X192336849Y-76862264D01*
X192339059Y-76867598D01*
X192378703Y-76926930D01*
X192454024Y-77039657D01*
X192600342Y-77185975D01*
X192600345Y-77185977D01*
X192772402Y-77300941D01*
X192963580Y-77380130D01*
X193158255Y-77418853D01*
X193166530Y-77420499D01*
X193166534Y-77420500D01*
X193166535Y-77420500D01*
X193373466Y-77420500D01*
X193373467Y-77420499D01*
X193576420Y-77380130D01*
X193767598Y-77300941D01*
X193939655Y-77185977D01*
X194085977Y-77039655D01*
X194200941Y-76867598D01*
X194280130Y-76676420D01*
X194320500Y-76473465D01*
X194320500Y-76266535D01*
X194280130Y-76063580D01*
X194200941Y-75872402D01*
X194085977Y-75700345D01*
X194085975Y-75700342D01*
X193939657Y-75554024D01*
X193878322Y-75513042D01*
X193767598Y-75439059D01*
X193767595Y-75439058D01*
X193765418Y-75437603D01*
X193720612Y-75383991D01*
X193711905Y-75314666D01*
X193742059Y-75251638D01*
X193801502Y-75214918D01*
X193834308Y-75210500D01*
X195245692Y-75210500D01*
X195312731Y-75230185D01*
X195358486Y-75282989D01*
X195368430Y-75352147D01*
X195339405Y-75415703D01*
X195314582Y-75437603D01*
X195312404Y-75439058D01*
X195312402Y-75439059D01*
X195248139Y-75481997D01*
X195140342Y-75554024D01*
X194994024Y-75700342D01*
X194879058Y-75872403D01*
X194799870Y-76063579D01*
X194799868Y-76063587D01*
X194759500Y-76266530D01*
X194759500Y-76473469D01*
X194799868Y-76676412D01*
X194799870Y-76676420D01*
X194876849Y-76862264D01*
X194879059Y-76867598D01*
X194918703Y-76926930D01*
X194994024Y-77039657D01*
X195140342Y-77185975D01*
X195140345Y-77185977D01*
X195312402Y-77300941D01*
X195503580Y-77380130D01*
X195698255Y-77418853D01*
X195706530Y-77420499D01*
X195706534Y-77420500D01*
X195706535Y-77420500D01*
X195913466Y-77420500D01*
X195913467Y-77420499D01*
X196116420Y-77380130D01*
X196307598Y-77300941D01*
X196479655Y-77185977D01*
X196625977Y-77039655D01*
X196740941Y-76867598D01*
X196820130Y-76676420D01*
X196860500Y-76473465D01*
X196860500Y-76266535D01*
X196820130Y-76063580D01*
X196740941Y-75872402D01*
X196625977Y-75700345D01*
X196625975Y-75700342D01*
X196479657Y-75554024D01*
X196418322Y-75513042D01*
X196307598Y-75439059D01*
X196307595Y-75439058D01*
X196305418Y-75437603D01*
X196260612Y-75383991D01*
X196251905Y-75314666D01*
X196282059Y-75251638D01*
X196341502Y-75214918D01*
X196374308Y-75210500D01*
X196643456Y-75210500D01*
X196710495Y-75230185D01*
X196731137Y-75246819D01*
X197342213Y-75857895D01*
X197375698Y-75919218D01*
X197370714Y-75988910D01*
X197369093Y-75993028D01*
X197339871Y-76063575D01*
X197339868Y-76063587D01*
X197299500Y-76266530D01*
X197299500Y-76473469D01*
X197339868Y-76676412D01*
X197339870Y-76676420D01*
X197416849Y-76862264D01*
X197419059Y-76867598D01*
X197458703Y-76926930D01*
X197534024Y-77039657D01*
X197680342Y-77185975D01*
X197680345Y-77185977D01*
X197852402Y-77300941D01*
X198043580Y-77380130D01*
X198238255Y-77418853D01*
X198246530Y-77420499D01*
X198246534Y-77420500D01*
X198246535Y-77420500D01*
X198453466Y-77420500D01*
X198453467Y-77420499D01*
X198656420Y-77380130D01*
X198847598Y-77300941D01*
X199019655Y-77185977D01*
X199165977Y-77039655D01*
X199280941Y-76867598D01*
X199360130Y-76676420D01*
X199400500Y-76473465D01*
X199400500Y-76266535D01*
X199360130Y-76063580D01*
X199280941Y-75872402D01*
X199165977Y-75700345D01*
X199165975Y-75700342D01*
X199019657Y-75554024D01*
X198928430Y-75493069D01*
X198847598Y-75439059D01*
X198837359Y-75434818D01*
X198656420Y-75359870D01*
X198656412Y-75359868D01*
X198453469Y-75319500D01*
X198453465Y-75319500D01*
X198246535Y-75319500D01*
X198246530Y-75319500D01*
X198043587Y-75359868D01*
X198043575Y-75359871D01*
X197973028Y-75389093D01*
X197903559Y-75396562D01*
X197841080Y-75365287D01*
X197837895Y-75362213D01*
X197197863Y-74722181D01*
X197164378Y-74660858D01*
X197169362Y-74591166D01*
X197211234Y-74535233D01*
X197276698Y-74510816D01*
X197285544Y-74510500D01*
X212125500Y-74510500D01*
X212192539Y-74530185D01*
G37*
%TD.AperFunction*%
%TA.AperFunction,Conductor*%
G36*
X166801995Y-88021185D02*
G01*
X166847750Y-88073989D01*
X166857694Y-88143147D01*
X166828669Y-88206703D01*
X166782409Y-88240061D01*
X166712403Y-88269058D01*
X166540345Y-88384023D01*
X166540341Y-88384025D01*
X166394024Y-88530342D01*
X166279058Y-88702403D01*
X166199870Y-88893579D01*
X166199868Y-88893587D01*
X166159500Y-89096530D01*
X166159500Y-89303469D01*
X166199868Y-89506412D01*
X166199870Y-89506420D01*
X166267238Y-89669061D01*
X166279059Y-89697598D01*
X166292456Y-89717648D01*
X166352566Y-89807610D01*
X166373443Y-89874287D01*
X166354958Y-89941667D01*
X166302979Y-89988357D01*
X166249463Y-90000500D01*
X160843499Y-90000500D01*
X160776460Y-89980815D01*
X160730705Y-89928011D01*
X160720761Y-89858853D01*
X160733014Y-89820205D01*
X160794755Y-89699031D01*
X160857990Y-89504417D01*
X160890000Y-89302317D01*
X160890000Y-89097682D01*
X160857990Y-88895582D01*
X160794755Y-88700968D01*
X160701859Y-88518650D01*
X160669474Y-88474077D01*
X160669474Y-88474076D01*
X159990000Y-89153551D01*
X159990000Y-89147339D01*
X159962741Y-89045606D01*
X159910080Y-88954394D01*
X159835606Y-88879920D01*
X159744394Y-88827259D01*
X159642661Y-88800000D01*
X159636446Y-88800000D01*
X160321297Y-88115149D01*
X160331443Y-88066852D01*
X160380494Y-88017095D01*
X160440697Y-88001500D01*
X166734956Y-88001500D01*
X166801995Y-88021185D01*
G37*
%TD.AperFunction*%
%TA.AperFunction,Conductor*%
G36*
X82918124Y-79071185D02*
G01*
X82954186Y-79106608D01*
X82976899Y-79140601D01*
X83059760Y-79195966D01*
X83059764Y-79195967D01*
X83132821Y-79210499D01*
X83132824Y-79210500D01*
X83132826Y-79210500D01*
X85087176Y-79210500D01*
X85087177Y-79210499D01*
X85160240Y-79195966D01*
X85160244Y-79195963D01*
X85171521Y-79191293D01*
X85172412Y-79193444D01*
X85223285Y-79177514D01*
X85290665Y-79195998D01*
X85337356Y-79247976D01*
X85349500Y-79301494D01*
X85349500Y-79535500D01*
X85329815Y-79602539D01*
X85277011Y-79648294D01*
X85225500Y-79659500D01*
X83371088Y-79659500D01*
X83166385Y-79659500D01*
X83119516Y-79666923D01*
X82964205Y-79691522D01*
X82964204Y-79691522D01*
X82884207Y-79717515D01*
X82769519Y-79754779D01*
X82769518Y-79754779D01*
X82678321Y-79801245D01*
X82678322Y-79801246D01*
X82587122Y-79847715D01*
X82421524Y-79968028D01*
X82421519Y-79968032D01*
X81796435Y-80593116D01*
X81735112Y-80626601D01*
X81665420Y-80621617D01*
X81609487Y-80579745D01*
X81587137Y-80529626D01*
X81563735Y-80411976D01*
X81550130Y-80343580D01*
X81470941Y-80152402D01*
X81355977Y-79980345D01*
X81355975Y-79980342D01*
X81209657Y-79834024D01*
X81123626Y-79776541D01*
X81037598Y-79719059D01*
X81033870Y-79717515D01*
X80846420Y-79639870D01*
X80846412Y-79639868D01*
X80643469Y-79599500D01*
X80643465Y-79599500D01*
X80436535Y-79599500D01*
X80436530Y-79599500D01*
X80233587Y-79639868D01*
X80233579Y-79639870D01*
X80042403Y-79719058D01*
X79870342Y-79834024D01*
X79724024Y-79980342D01*
X79609058Y-80152403D01*
X79529870Y-80343579D01*
X79529868Y-80343587D01*
X79489500Y-80546530D01*
X79489500Y-80753469D01*
X79529868Y-80956412D01*
X79529870Y-80956420D01*
X79609059Y-81147598D01*
X79645599Y-81202284D01*
X79724024Y-81319657D01*
X79862186Y-81457819D01*
X79895671Y-81519142D01*
X79890687Y-81588834D01*
X79848815Y-81644767D01*
X79783351Y-81669184D01*
X79774505Y-81669500D01*
X77443932Y-81669500D01*
X77239228Y-81669500D01*
X77190581Y-81677205D01*
X77037043Y-81701523D01*
X76939703Y-81733150D01*
X76939703Y-81733151D01*
X76910518Y-81742634D01*
X76842357Y-81764781D01*
X76793916Y-81789464D01*
X76659968Y-81857713D01*
X76494358Y-81978036D01*
X73809214Y-84663181D01*
X73747891Y-84696666D01*
X73721533Y-84699500D01*
X71973238Y-84699500D01*
X71906199Y-84679815D01*
X71900362Y-84675824D01*
X71838845Y-84631130D01*
X71743380Y-84582488D01*
X71614383Y-84516760D01*
X71374785Y-84438910D01*
X71256220Y-84420131D01*
X71125962Y-84399500D01*
X70874038Y-84399500D01*
X70828024Y-84406788D01*
X70625214Y-84438910D01*
X70385616Y-84516760D01*
X70161151Y-84631132D01*
X69957350Y-84779201D01*
X69957345Y-84779205D01*
X69779205Y-84957345D01*
X69779201Y-84957350D01*
X69631132Y-85161151D01*
X69516760Y-85385616D01*
X69438910Y-85625214D01*
X69427254Y-85698808D01*
X69399500Y-85874038D01*
X69399500Y-86125962D01*
X69420415Y-86258011D01*
X69438910Y-86374785D01*
X69516760Y-86614383D01*
X69587587Y-86753387D01*
X69628146Y-86832989D01*
X69631132Y-86838848D01*
X69779201Y-87042649D01*
X69779205Y-87042654D01*
X69957344Y-87220793D01*
X69957350Y-87220798D01*
X70074536Y-87305938D01*
X70161155Y-87368870D01*
X70257600Y-87418011D01*
X70385616Y-87483239D01*
X70385618Y-87483239D01*
X70385621Y-87483241D01*
X70625215Y-87561090D01*
X70874038Y-87600500D01*
X70874039Y-87600500D01*
X71125961Y-87600500D01*
X71125962Y-87600500D01*
X71374785Y-87561090D01*
X71614379Y-87483241D01*
X71838845Y-87368870D01*
X71900353Y-87324181D01*
X71966158Y-87300702D01*
X71973238Y-87300500D01*
X74413931Y-87300500D01*
X74413932Y-87300500D01*
X74616115Y-87268477D01*
X74762870Y-87220793D01*
X74810799Y-87205220D01*
X74914317Y-87152475D01*
X74993191Y-87112287D01*
X75158799Y-86991966D01*
X76930830Y-85219934D01*
X76992151Y-85186451D01*
X77061843Y-85191435D01*
X77117776Y-85233307D01*
X77133070Y-85260165D01*
X77201983Y-85426540D01*
X77201990Y-85426553D01*
X77300535Y-85574034D01*
X77300538Y-85574038D01*
X77425961Y-85699461D01*
X77425965Y-85699464D01*
X77573446Y-85798009D01*
X77573459Y-85798016D01*
X77692987Y-85847525D01*
X77737334Y-85865894D01*
X77737336Y-85865894D01*
X77737341Y-85865896D01*
X77911304Y-85900499D01*
X77911307Y-85900500D01*
X77911309Y-85900500D01*
X78088693Y-85900500D01*
X78088694Y-85900499D01*
X78146682Y-85888964D01*
X78262658Y-85865896D01*
X78262661Y-85865894D01*
X78262666Y-85865894D01*
X78426547Y-85798013D01*
X78574035Y-85699464D01*
X78699464Y-85574035D01*
X78785302Y-85445569D01*
X78838914Y-85400765D01*
X78908239Y-85392058D01*
X78971267Y-85422212D01*
X78998889Y-85458166D01*
X79059197Y-85576527D01*
X79063709Y-85582736D01*
X79063709Y-85582737D01*
X79705145Y-84941300D01*
X79700000Y-84960504D01*
X79700000Y-85039496D01*
X79720444Y-85115796D01*
X79759940Y-85184205D01*
X79815795Y-85240060D01*
X79884204Y-85279556D01*
X79960504Y-85300000D01*
X80039496Y-85300000D01*
X80058696Y-85294855D01*
X79417261Y-85936289D01*
X79417262Y-85936290D01*
X79423471Y-85940801D01*
X79577742Y-86019408D01*
X79742415Y-86072914D01*
X79913429Y-86100000D01*
X80086571Y-86100000D01*
X80257584Y-86072914D01*
X80320106Y-86052599D01*
X80389947Y-86050603D01*
X80449780Y-86086683D01*
X80480609Y-86149384D01*
X80472645Y-86218798D01*
X80446106Y-86258211D01*
X77851137Y-88853181D01*
X77789814Y-88886666D01*
X77763456Y-88889500D01*
X71026544Y-88889500D01*
X70959505Y-88869815D01*
X70938863Y-88853181D01*
X68966819Y-86881137D01*
X68933334Y-86819814D01*
X68930500Y-86793456D01*
X68930500Y-82088964D01*
X68950185Y-82021925D01*
X68966819Y-82001283D01*
X69187819Y-81780283D01*
X69249142Y-81746798D01*
X69318834Y-81751782D01*
X69374767Y-81793654D01*
X69399184Y-81859118D01*
X69399500Y-81867964D01*
X69399500Y-83593102D01*
X69403722Y-83628259D01*
X69410122Y-83681561D01*
X69465639Y-83822343D01*
X69557077Y-83942922D01*
X69677656Y-84034360D01*
X69677657Y-84034360D01*
X69677658Y-84034361D01*
X69818436Y-84089877D01*
X69906898Y-84100500D01*
X69906903Y-84100500D01*
X72093097Y-84100500D01*
X72093102Y-84100500D01*
X72181564Y-84089877D01*
X72322342Y-84034361D01*
X72442922Y-83942922D01*
X72534361Y-83822342D01*
X72589877Y-83681564D01*
X72600500Y-83593102D01*
X72600500Y-81406898D01*
X72589877Y-81318436D01*
X72534361Y-81177658D01*
X72534360Y-81177657D01*
X72534360Y-81177656D01*
X72442922Y-81057077D01*
X72322343Y-80965639D01*
X72187528Y-80912475D01*
X72181564Y-80910123D01*
X72181563Y-80910122D01*
X72181561Y-80910122D01*
X72135926Y-80904642D01*
X72093102Y-80899500D01*
X72093097Y-80899500D01*
X70367964Y-80899500D01*
X70300925Y-80879815D01*
X70255170Y-80827011D01*
X70245226Y-80757853D01*
X70274251Y-80694297D01*
X70280283Y-80687819D01*
X70420420Y-80547682D01*
X74240000Y-80547682D01*
X74240000Y-80752317D01*
X74272009Y-80954417D01*
X74335244Y-81149031D01*
X74428141Y-81331350D01*
X74428147Y-81331359D01*
X74460523Y-81375921D01*
X74460524Y-81375922D01*
X75140000Y-80696446D01*
X75140000Y-80702661D01*
X75167259Y-80804394D01*
X75219920Y-80895606D01*
X75294394Y-80970080D01*
X75385606Y-81022741D01*
X75487339Y-81050000D01*
X75493553Y-81050000D01*
X74814076Y-81729474D01*
X74858650Y-81761859D01*
X75040968Y-81854755D01*
X75235582Y-81917990D01*
X75437683Y-81950000D01*
X75642317Y-81950000D01*
X75844417Y-81917990D01*
X76039031Y-81854755D01*
X76221349Y-81761859D01*
X76265921Y-81729474D01*
X75586447Y-81050000D01*
X75592661Y-81050000D01*
X75694394Y-81022741D01*
X75785606Y-80970080D01*
X75860080Y-80895606D01*
X75912741Y-80804394D01*
X75940000Y-80702661D01*
X75940000Y-80696447D01*
X76619474Y-81375921D01*
X76651859Y-81331349D01*
X76744755Y-81149031D01*
X76807990Y-80954417D01*
X76840000Y-80752317D01*
X76840000Y-80547682D01*
X76807990Y-80345582D01*
X76744755Y-80150968D01*
X76651859Y-79968650D01*
X76619474Y-79924077D01*
X76619474Y-79924076D01*
X75940000Y-80603551D01*
X75940000Y-80597339D01*
X75912741Y-80495606D01*
X75860080Y-80404394D01*
X75785606Y-80329920D01*
X75694394Y-80277259D01*
X75592661Y-80250000D01*
X75586446Y-80250000D01*
X76265922Y-79570524D01*
X76265921Y-79570523D01*
X76221359Y-79538147D01*
X76221350Y-79538141D01*
X76039031Y-79445244D01*
X75844417Y-79382009D01*
X75642317Y-79350000D01*
X75437683Y-79350000D01*
X75235582Y-79382009D01*
X75040968Y-79445244D01*
X74858644Y-79538143D01*
X74814077Y-79570523D01*
X74814077Y-79570524D01*
X75493554Y-80250000D01*
X75487339Y-80250000D01*
X75385606Y-80277259D01*
X75294394Y-80329920D01*
X75219920Y-80404394D01*
X75167259Y-80495606D01*
X75140000Y-80597339D01*
X75140000Y-80603553D01*
X74460524Y-79924077D01*
X74460523Y-79924077D01*
X74428143Y-79968644D01*
X74335244Y-80150968D01*
X74272009Y-80345582D01*
X74240000Y-80547682D01*
X70420420Y-80547682D01*
X71880283Y-79087819D01*
X71941606Y-79054334D01*
X71967964Y-79051500D01*
X82851085Y-79051500D01*
X82918124Y-79071185D01*
G37*
%TD.AperFunction*%
%TA.AperFunction,Conductor*%
G36*
X172418192Y-75220043D02*
G01*
X172450859Y-75229005D01*
X172451628Y-75229861D01*
X172452731Y-75230185D01*
X172474899Y-75255769D01*
X172497549Y-75280984D01*
X172497733Y-75282120D01*
X172498486Y-75282989D01*
X172503307Y-75316520D01*
X172508725Y-75349954D01*
X172508266Y-75351007D01*
X172508430Y-75352147D01*
X172494354Y-75382967D01*
X172480839Y-75414018D01*
X172479712Y-75415029D01*
X172479405Y-75415703D01*
X172454582Y-75437603D01*
X172452404Y-75439058D01*
X172452402Y-75439059D01*
X172388139Y-75481997D01*
X172280342Y-75554024D01*
X172134024Y-75700342D01*
X172019058Y-75872403D01*
X171939870Y-76063579D01*
X171939868Y-76063585D01*
X171906246Y-76232614D01*
X171873861Y-76294525D01*
X171813145Y-76329099D01*
X171743376Y-76325359D01*
X171732371Y-76320873D01*
X171723698Y-76316842D01*
X171699969Y-76300987D01*
X171606816Y-76262402D01*
X171604375Y-76261391D01*
X171604371Y-76261389D01*
X171536088Y-76233105D01*
X171536080Y-76233103D01*
X171362118Y-76198500D01*
X171362114Y-76198500D01*
X171362113Y-76198500D01*
X161947324Y-76198500D01*
X161769940Y-76198500D01*
X161769935Y-76198500D01*
X161595973Y-76233103D01*
X161595965Y-76233105D01*
X161530283Y-76260312D01*
X161530280Y-76260313D01*
X161525238Y-76262402D01*
X161432085Y-76300987D01*
X161365720Y-76345331D01*
X161360139Y-76349059D01*
X161360137Y-76349061D01*
X161284593Y-76399537D01*
X161284592Y-76399538D01*
X160554819Y-77129313D01*
X160493496Y-77162798D01*
X160467138Y-77165632D01*
X151910072Y-77165632D01*
X151843033Y-77145947D01*
X151797278Y-77093143D01*
X151787334Y-77023985D01*
X151816359Y-76960429D01*
X151822391Y-76953951D01*
X151829554Y-76946788D01*
X151849414Y-76926928D01*
X151951232Y-76786788D01*
X152029873Y-76632445D01*
X152083402Y-76467701D01*
X152110500Y-76296611D01*
X152110500Y-76123389D01*
X152083402Y-75952299D01*
X152029873Y-75787555D01*
X151951232Y-75633212D01*
X151849414Y-75493072D01*
X151778523Y-75422181D01*
X151745038Y-75360858D01*
X151750022Y-75291166D01*
X151791894Y-75235233D01*
X151857358Y-75210816D01*
X151866204Y-75210500D01*
X172385692Y-75210500D01*
X172418192Y-75220043D01*
G37*
%TD.AperFunction*%
%TA.AperFunction,Conductor*%
G36*
X174532905Y-75216738D02*
G01*
X174554994Y-75218318D01*
X174565777Y-75226390D01*
X174578699Y-75230185D01*
X174593198Y-75246918D01*
X174610927Y-75260190D01*
X174615634Y-75272810D01*
X174624454Y-75282989D01*
X174627605Y-75304906D01*
X174635344Y-75325654D01*
X174632481Y-75338814D01*
X174634398Y-75352147D01*
X174625198Y-75372290D01*
X174620492Y-75393927D01*
X174607223Y-75411652D01*
X174605373Y-75415703D01*
X174599341Y-75422181D01*
X174498417Y-75523104D01*
X174498417Y-75523105D01*
X174378140Y-75688650D01*
X174285244Y-75870968D01*
X174222010Y-76065581D01*
X174214723Y-76111589D01*
X174184793Y-76174723D01*
X174125481Y-76211654D01*
X174055619Y-76210656D01*
X173997386Y-76172046D01*
X173970633Y-76116381D01*
X173960131Y-76063587D01*
X173960131Y-76063585D01*
X173960130Y-76063580D01*
X173880941Y-75872402D01*
X173765977Y-75700345D01*
X173765975Y-75700342D01*
X173619657Y-75554024D01*
X173558322Y-75513042D01*
X173447598Y-75439059D01*
X173447595Y-75439058D01*
X173445418Y-75437603D01*
X173400612Y-75383991D01*
X173391905Y-75314666D01*
X173422059Y-75251638D01*
X173481502Y-75214918D01*
X173514308Y-75210500D01*
X174511660Y-75210500D01*
X174532905Y-75216738D01*
G37*
%TD.AperFunction*%
%TD*%
M02*
