%TF.GenerationSoftware,KiCad,Pcbnew,9.0.2*%
%TF.CreationDate,2025-06-22T14:59:44-10:00*%
%TF.ProjectId,3D_Print_Pen,33445f50-7269-46e7-945f-50656e2e6b69,rev?*%
%TF.SameCoordinates,Original*%
%TF.FileFunction,Legend,Bot*%
%TF.FilePolarity,Positive*%
%FSLAX46Y46*%
G04 Gerber Fmt 4.6, Leading zero omitted, Abs format (unit mm)*
G04 Created by KiCad (PCBNEW 9.0.2) date 2025-06-22 14:59:44*
%MOMM*%
%LPD*%
G01*
G04 APERTURE LIST*
%ADD10C,0.150000*%
%ADD11C,0.120000*%
G04 APERTURE END LIST*
D10*
X122695238Y-75314819D02*
X123028571Y-74838628D01*
X123266666Y-75314819D02*
X123266666Y-74314819D01*
X123266666Y-74314819D02*
X122885714Y-74314819D01*
X122885714Y-74314819D02*
X122790476Y-74362438D01*
X122790476Y-74362438D02*
X122742857Y-74410057D01*
X122742857Y-74410057D02*
X122695238Y-74505295D01*
X122695238Y-74505295D02*
X122695238Y-74648152D01*
X122695238Y-74648152D02*
X122742857Y-74743390D01*
X122742857Y-74743390D02*
X122790476Y-74791009D01*
X122790476Y-74791009D02*
X122885714Y-74838628D01*
X122885714Y-74838628D02*
X123266666Y-74838628D01*
X122409523Y-74314819D02*
X122076190Y-75314819D01*
X122076190Y-75314819D02*
X121742857Y-74314819D01*
X120885714Y-75314819D02*
X121457142Y-75314819D01*
X121171428Y-75314819D02*
X121171428Y-74314819D01*
X121171428Y-74314819D02*
X121266666Y-74457676D01*
X121266666Y-74457676D02*
X121361904Y-74552914D01*
X121361904Y-74552914D02*
X121457142Y-74600533D01*
X78206666Y-78509580D02*
X78254285Y-78557200D01*
X78254285Y-78557200D02*
X78397142Y-78604819D01*
X78397142Y-78604819D02*
X78492380Y-78604819D01*
X78492380Y-78604819D02*
X78635237Y-78557200D01*
X78635237Y-78557200D02*
X78730475Y-78461961D01*
X78730475Y-78461961D02*
X78778094Y-78366723D01*
X78778094Y-78366723D02*
X78825713Y-78176247D01*
X78825713Y-78176247D02*
X78825713Y-78033390D01*
X78825713Y-78033390D02*
X78778094Y-77842914D01*
X78778094Y-77842914D02*
X78730475Y-77747676D01*
X78730475Y-77747676D02*
X78635237Y-77652438D01*
X78635237Y-77652438D02*
X78492380Y-77604819D01*
X78492380Y-77604819D02*
X78397142Y-77604819D01*
X78397142Y-77604819D02*
X78254285Y-77652438D01*
X78254285Y-77652438D02*
X78206666Y-77700057D01*
X77349523Y-77938152D02*
X77349523Y-78604819D01*
X77587618Y-77557200D02*
X77825713Y-78271485D01*
X77825713Y-78271485D02*
X77206666Y-78271485D01*
X99015713Y-78584819D02*
X98444285Y-78584819D01*
X98729999Y-79584819D02*
X98729999Y-78584819D01*
X98110951Y-79584819D02*
X98110951Y-78584819D01*
X98110951Y-79061009D02*
X97539523Y-79061009D01*
X97539523Y-79584819D02*
X97539523Y-78584819D01*
X96539523Y-79584819D02*
X97110951Y-79584819D01*
X96825237Y-79584819D02*
X96825237Y-78584819D01*
X96825237Y-78584819D02*
X96920475Y-78727676D01*
X96920475Y-78727676D02*
X97015713Y-78822914D01*
X97015713Y-78822914D02*
X97110951Y-78870533D01*
X90063810Y-88344819D02*
X90397143Y-87868628D01*
X90635238Y-88344819D02*
X90635238Y-87344819D01*
X90635238Y-87344819D02*
X90254286Y-87344819D01*
X90254286Y-87344819D02*
X90159048Y-87392438D01*
X90159048Y-87392438D02*
X90111429Y-87440057D01*
X90111429Y-87440057D02*
X90063810Y-87535295D01*
X90063810Y-87535295D02*
X90063810Y-87678152D01*
X90063810Y-87678152D02*
X90111429Y-87773390D01*
X90111429Y-87773390D02*
X90159048Y-87821009D01*
X90159048Y-87821009D02*
X90254286Y-87868628D01*
X90254286Y-87868628D02*
X90635238Y-87868628D01*
X89873334Y-88440057D02*
X89111429Y-88440057D01*
X88873333Y-88344819D02*
X88873333Y-87344819D01*
X88873333Y-87344819D02*
X88492381Y-87344819D01*
X88492381Y-87344819D02*
X88397143Y-87392438D01*
X88397143Y-87392438D02*
X88349524Y-87440057D01*
X88349524Y-87440057D02*
X88301905Y-87535295D01*
X88301905Y-87535295D02*
X88301905Y-87678152D01*
X88301905Y-87678152D02*
X88349524Y-87773390D01*
X88349524Y-87773390D02*
X88397143Y-87821009D01*
X88397143Y-87821009D02*
X88492381Y-87868628D01*
X88492381Y-87868628D02*
X88873333Y-87868628D01*
X87444762Y-87678152D02*
X87444762Y-88344819D01*
X87873333Y-87678152D02*
X87873333Y-88201961D01*
X87873333Y-88201961D02*
X87825714Y-88297200D01*
X87825714Y-88297200D02*
X87730476Y-88344819D01*
X87730476Y-88344819D02*
X87587619Y-88344819D01*
X87587619Y-88344819D02*
X87492381Y-88297200D01*
X87492381Y-88297200D02*
X87444762Y-88249580D01*
X86825714Y-88344819D02*
X86920952Y-88297200D01*
X86920952Y-88297200D02*
X86968571Y-88201961D01*
X86968571Y-88201961D02*
X86968571Y-87344819D01*
X86301904Y-88344819D02*
X86397142Y-88297200D01*
X86397142Y-88297200D02*
X86444761Y-88201961D01*
X86444761Y-88201961D02*
X86444761Y-87344819D01*
X85397142Y-88344819D02*
X85968570Y-88344819D01*
X85682856Y-88344819D02*
X85682856Y-87344819D01*
X85682856Y-87344819D02*
X85778094Y-87487676D01*
X85778094Y-87487676D02*
X85873332Y-87582914D01*
X85873332Y-87582914D02*
X85968570Y-87630533D01*
X79666666Y-76359580D02*
X79714285Y-76407200D01*
X79714285Y-76407200D02*
X79857142Y-76454819D01*
X79857142Y-76454819D02*
X79952380Y-76454819D01*
X79952380Y-76454819D02*
X80095237Y-76407200D01*
X80095237Y-76407200D02*
X80190475Y-76311961D01*
X80190475Y-76311961D02*
X80238094Y-76216723D01*
X80238094Y-76216723D02*
X80285713Y-76026247D01*
X80285713Y-76026247D02*
X80285713Y-75883390D01*
X80285713Y-75883390D02*
X80238094Y-75692914D01*
X80238094Y-75692914D02*
X80190475Y-75597676D01*
X80190475Y-75597676D02*
X80095237Y-75502438D01*
X80095237Y-75502438D02*
X79952380Y-75454819D01*
X79952380Y-75454819D02*
X79857142Y-75454819D01*
X79857142Y-75454819D02*
X79714285Y-75502438D01*
X79714285Y-75502438D02*
X79666666Y-75550057D01*
X79333332Y-75454819D02*
X78714285Y-75454819D01*
X78714285Y-75454819D02*
X79047618Y-75835771D01*
X79047618Y-75835771D02*
X78904761Y-75835771D01*
X78904761Y-75835771D02*
X78809523Y-75883390D01*
X78809523Y-75883390D02*
X78761904Y-75931009D01*
X78761904Y-75931009D02*
X78714285Y-76026247D01*
X78714285Y-76026247D02*
X78714285Y-76264342D01*
X78714285Y-76264342D02*
X78761904Y-76359580D01*
X78761904Y-76359580D02*
X78809523Y-76407200D01*
X78809523Y-76407200D02*
X78904761Y-76454819D01*
X78904761Y-76454819D02*
X79190475Y-76454819D01*
X79190475Y-76454819D02*
X79285713Y-76407200D01*
X79285713Y-76407200D02*
X79333332Y-76359580D01*
X130354819Y-79258095D02*
X131164342Y-79258095D01*
X131164342Y-79258095D02*
X131259580Y-79305714D01*
X131259580Y-79305714D02*
X131307200Y-79353333D01*
X131307200Y-79353333D02*
X131354819Y-79448571D01*
X131354819Y-79448571D02*
X131354819Y-79639047D01*
X131354819Y-79639047D02*
X131307200Y-79734285D01*
X131307200Y-79734285D02*
X131259580Y-79781904D01*
X131259580Y-79781904D02*
X131164342Y-79829523D01*
X131164342Y-79829523D02*
X130354819Y-79829523D01*
X131354819Y-80829523D02*
X131354819Y-80258095D01*
X131354819Y-80543809D02*
X130354819Y-80543809D01*
X130354819Y-80543809D02*
X130497676Y-80448571D01*
X130497676Y-80448571D02*
X130592914Y-80353333D01*
X130592914Y-80353333D02*
X130640533Y-80258095D01*
X164852381Y-87284819D02*
X165185714Y-86808628D01*
X165423809Y-87284819D02*
X165423809Y-86284819D01*
X165423809Y-86284819D02*
X165042857Y-86284819D01*
X165042857Y-86284819D02*
X164947619Y-86332438D01*
X164947619Y-86332438D02*
X164900000Y-86380057D01*
X164900000Y-86380057D02*
X164852381Y-86475295D01*
X164852381Y-86475295D02*
X164852381Y-86618152D01*
X164852381Y-86618152D02*
X164900000Y-86713390D01*
X164900000Y-86713390D02*
X164947619Y-86761009D01*
X164947619Y-86761009D02*
X165042857Y-86808628D01*
X165042857Y-86808628D02*
X165423809Y-86808628D01*
X164661905Y-87380057D02*
X163900000Y-87380057D01*
X163804761Y-86284819D02*
X163233333Y-86284819D01*
X163519047Y-87284819D02*
X163519047Y-86284819D01*
X162899999Y-87284819D02*
X162899999Y-86284819D01*
X162899999Y-86761009D02*
X162328571Y-86761009D01*
X162328571Y-87284819D02*
X162328571Y-86284819D01*
X161328571Y-87284819D02*
X161899999Y-87284819D01*
X161614285Y-87284819D02*
X161614285Y-86284819D01*
X161614285Y-86284819D02*
X161709523Y-86427676D01*
X161709523Y-86427676D02*
X161804761Y-86522914D01*
X161804761Y-86522914D02*
X161899999Y-86570533D01*
X168747319Y-76716666D02*
X169461604Y-76716666D01*
X169461604Y-76716666D02*
X169604461Y-76669047D01*
X169604461Y-76669047D02*
X169699700Y-76573809D01*
X169699700Y-76573809D02*
X169747319Y-76430952D01*
X169747319Y-76430952D02*
X169747319Y-76335714D01*
X169747319Y-77716666D02*
X169747319Y-77145238D01*
X169747319Y-77430952D02*
X168747319Y-77430952D01*
X168747319Y-77430952D02*
X168890176Y-77335714D01*
X168890176Y-77335714D02*
X168985414Y-77240476D01*
X168985414Y-77240476D02*
X169033033Y-77145238D01*
X89909524Y-86234819D02*
X90242857Y-85758628D01*
X90480952Y-86234819D02*
X90480952Y-85234819D01*
X90480952Y-85234819D02*
X90100000Y-85234819D01*
X90100000Y-85234819D02*
X90004762Y-85282438D01*
X90004762Y-85282438D02*
X89957143Y-85330057D01*
X89957143Y-85330057D02*
X89909524Y-85425295D01*
X89909524Y-85425295D02*
X89909524Y-85568152D01*
X89909524Y-85568152D02*
X89957143Y-85663390D01*
X89957143Y-85663390D02*
X90004762Y-85711009D01*
X90004762Y-85711009D02*
X90100000Y-85758628D01*
X90100000Y-85758628D02*
X90480952Y-85758628D01*
X89719048Y-86330057D02*
X88957143Y-86330057D01*
X88195238Y-85282438D02*
X88290476Y-85234819D01*
X88290476Y-85234819D02*
X88433333Y-85234819D01*
X88433333Y-85234819D02*
X88576190Y-85282438D01*
X88576190Y-85282438D02*
X88671428Y-85377676D01*
X88671428Y-85377676D02*
X88719047Y-85472914D01*
X88719047Y-85472914D02*
X88766666Y-85663390D01*
X88766666Y-85663390D02*
X88766666Y-85806247D01*
X88766666Y-85806247D02*
X88719047Y-85996723D01*
X88719047Y-85996723D02*
X88671428Y-86091961D01*
X88671428Y-86091961D02*
X88576190Y-86187200D01*
X88576190Y-86187200D02*
X88433333Y-86234819D01*
X88433333Y-86234819D02*
X88338095Y-86234819D01*
X88338095Y-86234819D02*
X88195238Y-86187200D01*
X88195238Y-86187200D02*
X88147619Y-86139580D01*
X88147619Y-86139580D02*
X88147619Y-85806247D01*
X88147619Y-85806247D02*
X88338095Y-85806247D01*
X87766666Y-85949104D02*
X87290476Y-85949104D01*
X87861904Y-86234819D02*
X87528571Y-85234819D01*
X87528571Y-85234819D02*
X87195238Y-86234819D01*
X87004761Y-85234819D02*
X86433333Y-85234819D01*
X86719047Y-86234819D02*
X86719047Y-85234819D01*
X86099999Y-85711009D02*
X85766666Y-85711009D01*
X85623809Y-86234819D02*
X86099999Y-86234819D01*
X86099999Y-86234819D02*
X86099999Y-85234819D01*
X86099999Y-85234819D02*
X85623809Y-85234819D01*
X84671428Y-86234819D02*
X85242856Y-86234819D01*
X84957142Y-86234819D02*
X84957142Y-85234819D01*
X84957142Y-85234819D02*
X85052380Y-85377676D01*
X85052380Y-85377676D02*
X85147618Y-85472914D01*
X85147618Y-85472914D02*
X85242856Y-85520533D01*
D11*
%TO.C,RV1*%
X116990000Y-80014000D02*
G75*
G02*
X126140000Y-77891000I5110335J-1245761D01*
G01*
X126006000Y-84783000D02*
G75*
G02*
X117073001Y-82810000I-3906094J3523805D01*
G01*
X127272000Y-80299000D02*
G75*
G02*
X127208000Y-82514000I-5170140J-959040D01*
G01*
%TO.C,C4*%
X75570000Y-79280000D02*
X75570000Y-79610000D01*
X75570000Y-81690000D02*
X75570000Y-82020000D01*
X80510000Y-79280000D02*
X75570000Y-79280000D01*
X80510000Y-79280000D02*
X80510000Y-79610000D01*
X80510000Y-81690000D02*
X80510000Y-82020000D01*
X80510000Y-82020000D02*
X75570000Y-82020000D01*
%TO.C,TH1*%
X94460000Y-75390000D02*
X101000000Y-75390000D01*
X94460000Y-75720000D02*
X94460000Y-75390000D01*
X94460000Y-77800000D02*
X94460000Y-78130000D01*
X94460000Y-78130000D02*
X101000000Y-78130000D01*
X101000000Y-75390000D02*
X101000000Y-75720000D01*
X101000000Y-78130000D02*
X101000000Y-77800000D01*
%TO.C,R_Pull1*%
X84770000Y-88890000D02*
X84770000Y-89220000D01*
X84770000Y-91630000D02*
X84770000Y-91300000D01*
X91310000Y-88890000D02*
X84770000Y-88890000D01*
X91310000Y-89220000D02*
X91310000Y-88890000D01*
X91310000Y-91300000D02*
X91310000Y-91630000D01*
X91310000Y-91630000D02*
X84770000Y-91630000D01*
%TO.C,C3*%
X75570000Y-76130000D02*
X75570000Y-76460000D01*
X75570000Y-78540000D02*
X75570000Y-78870000D01*
X80510000Y-76130000D02*
X75570000Y-76130000D01*
X80510000Y-76130000D02*
X80510000Y-76460000D01*
X80510000Y-78540000D02*
X80510000Y-78870000D01*
X80510000Y-78870000D02*
X75570000Y-78870000D01*
%TO.C,U1*%
X131900000Y-77370000D02*
X152340000Y-77370000D01*
X131900000Y-79020000D02*
X131900000Y-77370000D01*
X131900000Y-82670000D02*
X131900000Y-81020000D01*
X152340000Y-77370000D02*
X152340000Y-82670000D01*
X152340000Y-82670000D02*
X131900000Y-82670000D01*
X131900000Y-79020000D02*
G75*
G02*
X131900000Y-81020000I0J-1000000D01*
G01*
%TO.C,R_TH1*%
X160130000Y-87830000D02*
X160130000Y-88160000D01*
X160130000Y-90570000D02*
X160130000Y-90240000D01*
X166670000Y-87830000D02*
X160130000Y-87830000D01*
X166670000Y-88160000D02*
X166670000Y-87830000D01*
X166670000Y-90240000D02*
X166670000Y-90570000D01*
X166670000Y-90570000D02*
X160130000Y-90570000D01*
%TO.C,J1*%
X158742500Y-85550000D02*
X158742500Y-86600000D01*
X158942500Y-71700000D02*
X158942500Y-86400000D01*
X158942500Y-86400000D02*
X161542500Y-86400000D01*
X159792500Y-86600000D02*
X158742500Y-86600000D01*
X165442500Y-86400000D02*
X168142500Y-86400000D01*
X168142500Y-71700000D02*
X158942500Y-71700000D01*
X168142500Y-80500000D02*
X168142500Y-71700000D01*
X168142500Y-86400000D02*
X168142500Y-84500000D01*
%TO.C,R_GATE1*%
X84330000Y-82040000D02*
X90870000Y-82040000D01*
X84330000Y-82370000D02*
X84330000Y-82040000D01*
X84330000Y-84450000D02*
X84330000Y-84780000D01*
X84330000Y-84780000D02*
X90870000Y-84780000D01*
X90870000Y-82040000D02*
X90870000Y-82370000D01*
X90870000Y-84780000D02*
X90870000Y-84450000D01*
%TD*%
M02*
